<?xml version="1.0" encoding="UTF-8"?>
<svg id="Layer_2" data-name="Layer 2" xmlns="http://www.w3.org/2000/svg" xmlns:xlink="http://www.w3.org/1999/xlink" viewBox="0 0 713.53 713.53">
  <defs>
    <style>
      .cls-1 {
        fill: #fff;
      }

      .cls-2 {
        fill: #e17530;
      }

      .cls-3 {
        fill: #d7702e;
      }

      .cls-4 {
        fill: url(#linear-gradient-2);
        opacity: .29;
        stroke-width: 5px;
      }

      .cls-4, .cls-5 {
        stroke: #dbdbdb;
        stroke-miterlimit: 10;
      }

      .cls-6 {
        fill: #028800;
      }

      .cls-7 {
        fill: #cfd4a9;
      }

      .cls-8 {
        fill: #fdda83;
      }

      .cls-9 {
        fill: #cf6c2c;
      }

      .cls-5 {
        fill: url(#linear-gradient);
        opacity: .68;
        stroke-width: 10px;
      }

      .cls-10 {
        fill: #aa9c26;
      }

      .cls-11 {
        fill: #fbc017;
      }

      .cls-12 {
        fill: #089e03;
      }
    </style>
    <linearGradient id="linear-gradient" x1="-1064.26" y1="1058.71" x2="-563.31" y2="1058.71" gradientTransform="translate(373.79 -978.46) rotate(-36.82)" gradientUnits="userSpaceOnUse">
      <stop offset="0" stop-color="#9c9c9c"/>
      <stop offset="0" stop-color="#9a9a9a" stop-opacity=".99"/>
      <stop offset=".05" stop-color="#757575" stop-opacity=".76"/>
      <stop offset=".11" stop-color="#565656" stop-opacity=".55"/>
      <stop offset=".18" stop-color="#3b3b3b" stop-opacity=".38"/>
      <stop offset=".25" stop-color="#252525" stop-opacity=".24"/>
      <stop offset=".33" stop-color="#141414" stop-opacity=".13"/>
      <stop offset=".44" stop-color="#080808" stop-opacity=".06"/>
      <stop offset=".59" stop-color="#010101" stop-opacity=".01"/>
      <stop offset="1" stop-color="#000" stop-opacity="0"/>
    </linearGradient>
    <linearGradient id="linear-gradient-2" x1="-1008.3" y1="1059.59" x2="-620.99" y2="1059.59" xlink:href="#linear-gradient"/>
  </defs>
  <g id="Layer_1-2" data-name="Layer 1">
    <g>
      <circle class="cls-1" cx="356.76" cy="356.76" r="356.76"/>
      <circle class="cls-5" cx="356.76" cy="356.76" r="250.48"/>
      <circle class="cls-4" cx="356.6" cy="357.99" r="193.66"/>
    </g>
    <g>
      <g>
        <path class="cls-6" d="M269.7,76.89s-88.15,3.25-64.12,82.76c0,0,77.33-17.94,64.12-82.76Z"/>
        <path class="cls-12" d="M269.7,76.89s-53.57,50.76-64.12,82.76c0,0,77.33-17.94,64.12-82.76Z"/>
      </g>
      <g>
        <path class="cls-6" d="M161.95,131.68s-55.4,68.64,20.36,102.69c0,0,37.21-70.12-20.36-102.69Z"/>
        <path class="cls-12" d="M161.95,131.68s3.15,73.73,20.36,102.69c0,0,37.21-70.12-20.36-102.69Z"/>
      </g>
      <g>
        <path class="cls-10" d="M251.26,132.34c-22.12-22.12-57.7-22.12-79.81,0-.5,.5-1,1-1.5,1.5-20.45,22.12-20.12,56.7,1.5,78.32,21.62,21.62,56.2,21.95,78.32,1.5,.5-.5,1-1,1.5-1.5,22.12-22.12,22.12-57.7,0-79.81h0Z"/>
        <path class="cls-8" d="M176.77,206.83c-18.62-18.62-18.96-48.55-1.5-67.68,.5-.5,1-1,1.5-1.5,19.12-19.12,50.05-19.12,69.17,0,19.12,19.12,19.12,50.05,0,69.17-.5,.5-1,1-1.5,1.5-19.29,17.63-49.05,17.13-67.68-1.5h0Z"/>
        <path class="cls-11" d="M181.59,199.02l20.29-20.29c1.66-1.66,.33-4.32-1.66-4.32h-28.6c-1.33,0-2.66,1.33-2.49,2.83,.83,7.82,3.99,15.3,8.98,21.62,.5,1.16,2.49,1.16,3.49,.17h0Z"/>
        <path class="cls-11" d="M206.36,129.68c-7.82,.83-15.3,3.99-21.62,8.98-1.16,.83-1.33,2.66-.17,3.82l20.29,20.29c1.66,1.66,4.32,.33,4.32-1.66v-28.6c0-1.66-1.33-2.99-2.83-2.83h0Z"/>
        <path class="cls-11" d="M177.76,145.64c-5.15,6.49-7.98,13.97-8.98,21.62-.17,1.5,1,2.66,2.49,2.83h28.6c2.33,0,3.33-2.66,1.66-4.32l-20.12-20.12c-.83-1.16-2.83-1.16-3.66,0h0Z"/>
        <path class="cls-11" d="M244.94,198.85c5.15-6.49,7.98-13.97,8.98-21.62,.17-1.5-1-2.66-2.49-2.83h-28.6c-2.33,0-3.33,2.66-1.66,4.32l20.29,20.29c.67,1,2.66,1,3.49-.17h0Z"/>
        <path class="cls-11" d="M217.84,162.77l20.29-20.29c1-1,1-2.66-.17-3.82-6.49-5.15-13.97-7.98-21.62-8.98-1.5-.17-2.66,1-2.83,2.49v28.6c0,2.33,2.66,3.66,4.32,2h0Z"/>
        <path class="cls-11" d="M241.12,145.48l-20.29,20.29c-1.66,1.66-.33,4.32,1.66,4.32h28.6c1.33,0,2.66-1.33,2.49-2.83-.83-7.82-3.99-15.3-8.98-21.62-.5-1.16-2.33-1.33-3.49-.17h0Z"/>
        <path class="cls-11" d="M216.34,214.82c7.82-.83,15.3-3.99,21.62-8.98,1.16-.83,1.33-2.66,.17-3.82l-20.29-20.29c-1.66-1.66-4.32-.33-4.32,1.66v28.6c0,1.66,1.33,2.99,2.83,2.83h0Z"/>
        <path class="cls-11" d="M184.75,205.84c6.49,5.15,13.97,7.98,21.62,8.98,1.5,.17,2.66-1,2.83-2.49v-28.6c0-2.33-2.66-3.33-4.32-1.66l-20.29,20.29c-1,.67-1,2.66,.17,3.49h0Z"/>
      </g>
      <g>
        <path class="cls-6" d="M528.58,141.03s-68.59,55.46-1.67,104.68c0,0,51.12-60.73,1.67-104.68Z"/>
        <path class="cls-12" d="M528.58,141.03s-12.42,72.74-1.67,104.68c0,0,51.12-60.73,1.67-104.68Z"/>
      </g>
      <g>
        <path class="cls-6" d="M596.69,191.5s-81.6-33.49-92.6,48.84c0,0,77.82,15.64,92.6-48.84Z"/>
        <path class="cls-12" d="M596.69,191.5s-69.76,24.07-92.6,48.84c0,0,77.82,15.64,92.6-48.84Z"/>
      </g>
      <g>
        <path class="cls-6" d="M121.56,321.95s25.74-84.37-57.26-87.64c0,0-8.32,78.94,57.26,87.64Z"/>
        <path class="cls-12" d="M121.56,321.95s-30.47-67.21-57.26-87.64c0,0-8.32,78.94,57.26,87.64Z"/>
      </g>
      <g>
        <path class="cls-10" d="M131.7,292.42c-22.12-22.12-57.7-22.12-79.81,0-.5,.5-1,1-1.5,1.5-20.45,22.12-20.12,56.7,1.5,78.32,21.62,21.62,56.2,21.95,78.32,1.5,.5-.5,1-1,1.5-1.5,22.12-22.12,22.12-57.7,0-79.81h0Z"/>
        <path class="cls-8" d="M57.21,366.92c-18.62-18.62-18.96-48.55-1.5-67.68,.5-.5,1-1,1.5-1.5,19.12-19.12,50.05-19.12,69.17,0,19.12,19.12,19.12,50.05,0,69.17-.5,.5-1,1-1.5,1.5-19.29,17.63-49.05,17.13-67.68-1.5h0Z"/>
        <path class="cls-11" d="M62.03,359.1l20.29-20.29c1.66-1.66,.33-4.32-1.66-4.32h-28.6c-1.33,0-2.66,1.33-2.49,2.83,.83,7.82,3.99,15.3,8.98,21.62,.5,1.16,2.49,1.16,3.49,.17h0Z"/>
        <path class="cls-11" d="M86.81,289.76c-7.82,.83-15.3,3.99-21.62,8.98-1.16,.83-1.33,2.66-.17,3.82l20.29,20.29c1.66,1.66,4.32,.33,4.32-1.66v-28.6c0-1.66-1.33-2.99-2.83-2.83h0Z"/>
        <path class="cls-11" d="M58.21,305.73c-5.15,6.49-7.98,13.97-8.98,21.62-.17,1.5,1,2.66,2.49,2.83h28.6c2.33,0,3.33-2.66,1.66-4.32l-20.12-20.12c-.83-1.16-2.83-1.16-3.66,0h0Z"/>
        <path class="cls-11" d="M125.38,358.94c5.15-6.49,7.98-13.97,8.98-21.62,.17-1.5-1-2.66-2.49-2.83h-28.6c-2.33,0-3.33,2.66-1.66,4.32l20.29,20.29c.67,1,2.66,1,3.49-.17h0Z"/>
        <path class="cls-11" d="M98.28,322.85l20.29-20.29c1-1,1-2.66-.17-3.82-6.49-5.15-13.97-7.98-21.62-8.98-1.5-.17-2.66,1-2.83,2.49v28.6c0,2.33,2.66,3.66,4.32,2h0Z"/>
        <path class="cls-11" d="M121.56,305.56l-20.29,20.29c-1.66,1.66-.33,4.32,1.66,4.32h28.6c1.33,0,2.66-1.33,2.49-2.83-.83-7.82-3.99-15.3-8.98-21.62-.5-1.16-2.33-1.33-3.49-.17h0Z"/>
        <path class="cls-11" d="M96.78,374.9c7.82-.83,15.3-3.99,21.62-8.98,1.16-.83,1.33-2.66,.17-3.82l-20.29-20.29c-1.66-1.66-4.32-.33-4.32,1.66v28.6c0,1.66,1.33,2.99,2.83,2.83h0Z"/>
        <path class="cls-11" d="M65.19,365.92c6.49,5.15,13.97,7.98,21.62,8.98,1.5,.17,2.66-1,2.83-2.49v-28.6c0-2.33-2.66-3.33-4.32-1.66l-20.29,20.29c-1,.67-1,2.66,.17,3.49h0Z"/>
      </g>
      <g>
        <path class="cls-10" d="M583.76,474.04c-22.12-22.12-57.7-22.12-79.81,0-.5,.5-1,1-1.5,1.5-20.45,22.12-20.12,56.7,1.5,78.32,21.62,21.62,56.2,21.95,78.32,1.5,.5-.5,1-1,1.5-1.5,22.12-22.12,22.12-57.7,0-79.81h0Z"/>
        <path class="cls-8" d="M509.26,548.53c-18.62-18.62-18.96-48.55-1.5-67.68,.5-.5,1-1,1.5-1.5,19.12-19.12,50.05-19.12,69.17,0,19.12,19.12,19.12,50.05,0,69.17-.5,.5-1,1-1.5,1.5-19.29,17.63-49.05,17.13-67.68-1.5h0Z"/>
        <path class="cls-11" d="M514.09,540.71l20.29-20.29c1.66-1.66,.33-4.32-1.66-4.32h-28.6c-1.33,0-2.66,1.33-2.49,2.83,.83,7.82,3.99,15.3,8.98,21.62,.5,1.16,2.49,1.16,3.49,.17h0Z"/>
        <path class="cls-11" d="M538.86,471.38c-7.82,.83-15.3,3.99-21.62,8.98-1.16,.83-1.33,2.66-.17,3.82l20.29,20.29c1.66,1.66,4.32,.33,4.32-1.66v-28.6c0-1.66-1.33-2.99-2.83-2.83h0Z"/>
        <path class="cls-11" d="M510.26,487.34c-5.15,6.49-7.98,13.97-8.98,21.62-.17,1.5,1,2.66,2.49,2.83h28.6c2.33,0,3.33-2.66,1.66-4.32l-20.12-20.12c-.83-1.16-2.83-1.16-3.66,0h0Z"/>
        <path class="cls-11" d="M577.44,540.55c5.15-6.49,7.98-13.97,8.98-21.62,.17-1.5-1-2.66-2.49-2.83h-28.6c-2.33,0-3.33,2.66-1.66,4.32l20.29,20.29c.67,1,2.66,1,3.49-.17h0Z"/>
        <path class="cls-11" d="M550.34,504.46l20.29-20.29c1-1,1-2.66-.17-3.82-6.49-5.15-13.97-7.98-21.62-8.98-1.5-.17-2.66,1-2.83,2.49v28.6c0,2.33,2.66,3.66,4.32,2h0Z"/>
        <path class="cls-11" d="M573.61,487.17l-20.29,20.29c-1.66,1.66-.33,4.32,1.66,4.32h28.6c1.33,0,2.66-1.33,2.49-2.83-.83-7.82-3.99-15.3-8.98-21.62-.5-1.16-2.33-1.33-3.49-.17h0Z"/>
        <path class="cls-11" d="M548.84,556.51c7.82-.83,15.3-3.99,21.62-8.98,1.16-.83,1.33-2.66,.17-3.82l-20.29-20.29c-1.66-1.66-4.32-.33-4.32,1.66v28.6c0,1.66,1.33,2.99,2.83,2.83h0Z"/>
        <path class="cls-11" d="M517.25,547.53c6.49,5.15,13.97,7.98,21.62,8.98,1.5,.17,2.66-1,2.83-2.49v-28.6c0-2.33-2.66-3.33-4.32-1.66l-20.29,20.29c-1,.67-1,2.66,.17,3.49h0Z"/>
      </g>
      <g>
        <path class="cls-10" d="M342.13,549.65c-22.12-22.12-57.7-22.12-79.81,0-.5,.5-1,1-1.5,1.5-20.45,22.12-20.12,56.7,1.5,78.32,21.62,21.62,56.2,21.95,78.32,1.5,.5-.5,1-1,1.5-1.5,22.12-22.12,22.12-57.7,0-79.81h0Z"/>
        <path class="cls-8" d="M267.63,624.15c-18.62-18.62-18.96-48.55-1.5-67.68,.5-.5,1-1,1.5-1.5,19.12-19.12,50.05-19.12,69.17,0,19.12,19.12,19.12,50.05,0,69.17-.5,.5-1,1-1.5,1.5-19.29,17.63-49.05,17.13-67.68-1.5h0Z"/>
        <path class="cls-11" d="M272.45,616.33l20.29-20.29c1.66-1.66,.33-4.32-1.66-4.32h-28.6c-1.33,0-2.66,1.33-2.49,2.83,.83,7.82,3.99,15.3,8.98,21.62,.5,1.16,2.49,1.16,3.49,.17h0Z"/>
        <path class="cls-11" d="M297.23,546.99c-7.82,.83-15.3,3.99-21.62,8.98-1.16,.83-1.33,2.66-.17,3.82l20.29,20.29c1.66,1.66,4.32,.33,4.32-1.66v-28.6c0-1.66-1.33-2.99-2.83-2.83h0Z"/>
        <path class="cls-11" d="M268.63,562.96c-5.15,6.49-7.98,13.97-8.98,21.62-.17,1.5,1,2.66,2.49,2.83h28.6c2.33,0,3.33-2.66,1.66-4.32l-20.12-20.12c-.83-1.16-2.83-1.16-3.66,0h0Z"/>
        <path class="cls-11" d="M335.81,616.17c5.15-6.49,7.98-13.97,8.98-21.62,.17-1.5-1-2.66-2.49-2.83h-28.6c-2.33,0-3.33,2.66-1.66,4.32l20.29,20.29c.67,1,2.66,1,3.49-.17h0Z"/>
        <path class="cls-11" d="M308.7,580.08l20.29-20.29c1-1,1-2.66-.17-3.82-6.49-5.15-13.97-7.98-21.62-8.98-1.5-.17-2.66,1-2.83,2.49v28.6c0,2.33,2.66,3.66,4.32,2h0Z"/>
        <path class="cls-11" d="M331.98,562.79l-20.29,20.29c-1.66,1.66-.33,4.32,1.66,4.32h28.6c1.33,0,2.66-1.33,2.49-2.83-.83-7.82-3.99-15.3-8.98-21.62-.5-1.16-2.33-1.33-3.49-.17h0Z"/>
        <path class="cls-11" d="M307.21,632.13c7.82-.83,15.3-3.99,21.62-8.98,1.16-.83,1.33-2.66,.17-3.82l-20.29-20.29c-1.66-1.66-4.32-.33-4.32,1.66v28.6c0,1.66,1.33,2.99,2.83,2.83h0Z"/>
        <path class="cls-11" d="M275.61,623.15c6.49,5.15,13.97,7.98,21.62,8.98,1.5,.17,2.66-1,2.83-2.49v-28.6c0-2.33-2.66-3.33-4.32-1.66l-20.29,20.29c-1,.67-1,2.66,.17,3.49h0Z"/>
      </g>
      <g>
        <path class="cls-10" d="M521.85,117c-22.12-22.12-57.7-22.12-79.81,0-.5,.5-1,1-1.5,1.5-20.45,22.12-20.12,56.7,1.5,78.32,21.62,21.62,56.2,21.95,78.32,1.5l1.5-1.5c22.12-22.12,22.12-57.7,0-79.81h0Z"/>
        <path class="cls-8" d="M447.36,191.49c-18.62-18.62-18.96-48.55-1.5-67.68,.5-.5,1-1,1.5-1.5,19.12-19.12,50.05-19.12,69.17,0,19.12,19.12,19.12,50.05,0,69.17-.5,.5-1,1-1.5,1.5-19.29,17.63-49.05,17.13-67.68-1.5h0Z"/>
        <path class="cls-11" d="M452.18,183.68l20.29-20.29c1.66-1.66,.33-4.32-1.66-4.32h-28.6c-1.33,0-2.66,1.33-2.49,2.83,.83,7.82,3.99,15.3,8.98,21.62,.5,1.16,2.49,1.16,3.49,.17h0Z"/>
        <path class="cls-11" d="M476.96,114.34c-7.82,.83-15.3,3.99-21.62,8.98-1.16,.83-1.33,2.66-.17,3.82l20.29,20.29c1.66,1.66,4.32,.33,4.32-1.66v-28.6c0-1.66-1.33-2.99-2.83-2.83h0Z"/>
        <path class="cls-11" d="M448.36,130.3c-5.15,6.49-7.98,13.97-8.98,21.62-.17,1.5,1,2.66,2.49,2.83h28.6c2.33,0,3.33-2.66,1.66-4.32l-20.12-20.12c-.83-1.16-2.83-1.16-3.66,0h0Z"/>
        <path class="cls-11" d="M515.53,183.51c5.15-6.49,7.98-13.97,8.98-21.62,.17-1.5-1-2.66-2.49-2.83h-28.6c-2.33,0-3.33,2.66-1.66,4.32l20.29,20.29c.67,1,2.66,1,3.49-.17h0Z"/>
        <path class="cls-11" d="M488.43,147.43l20.29-20.29c1-1,1-2.66-.17-3.82-6.49-5.15-13.97-7.98-21.62-8.98-1.5-.17-2.66,1-2.83,2.49v28.6c0,2.33,2.66,3.66,4.32,2h0Z"/>
        <path class="cls-11" d="M511.71,130.14l-20.29,20.29c-1.66,1.66-.33,4.32,1.66,4.32h28.6c1.33,0,2.66-1.33,2.49-2.83-.83-7.82-3.99-15.3-8.98-21.62-.5-1.16-2.33-1.33-3.49-.17h0Z"/>
        <path class="cls-11" d="M486.93,199.47c7.82-.83,15.3-3.99,21.62-8.98,1.16-.83,1.33-2.66,.17-3.82l-20.29-20.29c-1.66-1.66-4.32-.33-4.32,1.66v28.6c0,1.66,1.33,2.99,2.83,2.83h0Z"/>
        <path class="cls-11" d="M455.34,190.5c6.49,5.15,13.97,7.98,21.62,8.98,1.5,.17,2.66-1,2.83-2.49v-28.6c0-2.33-2.66-3.33-4.32-1.66l-20.29,20.29c-1,.67-1,2.66,.17,3.49h0Z"/>
      </g>
      <g>
        <path class="cls-9" d="M386.25,143.67s-32-109.91-69.76-62.5c-37.77,47.41-30.33,76.42-56.85,105.08-26.52,28.66-20.98,42.05-10.62,48.84,10.36,6.79,63.44-27.42,63.44-27.42,0,0,41.34-49.51,73.8-63.99Z"/>
        <path class="cls-9" d="M562.31,319.38s109.66,32.1,62.25,69.87c-47.41,37.77-76.42,30.33-105.08,56.85-28.66,26.52-42.05,20.98-48.84,10.62-6.79-10.36,27.42-63.44,27.42-63.44,0,0,49.76-41.45,64.25-73.9Z"/>
        <path class="cls-7" d="M205.78,559.71c.29,.56,.53,1.13,.73,1.7l35.94-18.75,6.18,11.85-35.87,18.71c.23,.35,.44,.71,.64,1.08,3.1,5.95,.8,13.28-5.15,16.38-5.95,3.1-13.28,.8-16.38-5.15-1.47-2.82-1.72-5.95-.95-8.79-2.77-.99-5.19-2.99-6.66-5.81-3.1-5.95-.8-13.28,5.15-16.38,5.95-3.1,13.28-.8,16.38,5.15Z"/>
        <path class="cls-7" d="M146.29,500.23c-.56-.29-1.13-.53-1.7-.73l18.75-35.94-11.85-6.18-18.71,35.87c-.35-.23-.71-.44-1.08-.64-5.95-3.1-13.28-.8-16.38,5.15-3.1,5.95-.8,13.28,5.15,16.38,2.82,1.47,5.95,1.72,8.79,.95,.99,2.77,2.99,5.19,5.81,6.66,5.95,3.1,13.28,.8,16.38-5.15,3.1-5.94,.8-13.28-5.15-16.38Z"/>
        <path class="cls-9" d="M270.88,306.99s-31.37-81.81-86.94-23.02c-55.57,58.79-53.16,114.23-37.89,174.49,0,0,9.6,17.8,29.96,4.94,20.36-12.86,107.41-85.98,94.88-156.41Z"/>
        <path class="cls-3" d="M227.88,263.13c-12.26-1.94-26.97,2.88-43.95,20.84-50.77,53.7-53.14,104.62-41.53,158.96,112.37-52.11,97.44-142.61,85.48-179.8Z"/>
        <path class="cls-9" d="M399.01,435.13s81.81,31.37,23.02,86.94c-58.79,55.57-114.23,53.16-174.49,37.89,0,0-17.8-9.6-4.94-29.96,12.86-20.36,85.98-107.41,156.41-94.88Z"/>
        <path class="cls-3" d="M442.87,478.12c1.94,12.26-2.88,26.97-20.84,43.95-53.7,50.77-104.62,53.14-158.96,41.53,52.11-112.37,142.61-97.44,179.8-85.48Z"/>
        <path class="cls-3" d="M574.87,302.33c28.93-67.5-70.33-100.87-70.33-100.87,0,0-33.37-99.26-100.87-70.33-67.5,28.93-128.56,117.31-131.78,160.7-3.21,43.39-57,166.38-40.55,182.82,16.45,16.45,139.43-37.34,182.82-40.55,43.39-3.21,131.78-64.28,160.7-131.78Z"/>
        <path class="cls-2" d="M474.25,219.55c2.39-2.39,3.63-5.7,3.41-9.07-.98-15.31-7.29-57.59-46.97-60.94-48.54-4.09-118.54,96.13-129.16,114.16-13.07,22.17-11.99,75.84-16.29,115.35-1.2,11.01,12.12,17.39,19.95,9.56l169.07-169.07Z"/>
        <path class="cls-2" d="M488.81,234.1c2.39-2.39,5.7-3.63,9.07-3.41,15.31,.98,57.59,7.29,60.94,46.97,4.09,48.54-96.13,118.54-114.16,129.16-22.17,13.07-75.84,11.99-115.35,16.29-11.01,1.2-17.39-12.12-9.56-19.95l169.07-169.07Z"/>
      </g>
      <g>
        <path class="cls-6" d="M475.26,518.89s-68.59,55.46-1.67,104.68c0,0,51.12-60.73,1.67-104.68Z"/>
        <path class="cls-12" d="M475.26,518.89s-12.42,72.74-1.67,104.68c0,0,51.12-60.73,1.67-104.68Z"/>
      </g>
      <g>
        <path class="cls-6" d="M364.29,581.06s7.38,87.9,85.67,60.17c0,0-21.55-76.4-85.67-60.17Z"/>
        <path class="cls-12" d="M364.29,581.06s53.22,51.13,85.67,60.17c0,0-21.55-76.4-85.67-60.17Z"/>
      </g>
    </g>
  </g>
</svg>