<?xml version="1.0" encoding="UTF-8"?>
<svg id="Layer_2" data-name="Layer 2" xmlns="http://www.w3.org/2000/svg" xmlns:xlink="http://www.w3.org/1999/xlink" viewBox="0 0 750 500">
  <defs>
    <style>
      .cls-1 {
        fill: #ccead2;
      }

      .cls-2 {
        clip-path: url(#clippath-2);
      }

      .cls-3 {
        fill: #a3e2c1;
      }

      .cls-4 {
        clip-path: url(#clippath-1);
      }

      .cls-5 {
        fill: #eabeb9;
      }

      .cls-6 {
        clip-path: url(#clippath);
      }

      .cls-7 {
        fill: none;
      }

      .cls-8 {
        fill: #b7dbe5;
      }

      .cls-9 {
        fill: #fff6ee;
      }

      .cls-10 {
        fill: #fadeda;
      }

      .cls-11 {
        fill: #f4bdc2;
      }
    </style>
    <clipPath id="clippath">
      <rect class="cls-7" width="750" height="500"/>
    </clipPath>
    <clipPath id="clippath-1">
      <path class="cls-7" d="M494.23,14.65c-1.34,21.58-14.13,43.41-34.59,51.9-26.06,10.8-53.7-3.87-80.06-5.3-12.71-.68-24.65,2.29-35.43,9.05-26.79,16.63-43.33,49.96-76.18,56.25-27.15,4.78-52.86-13.04-79.91-8.08-54.81,13.46-57.38,121.17-181.33,88.56-59.38-21.04-85.34-91.85-76.15-150.42C-60.07,10.07-22.23-29.25,23.41-41.64c58.72-15.94,115.5,19.07,174.15,17.44,88.17-2.26,181.92-82.55,265.6-22.79,18.71,14.59,32.57,37.28,31.07,61.64Z"/>
    </clipPath>
    <clipPath id="clippath-2">
      <circle class="cls-7" cx="600.77" cy="415.47" r="112.59"/>
    </clipPath>
  </defs>
  <g id="BACKGROUND">
    <rect class="cls-9" width="750" height="500"/>
  </g>
  <g id="OBJECTS">
    <g class="cls-6">
      <path class="cls-1" d="M494.23,14.65c-1.34,21.58-14.13,43.41-34.59,51.9-26.06,10.8-53.7-3.87-80.06-5.3-12.71-.68-24.65,2.29-35.43,9.05-26.79,16.63-43.33,49.96-76.18,56.25-27.15,4.78-52.86-13.04-79.91-8.08-54.81,13.46-57.38,121.17-181.33,88.56-59.38-21.04-85.34-91.85-76.15-150.42C-60.07,10.07-22.23-29.25,23.41-41.64c58.72-15.94,115.5,19.07,174.15,17.44,88.17-2.26,181.92-82.55,265.6-22.79,18.71,14.59,32.57,37.28,31.07,61.64Z"/>
      <g class="cls-4">
        <g>
          <path class="cls-9" d="M359.44,101.81l.36,.35-1.19,1.22-.36-.35c-9.25-9.01-23.75-9.01-33.01,0-4.96,4.83-11.33,7.24-17.69,7.24s-12.73-2.41-17.69-7.24c-9.26-9.01-23.76-9.01-33.02,0-4.79,4.67-11.08,7.24-17.69,7.24s-12.89-2.57-17.69-7.24c-9.26-9.02-23.76-9.02-33.01,0-9.92,9.66-25.47,9.66-35.39,0-9.25-9.01-23.76-9.01-33.01,0-9.92,9.66-25.47,9.66-35.39,0-9.25-9.01-23.75-9.01-33.01,0-9.92,9.66-25.46,9.66-35.38,0-9.26-9.01-23.76-9.01-33.02,0l-.35,.35-1.19-1.22,.36-.35c9.92-9.66,25.46-9.66,35.38,0,9.26,9.01,23.76,9.01,33.02,0,9.92-9.66,25.46-9.66,35.38,0,9.26,9.01,23.76,9.01,33.01,0,9.92-9.66,25.47-9.66,35.39,0,9.25,9.01,23.76,9.01,33.01,0,9.92-9.66,25.47-9.66,35.39,0,9.25,9.01,23.75,9.01,33.01,0,9.92-9.66,25.46-9.66,35.38,0,9.26,9.01,23.76,9.01,33.02,0,9.91-9.66,25.46-9.66,35.38,0Z"/>
          <path class="cls-9" d="M359.44,81.64l.36,.35-1.19,1.22-.36-.35c-9.25-9.01-23.75-9.01-33.01,0-9.92,9.66-25.46,9.66-35.38,0-9.26-9.01-23.76-9.01-33.02,0-4.79,4.67-11.08,7.25-17.69,7.25s-12.89-2.58-17.69-7.25c-9.26-9.01-23.76-9.01-33.01,0-4.96,4.83-11.33,7.25-17.7,7.25s-12.73-2.42-17.69-7.25c-9.25-9.01-23.75-9.01-33.01,0-9.92,9.66-25.47,9.66-35.39,0-9.25-9.01-23.75-9.01-33.01,0-9.92,9.66-25.46,9.66-35.38,0-9.26-9.01-23.76-9.01-33.02,0l-.35,.35-1.19-1.22,.36-.35c9.92-9.66,25.46-9.66,35.38,0,9.26,9.02,23.76,9.02,33.02,0,9.92-9.65,25.46-9.65,35.38,0,9.26,9.02,23.76,9.01,33.01,0,9.92-9.66,25.47-9.66,35.39,0,9.25,9.02,23.76,9.02,33.01,0,9.92-9.66,25.47-9.66,35.39,0,9.25,9.02,23.75,9.02,33.01,0,9.92-9.66,25.46-9.66,35.38,0,9.26,9.02,23.76,9.02,33.02,0,9.91-9.66,25.46-9.66,35.38,0Z"/>
          <path class="cls-9" d="M359.44,61.48l.36,.35-1.19,1.22-.36-.35c-9.25-9.01-23.75-9.01-33.01,0-4.96,4.83-11.32,7.24-17.69,7.24s-12.73-2.41-17.69-7.24c-9.26-9.01-23.76-9.01-33.02,0-4.79,4.67-11.08,7.24-17.69,7.24s-12.89-2.57-17.69-7.24c-9.26-9.01-23.76-9.01-33.01,0-9.93,9.66-25.47,9.66-35.39,0-9.25-9.01-23.75-9.01-33.01,0-9.92,9.66-25.46,9.66-35.39,0-9.25-9.01-23.75-9.01-33.01,0-9.92,9.66-25.46,9.66-35.38,0-9.26-9.01-23.76-9.01-33.02,0l-.35,.35-1.19-1.22,.36-.35c9.92-9.66,25.46-9.66,35.38,0,9.26,9.01,23.76,9.01,33.02,0,9.92-9.66,25.46-9.66,35.38,0,9.26,9.01,23.76,9.01,33.01,0,9.92-9.66,25.47-9.66,35.39,0,9.25,9.01,23.76,9.01,33.01,0,9.92-9.66,25.47-9.66,35.39,0,9.25,9.01,23.75,9.01,33.01,0,9.92-9.66,25.46-9.66,35.38,0,9.26,9.01,23.76,9.01,33.02,0,9.91-9.66,25.46-9.66,35.38,0Z"/>
          <path class="cls-9" d="M-17.1,2.55l-1.19-1.22,.36-.35C-8.01-8.67,7.53-8.69,17.45,.98c9.26,9.02,23.76,9.02,33.02,0,9.92-9.65,25.46-9.65,35.38,0,9.26,9.02,23.76,9.02,33.01,0,9.92-9.65,25.47-9.65,35.39,0,9.25,9.02,23.76,9.02,33.01,0,9.92-9.66,25.47-9.66,35.39,0,9.25,9.02,23.75,9.02,33.01,0,9.92-9.66,25.46-9.66,35.38,0,9.26,9.02,23.76,9.02,33.02,0,9.91-9.66,25.46-9.66,35.38,0l.36,.35-1.19,1.22-.36-.35c-9.25-9.01-23.75-9.01-33.01,0-9.92,9.66-25.46,9.66-35.38,0-9.26-9.01-23.76-9.01-33.02,0-4.79,4.68-11.08,7.25-17.69,7.25s-12.89-2.57-17.69-7.25c-9.26-9.01-23.76-9.01-33.01,0-4.96,4.83-11.33,7.25-17.7,7.25s-12.73-2.42-17.69-7.25c-9.25-9.01-23.75-9.01-33.01,0-9.92,9.66-25.46,9.66-35.39,0-9.25-9.01-23.75-9.01-33.01,0-9.92,9.66-25.46,9.66-35.38,0C7.01-6.82-7.49-6.82-16.75,2.19l-.35,.35Z"/>
          <path class="cls-9" d="M359.44,21.15l.36,.35-1.19,1.22-.36-.35c-9.25-9.01-23.75-9.01-33.01,0-9.92,9.66-25.46,9.66-35.38,0-9.26-9.01-23.76-9.01-33.02,0-4.79,4.67-11.08,7.24-17.69,7.24s-12.89-2.57-17.69-7.24c-9.26-9.01-23.76-9.01-33.01,0-4.96,4.83-11.33,7.24-17.7,7.24s-12.73-2.41-17.69-7.24c-9.25-9.01-23.75-9.01-33.01,0-9.92,9.66-25.47,9.66-35.39,0-9.25-9.01-23.75-9.01-33.01,0-9.92,9.66-25.46,9.66-35.38,0-9.26-9.01-23.76-9.01-33.02,0l-.35,.35-1.19-1.22,.36-.35c9.92-9.66,25.46-9.66,35.38,0,9.26,9.01,23.76,9.01,33.02,0,9.92-9.66,25.46-9.66,35.38,0,9.26,9.01,23.76,9.01,33.01,0,9.92-9.66,25.47-9.66,35.39,0,9.25,9.01,23.76,9.01,33.01,0,9.92-9.66,25.47-9.66,35.39,0,9.25,9.01,23.75,9.01,33.01,0,9.92-9.66,25.46-9.66,35.38,0,9.26,9.01,23.76,9.01,33.02,0,9.91-9.66,25.46-9.66,35.38,0Z"/>
          <path class="cls-9" d="M359.44,41.31l.36,.34-1.19,1.22-.36-.35c-9.25-9.01-23.75-9.01-33.01,0-4.96,4.83-11.32,7.25-17.69,7.25s-12.73-2.42-17.69-7.25c-9.26-9.01-23.76-9.01-33.02,0-4.79,4.67-11.08,7.25-17.69,7.25s-12.89-2.57-17.69-7.25c-9.26-9.01-23.76-9.01-33.01,0-9.92,9.66-25.47,9.66-35.39,0-9.25-9.01-23.76-9.01-33.01,0-9.92,9.66-25.46,9.66-35.39,0-9.25-9.01-23.75-9.01-33.01,0-9.92,9.66-25.46,9.66-35.38,0-9.26-9.01-23.76-9.01-33.02,0l-.35,.35-1.19-1.22,.36-.34c9.92-9.67,25.46-9.67,35.38,0,9.26,9.01,23.76,9.01,33.02,0,9.92-9.66,25.46-9.66,35.38,0,9.26,9.01,23.76,9.01,33.01,0,9.92-9.67,25.47-9.67,35.39,0,9.25,9.01,23.76,9.01,33.01,0,9.92-9.67,25.46-9.66,35.39,0,9.25,9.01,23.75,9.01,33.01,0,9.92-9.67,25.46-9.66,35.38,0,9.26,9.01,23.76,9.01,33.02,0,9.92-9.67,25.46-9.67,35.38,0Z"/>
          <path class="cls-9" d="M359.44,224.64l.36,.35-1.19,1.22-.36-.35c-9.25-9.01-23.75-9.01-33.01,0-4.96,4.83-11.33,7.24-17.69,7.24s-12.73-2.41-17.69-7.24c-9.26-9.01-23.76-9.01-33.02,0-4.79,4.67-11.08,7.24-17.69,7.24s-12.89-2.57-17.69-7.24c-9.26-9.02-23.76-9.02-33.01,0-9.92,9.66-25.47,9.66-35.39,0-9.25-9.01-23.76-9.01-33.01,0-9.92,9.66-25.47,9.66-35.39,0-9.25-9.01-23.75-9.01-33.01,0-9.92,9.66-25.46,9.66-35.38,0-9.26-9.01-23.76-9.01-33.02,0l-.35,.35-1.19-1.22,.36-.35c9.92-9.66,25.46-9.66,35.38,0,9.26,9.01,23.76,9.01,33.02,0,9.92-9.66,25.46-9.66,35.38,0,9.26,9.01,23.76,9.01,33.01,0,9.92-9.66,25.47-9.66,35.39,0,9.25,9.01,23.76,9.01,33.01,0,9.92-9.66,25.47-9.66,35.39,0,9.25,9.01,23.75,9.01,33.01,0,9.92-9.66,25.46-9.66,35.38,0,9.26,9.01,23.76,9.01,33.02,0,9.91-9.66,25.46-9.66,35.38,0Z"/>
          <path class="cls-9" d="M359.44,204.47l.36,.35-1.19,1.22-.36-.35c-9.25-9.01-23.75-9.01-33.01,0-9.92,9.66-25.46,9.66-35.38,0-9.26-9.01-23.76-9.01-33.02,0-4.79,4.67-11.08,7.25-17.69,7.25s-12.89-2.58-17.69-7.25c-9.26-9.01-23.76-9.01-33.01,0-4.96,4.83-11.33,7.25-17.7,7.25s-12.73-2.42-17.69-7.25c-9.25-9.01-23.75-9.01-33.01,0-9.92,9.66-25.47,9.66-35.39,0-9.25-9.01-23.75-9.01-33.01,0-9.92,9.66-25.46,9.66-35.38,0-9.26-9.01-23.76-9.01-33.02,0l-.35,.35-1.19-1.22,.36-.35c9.92-9.66,25.46-9.66,35.38,0,9.26,9.02,23.76,9.02,33.02,0,9.92-9.65,25.46-9.65,35.38,0,9.26,9.02,23.76,9.01,33.01,0,9.92-9.66,25.47-9.66,35.39,0,9.25,9.02,23.76,9.02,33.01,0,9.92-9.66,25.47-9.66,35.39,0,9.25,9.02,23.75,9.02,33.01,0,9.92-9.66,25.46-9.66,35.38,0,9.26,9.02,23.76,9.02,33.02,0,9.91-9.66,25.46-9.66,35.38,0Z"/>
          <path class="cls-9" d="M359.44,184.31l.36,.35-1.19,1.22-.36-.35c-9.25-9.01-23.75-9.01-33.01,0-4.96,4.83-11.32,7.24-17.69,7.24s-12.73-2.41-17.69-7.24c-9.26-9.01-23.76-9.01-33.02,0-4.79,4.67-11.08,7.24-17.69,7.24s-12.89-2.57-17.69-7.24c-9.26-9.01-23.76-9.01-33.01,0-9.93,9.66-25.47,9.66-35.39,0-9.25-9.01-23.75-9.01-33.01,0-9.92,9.66-25.46,9.66-35.39,0-9.25-9.01-23.75-9.01-33.01,0-9.92,9.66-25.46,9.66-35.38,0-9.26-9.01-23.76-9.01-33.02,0l-.35,.35-1.19-1.22,.36-.35c9.92-9.66,25.46-9.66,35.38,0,9.26,9.01,23.76,9.01,33.02,0,9.92-9.66,25.46-9.66,35.38,0,9.26,9.01,23.76,9.01,33.01,0,9.92-9.66,25.47-9.66,35.39,0,9.25,9.01,23.76,9.01,33.01,0,9.92-9.66,25.47-9.66,35.39,0,9.25,9.01,23.75,9.01,33.01,0,9.92-9.66,25.46-9.66,35.38,0,9.26,9.01,23.76,9.01,33.02,0,9.91-9.66,25.46-9.66,35.38,0Z"/>
          <path class="cls-9" d="M-17.1,125.38l-1.19-1.22,.36-.35c9.92-9.65,25.46-9.66,35.38,0,9.26,9.02,23.76,9.02,33.02,0,9.92-9.65,25.46-9.65,35.38,0,9.26,9.02,23.76,9.02,33.01,0,9.92-9.65,25.47-9.65,35.39,0,9.25,9.02,23.76,9.02,33.01,0,9.92-9.66,25.47-9.66,35.39,0,9.25,9.02,23.75,9.02,33.01,0,9.92-9.66,25.46-9.66,35.38,0,9.26,9.02,23.76,9.02,33.02,0,9.91-9.66,25.46-9.66,35.38,0l.36,.35-1.19,1.22-.36-.35c-9.25-9.01-23.75-9.01-33.01,0-9.92,9.66-25.46,9.66-35.38,0-9.26-9.01-23.76-9.01-33.02,0-4.79,4.68-11.08,7.25-17.69,7.25s-12.89-2.57-17.69-7.25c-9.26-9.01-23.76-9.01-33.01,0-4.96,4.83-11.33,7.25-17.7,7.25s-12.73-2.42-17.69-7.25c-9.25-9.01-23.75-9.01-33.01,0-9.92,9.66-25.46,9.66-35.39,0-9.25-9.01-23.75-9.01-33.01,0-9.92,9.66-25.46,9.66-35.38,0-9.26-9.01-23.76-9.01-33.02,0l-.35,.35Z"/>
          <path class="cls-9" d="M359.44,143.98l.36,.35-1.19,1.22-.36-.35c-9.25-9.01-23.75-9.01-33.01,0-9.92,9.66-25.46,9.66-35.38,0-9.26-9.01-23.76-9.01-33.02,0-4.79,4.67-11.08,7.24-17.69,7.24s-12.89-2.57-17.69-7.24c-9.26-9.01-23.76-9.01-33.01,0-4.96,4.83-11.33,7.24-17.7,7.24s-12.73-2.41-17.69-7.24c-9.25-9.01-23.75-9.01-33.01,0-9.92,9.66-25.47,9.66-35.39,0-9.25-9.01-23.75-9.01-33.01,0-9.92,9.66-25.46,9.66-35.38,0-9.26-9.01-23.76-9.01-33.02,0l-.35,.35-1.19-1.22,.36-.35c9.92-9.66,25.46-9.66,35.38,0,9.26,9.01,23.76,9.01,33.02,0,9.92-9.66,25.46-9.66,35.38,0,9.26,9.01,23.76,9.01,33.01,0,9.92-9.66,25.47-9.66,35.39,0,9.25,9.01,23.76,9.01,33.01,0,9.92-9.66,25.47-9.66,35.39,0,9.25,9.01,23.75,9.01,33.01,0,9.92-9.66,25.46-9.66,35.38,0,9.26,9.01,23.76,9.01,33.02,0,9.91-9.66,25.46-9.66,35.38,0Z"/>
          <path class="cls-9" d="M359.44,164.15l.36,.34-1.19,1.22-.36-.35c-9.25-9.01-23.75-9.01-33.01,0-4.96,4.83-11.32,7.25-17.69,7.25s-12.73-2.42-17.69-7.25c-9.26-9.01-23.76-9.01-33.02,0-4.79,4.67-11.08,7.25-17.69,7.25s-12.89-2.57-17.69-7.25c-9.26-9.01-23.76-9.01-33.01,0-9.92,9.66-25.47,9.66-35.39,0-9.25-9.01-23.76-9.01-33.01,0-9.92,9.66-25.46,9.66-35.39,0-9.25-9.01-23.75-9.01-33.01,0-9.92,9.66-25.46,9.66-35.38,0-9.26-9.01-23.76-9.01-33.02,0l-.35,.35-1.19-1.22,.36-.34c9.92-9.67,25.46-9.67,35.38,0,9.26,9.01,23.76,9.01,33.02,0,9.92-9.66,25.46-9.66,35.38,0,9.26,9.01,23.76,9.01,33.01,0,9.92-9.67,25.47-9.67,35.39,0,9.25,9.01,23.76,9.01,33.01,0,9.92-9.67,25.46-9.66,35.39,0,9.25,9.01,23.75,9.01,33.01,0,9.92-9.67,25.46-9.66,35.38,0,9.26,9.01,23.76,9.01,33.02,0,9.92-9.67,25.46-9.67,35.38,0Z"/>
        </g>
      </g>
      <path class="cls-8" d="M311.59,418.4c.66,2.42,.66,4.97-.03,7.39-.7,2.51-2.04,4.79-3.54,6.89-1.65,2.31-3.47,4.5-5.24,6.72-1.95,2.45-3.91,4.9-5.86,7.35-3.87,4.86-7.71,9.73-11.64,14.53-1.87,2.29-3.76,4.58-5.72,6.8-.97,1.08-1.96,2.14-3,3.15-.03,.02-.04,.06-.06,.09-2.7,3.53-6.82,5.97-11.21,6.64-4.83,.74-9.78-.59-13.88-3.16-8.98-5.66-12.81-16.5-12.86-26.72-.06-9.86,3.3-19.7,9.23-27.55,6.05-8.01,14.72-13.67,24.43-16.17,4.86-1.25,9.94-1.72,14.94-1.33,5.08,.39,10.25,1.59,14.76,4.01,4.51,2.42,8.3,6.33,9.68,11.36Z"/>
      <path class="cls-1" d="M466.94,536.96c.28,.74,1.06,4.63-.44,2.72-13.32,51.32-80.4,49.14-122,39.65-77.84-19.18-81.57-127.2-3.98-149.96,37.93-10.55,77.93,11.15,99.39,42.22,15.41,17.93,29.65,40.81,27.03,65.37Z"/>
      <path class="cls-3" d="M71.66,157c.6,48.85-54.21,86.2-36.59,136.92,17.49,54.39-8.29,106.57-69.13,107.45-80.28-3.1-112.85-95.42-101.17-164.32,7.13-53.07,20.35-114.22,68.68-144.94,29.74-20.17,69.31-16.3,97.7,4.43,20.49,13.68,39.67,34.6,40.51,60.46Z"/>
      <path class="cls-5" d="M828.27,442.37c-31.76,103.49-136.53,173.17-243.27,173.04-74.86,2.13-187.01-29.57-182.13-121.92,2.38-23.91,17.34-46.48,40.06-55.4,50.81-21.11,113.59,14.85,159.08-23.25,37.47-32.64,36.44-88.48,65.91-126.21,32.11-39.76,95.83-36.95,130.57-2.09,42.03,39.3,46.99,103.53,29.78,155.83Z"/>
      <circle class="cls-1" cx="600.77" cy="415.47" r="112.59"/>
      <circle class="cls-8" cx="332.34" cy="404.53" r="10.95"/>
      <circle class="cls-8" cx="613.73" cy="98.4" r="37.81"/>
      <g>
        <path class="cls-11" d="M83.53,300.62c-19.54,0-35.43-15.89-35.43-35.43s15.89-35.43,35.43-35.43,35.43,15.89,35.43,35.43-15.89,35.43-35.43,35.43Zm0-59.68c-13.37,0-24.25,10.88-24.25,24.25s10.88,24.25,24.25,24.25,24.25-10.88,24.25-24.25-10.88-24.25-24.25-24.25Z"/>
        <path class="cls-11" d="M708.33,35.43c-19.54,0-35.43-15.89-35.43-35.43s15.89-35.43,35.43-35.43,35.43,15.89,35.43,35.43-15.89,35.43-35.43,35.43Zm0-59.68c-13.37,0-24.25,10.88-24.25,24.25s10.88,24.25,24.25,24.25,24.25-10.88,24.25-24.25-10.88-24.25-24.25-24.25Z"/>
        <path class="cls-9" d="M356.23,535.43c-19.54,0-35.43-15.89-35.43-35.43s15.89-35.43,35.43-35.43,35.43,15.89,35.43,35.43-15.89,35.43-35.43,35.43Zm0-59.68c-13.37,0-24.25,10.88-24.25,24.25s10.88,24.25,24.25,24.25,24.25-10.88,24.25-24.25-10.88-24.25-24.25-24.25Z"/>
        <path class="cls-1" d="M750,343.99c-15.04,0-27.27-12.24-27.27-27.27s12.23-27.27,27.27-27.27,27.27,12.24,27.27,27.27-12.23,27.27-27.27,27.27Zm0-45.94c-10.29,0-18.67,8.37-18.67,18.67s8.38,18.67,18.67,18.67,18.67-8.37,18.67-18.67-8.38-18.67-18.67-18.67Z"/>
      </g>
      <g class="cls-2">
        <g>
          <path class="cls-9" d="M796.51,459.45l.36,.35-1.19,1.22-.36-.35c-9.25-9.01-23.75-9.01-33.01,0-4.96,4.83-11.33,7.24-17.69,7.24s-12.73-2.41-17.69-7.24c-9.26-9.01-23.76-9.01-33.02,0-4.79,4.67-11.08,7.24-17.69,7.24s-12.89-2.57-17.69-7.24c-9.26-9.02-23.76-9.02-33.01,0-9.92,9.66-25.47,9.66-35.39,0-9.25-9.01-23.76-9.01-33.01,0-9.92,9.66-25.47,9.66-35.39,0-9.25-9.01-23.75-9.01-33.01,0-9.92,9.66-25.46,9.66-35.38,0-9.26-9.01-23.76-9.01-33.02,0l-.35,.35-1.19-1.22,.36-.35c9.92-9.66,25.46-9.66,35.38,0,9.26,9.01,23.76,9.01,33.02,0,9.92-9.66,25.46-9.66,35.38,0,9.26,9.01,23.76,9.01,33.01,0,9.92-9.66,25.47-9.66,35.39,0,9.25,9.01,23.76,9.01,33.01,0,9.92-9.66,25.47-9.66,35.39,0,9.25,9.01,23.75,9.01,33.01,0,9.92-9.66,25.46-9.66,35.38,0,9.26,9.01,23.76,9.01,33.02,0,9.91-9.66,25.46-9.66,35.38,0Z"/>
          <path class="cls-9" d="M796.51,439.28l.36,.35-1.19,1.22-.36-.35c-9.25-9.01-23.75-9.01-33.01,0-9.92,9.66-25.46,9.66-35.38,0-9.26-9.01-23.76-9.01-33.02,0-4.79,4.67-11.08,7.25-17.69,7.25s-12.89-2.58-17.69-7.25c-9.26-9.01-23.76-9.01-33.01,0-4.96,4.83-11.33,7.25-17.7,7.25s-12.73-2.42-17.69-7.25c-9.25-9.01-23.75-9.01-33.01,0-9.92,9.66-25.47,9.66-35.39,0-9.25-9.01-23.75-9.01-33.01,0-9.92,9.66-25.46,9.66-35.38,0-9.26-9.01-23.76-9.01-33.02,0l-.35,.35-1.19-1.22,.36-.35c9.92-9.66,25.46-9.66,35.38,0,9.26,9.02,23.76,9.02,33.02,0,9.92-9.65,25.46-9.65,35.38,0,9.26,9.02,23.76,9.01,33.01,0,9.92-9.66,25.47-9.66,35.39,0,9.25,9.02,23.76,9.02,33.01,0,9.92-9.66,25.47-9.66,35.39,0,9.25,9.02,23.75,9.02,33.01,0,9.92-9.66,25.46-9.66,35.38,0,9.26,9.02,23.76,9.02,33.02,0,9.91-9.66,25.46-9.66,35.38,0Z"/>
          <path class="cls-9" d="M796.51,419.12l.36,.35-1.19,1.22-.36-.35c-9.25-9.01-23.75-9.01-33.01,0-4.96,4.83-11.32,7.24-17.69,7.24s-12.73-2.41-17.69-7.24c-9.26-9.01-23.76-9.01-33.02,0-4.79,4.67-11.08,7.24-17.69,7.24s-12.89-2.57-17.69-7.24c-9.26-9.01-23.76-9.01-33.01,0-9.93,9.66-25.47,9.66-35.39,0-9.25-9.01-23.75-9.01-33.01,0-9.92,9.66-25.46,9.66-35.39,0-9.25-9.01-23.75-9.01-33.01,0-9.92,9.66-25.46,9.66-35.38,0-9.26-9.01-23.76-9.01-33.02,0l-.35,.35-1.19-1.22,.36-.35c9.92-9.66,25.46-9.66,35.38,0,9.26,9.01,23.76,9.01,33.02,0,9.92-9.66,25.46-9.66,35.38,0,9.26,9.01,23.76,9.01,33.01,0,9.92-9.66,25.47-9.66,35.39,0,9.25,9.01,23.76,9.01,33.01,0,9.92-9.66,25.47-9.66,35.39,0,9.25,9.01,23.75,9.01,33.01,0,9.92-9.66,25.46-9.66,35.38,0,9.26,9.01,23.76,9.01,33.02,0,9.91-9.66,25.46-9.66,35.38,0Z"/>
          <path class="cls-9" d="M419.97,360.19l-1.19-1.22,.36-.35c9.92-9.65,25.46-9.66,35.38,0,9.26,9.02,23.76,9.02,33.02,0,9.92-9.65,25.46-9.65,35.38,0,9.26,9.02,23.76,9.02,33.01,0,9.92-9.65,25.47-9.65,35.39,0,9.25,9.02,23.76,9.02,33.01,0,9.92-9.66,25.47-9.66,35.39,0,9.25,9.02,23.75,9.02,33.01,0,9.92-9.66,25.46-9.66,35.38,0,9.26,9.02,23.76,9.02,33.02,0,9.91-9.66,25.46-9.66,35.38,0l.36,.35-1.19,1.22-.36-.35c-9.25-9.01-23.75-9.01-33.01,0-9.92,9.66-25.46,9.66-35.38,0-9.26-9.01-23.76-9.01-33.02,0-4.79,4.68-11.08,7.25-17.69,7.25s-12.89-2.57-17.69-7.25c-9.26-9.01-23.76-9.01-33.01,0-4.96,4.83-11.33,7.25-17.7,7.25s-12.73-2.42-17.69-7.25c-9.25-9.01-23.75-9.01-33.01,0-9.92,9.66-25.46,9.66-35.39,0-9.25-9.01-23.75-9.01-33.01,0-9.92,9.66-25.46,9.66-35.38,0-9.26-9.01-23.76-9.01-33.02,0l-.35,.35Z"/>
          <path class="cls-9" d="M796.51,378.79l.36,.35-1.19,1.22-.36-.35c-9.25-9.01-23.75-9.01-33.01,0-9.92,9.66-25.46,9.66-35.38,0-9.26-9.01-23.76-9.01-33.02,0-4.79,4.67-11.08,7.24-17.69,7.24s-12.89-2.57-17.69-7.24c-9.26-9.01-23.76-9.01-33.01,0-4.96,4.83-11.33,7.24-17.7,7.24s-12.73-2.41-17.69-7.24c-9.25-9.01-23.75-9.01-33.01,0-9.92,9.66-25.47,9.66-35.39,0-9.25-9.01-23.75-9.01-33.01,0-9.92,9.66-25.46,9.66-35.38,0-9.26-9.01-23.76-9.01-33.02,0l-.35,.35-1.19-1.22,.36-.35c9.92-9.66,25.46-9.66,35.38,0,9.26,9.01,23.76,9.01,33.02,0,9.92-9.66,25.46-9.66,35.38,0,9.26,9.01,23.76,9.01,33.01,0,9.92-9.66,25.47-9.66,35.39,0,9.25,9.01,23.76,9.01,33.01,0,9.92-9.66,25.47-9.66,35.39,0,9.25,9.01,23.75,9.01,33.01,0,9.92-9.66,25.46-9.66,35.38,0,9.26,9.01,23.76,9.01,33.02,0,9.91-9.66,25.46-9.66,35.38,0Z"/>
          <path class="cls-9" d="M796.51,398.96l.36,.34-1.19,1.22-.36-.35c-9.25-9.01-23.75-9.01-33.01,0-4.96,4.83-11.32,7.25-17.69,7.25s-12.73-2.42-17.69-7.25c-9.26-9.01-23.76-9.01-33.02,0-4.79,4.67-11.08,7.25-17.69,7.25s-12.89-2.57-17.69-7.25c-9.26-9.01-23.76-9.01-33.01,0-9.92,9.66-25.47,9.66-35.39,0-9.25-9.01-23.76-9.01-33.01,0-9.92,9.66-25.46,9.66-35.39,0-9.25-9.01-23.75-9.01-33.01,0-9.92,9.66-25.46,9.66-35.38,0-9.26-9.01-23.76-9.01-33.02,0l-.35,.35-1.19-1.22,.36-.34c9.92-9.67,25.46-9.67,35.38,0,9.26,9.01,23.76,9.01,33.02,0,9.92-9.66,25.46-9.66,35.38,0,9.26,9.01,23.76,9.01,33.01,0,9.92-9.67,25.47-9.67,35.39,0,9.25,9.01,23.76,9.01,33.01,0,9.92-9.67,25.46-9.66,35.39,0,9.25,9.01,23.75,9.01,33.01,0,9.92-9.67,25.46-9.66,35.38,0,9.26,9.01,23.76,9.01,33.02,0,9.92-9.67,25.46-9.67,35.38,0Z"/>
        </g>
      </g>
      <circle class="cls-10" cx="322.17" cy="-.15" r="41.98"/>
    </g>
    <g>
      <path class="cls-8" d="M25.55,480.02c0,1.06-.88,1.92-1.97,1.92s-1.97-.86-1.97-1.92,.88-1.92,1.97-1.92,1.97,.86,1.97,1.92Z"/>
      <path class="cls-8" d="M41.34,480.02c0,1.06-.88,1.92-1.97,1.92s-1.97-.86-1.97-1.92,.88-1.92,1.97-1.92,1.97,.86,1.97,1.92Z"/>
      <path class="cls-8" d="M57.13,480.02c0,1.06-.88,1.92-1.97,1.92s-1.97-.86-1.97-1.92,.88-1.92,1.97-1.92,1.97,.86,1.97,1.92Z"/>
      <path class="cls-8" d="M72.92,480.02c0,1.06-.88,1.92-1.97,1.92s-1.97-.86-1.97-1.92,.88-1.92,1.97-1.92,1.97,.86,1.97,1.92Z"/>
      <path class="cls-8" d="M88.71,480.02c0,1.06-.88,1.92-1.97,1.92s-1.97-.86-1.97-1.92,.88-1.92,1.97-1.92,1.97,.86,1.97,1.92Z"/>
      <path class="cls-8" d="M104.5,480.02c0,1.06-.88,1.92-1.97,1.92s-1.97-.86-1.97-1.92,.88-1.92,1.97-1.92,1.97,.86,1.97,1.92Z"/>
      <path class="cls-8" d="M25.55,466.76c0,1.06-.88,1.92-1.97,1.92s-1.97-.86-1.97-1.92,.88-1.92,1.97-1.92,1.97,.86,1.97,1.92Z"/>
      <path class="cls-8" d="M41.34,466.76c0,1.06-.88,1.92-1.97,1.92s-1.97-.86-1.97-1.92,.88-1.92,1.97-1.92,1.97,.86,1.97,1.92Z"/>
      <path class="cls-8" d="M57.13,466.76c0,1.06-.88,1.92-1.97,1.92s-1.97-.86-1.97-1.92,.88-1.92,1.97-1.92,1.97,.86,1.97,1.92Z"/>
      <path class="cls-8" d="M72.92,466.76c0,1.06-.88,1.92-1.97,1.92s-1.97-.86-1.97-1.92,.88-1.92,1.97-1.92,1.97,.86,1.97,1.92Z"/>
      <path class="cls-8" d="M88.71,466.76c0,1.06-.88,1.92-1.97,1.92s-1.97-.86-1.97-1.92,.88-1.92,1.97-1.92,1.97,.86,1.97,1.92Z"/>
      <path class="cls-8" d="M104.5,466.76c0,1.06-.88,1.92-1.97,1.92s-1.97-.86-1.97-1.92,.88-1.92,1.97-1.92,1.97,.86,1.97,1.92Z"/>
      <path class="cls-8" d="M25.55,453.52c0,1.06-.88,1.92-1.97,1.92s-1.97-.86-1.97-1.92,.88-1.92,1.97-1.92,1.97,.86,1.97,1.92Z"/>
      <path class="cls-8" d="M41.34,453.52c0,1.06-.88,1.92-1.97,1.92s-1.97-.86-1.97-1.92,.88-1.92,1.97-1.92,1.97,.86,1.97,1.92Z"/>
      <path class="cls-8" d="M57.13,453.52c0,1.06-.88,1.92-1.97,1.92s-1.97-.86-1.97-1.92,.88-1.92,1.97-1.92,1.97,.86,1.97,1.92Z"/>
      <path class="cls-8" d="M72.92,453.52c0,1.06-.88,1.92-1.97,1.92s-1.97-.86-1.97-1.92,.88-1.92,1.97-1.92,1.97,.86,1.97,1.92Z"/>
      <path class="cls-8" d="M88.71,453.52c0,1.06-.88,1.92-1.97,1.92s-1.97-.86-1.97-1.92,.88-1.92,1.97-1.92,1.97,.86,1.97,1.92Z"/>
      <path class="cls-8" d="M104.5,453.52c0,1.06-.88,1.92-1.97,1.92s-1.97-.86-1.97-1.92,.88-1.92,1.97-1.92,1.97,.86,1.97,1.92Z"/>
      <path class="cls-8" d="M25.55,440.27c0,1.06-.88,1.92-1.97,1.92s-1.97-.86-1.97-1.92,.88-1.92,1.97-1.92,1.97,.86,1.97,1.92Z"/>
      <path class="cls-8" d="M41.34,440.27c0,1.06-.88,1.92-1.97,1.92s-1.97-.86-1.97-1.92,.88-1.92,1.97-1.92,1.97,.86,1.97,1.92Z"/>
      <path class="cls-8" d="M57.13,440.27c0,1.06-.88,1.92-1.97,1.92s-1.97-.86-1.97-1.92,.88-1.92,1.97-1.92,1.97,.86,1.97,1.92Z"/>
      <path class="cls-8" d="M72.92,440.27c0,1.06-.88,1.92-1.97,1.92s-1.97-.86-1.97-1.92,.88-1.92,1.97-1.92,1.97,.86,1.97,1.92Z"/>
      <path class="cls-8" d="M88.71,440.27c0,1.06-.88,1.92-1.97,1.92s-1.97-.86-1.97-1.92,.88-1.92,1.97-1.92,1.97,.86,1.97,1.92Z"/>
      <path class="cls-8" d="M104.5,440.27c0,1.06-.88,1.92-1.97,1.92s-1.97-.86-1.97-1.92,.88-1.92,1.97-1.92,1.97,.86,1.97,1.92Z"/>
      <path class="cls-8" d="M120.48,480.67c0,1.06-.88,1.92-1.97,1.92s-1.97-.86-1.97-1.92,.88-1.92,1.97-1.92,1.97,.86,1.97,1.92Z"/>
      <path class="cls-8" d="M136.28,480.67c0,1.06-.88,1.92-1.97,1.92s-1.97-.86-1.97-1.92,.88-1.92,1.97-1.92,1.97,.86,1.97,1.92Z"/>
      <path class="cls-8" d="M152.07,480.67c0,1.06-.88,1.92-1.97,1.92s-1.97-.86-1.97-1.92,.88-1.92,1.97-1.92,1.97,.86,1.97,1.92Z"/>
      <path class="cls-8" d="M167.86,480.67c0,1.06-.88,1.92-1.97,1.92s-1.97-.86-1.97-1.92,.88-1.92,1.97-1.92,1.97,.86,1.97,1.92Z"/>
      <path class="cls-8" d="M183.65,480.67c0,1.06-.88,1.92-1.97,1.92s-1.97-.86-1.97-1.92,.88-1.92,1.97-1.92,1.97,.86,1.97,1.92Z"/>
      <path class="cls-8" d="M199.44,480.67c0,1.06-.88,1.92-1.97,1.92s-1.97-.86-1.97-1.92,.88-1.92,1.97-1.92,1.97,.86,1.97,1.92Z"/>
      <path class="cls-8" d="M120.48,467.41c0,1.06-.88,1.92-1.97,1.92s-1.97-.86-1.97-1.92,.88-1.92,1.97-1.92,1.97,.86,1.97,1.92Z"/>
      <path class="cls-8" d="M136.28,467.41c0,1.06-.88,1.92-1.97,1.92s-1.97-.86-1.97-1.92,.88-1.92,1.97-1.92,1.97,.86,1.97,1.92Z"/>
      <path class="cls-8" d="M152.07,467.41c0,1.06-.88,1.92-1.97,1.92s-1.97-.86-1.97-1.92,.88-1.92,1.97-1.92,1.97,.86,1.97,1.92Z"/>
      <path class="cls-8" d="M167.86,467.41c0,1.06-.88,1.92-1.97,1.92s-1.97-.86-1.97-1.92,.88-1.92,1.97-1.92,1.97,.86,1.97,1.92Z"/>
      <path class="cls-8" d="M183.65,467.41c0,1.06-.88,1.92-1.97,1.92s-1.97-.86-1.97-1.92,.88-1.92,1.97-1.92,1.97,.86,1.97,1.92Z"/>
      <path class="cls-8" d="M199.44,467.41c0,1.06-.88,1.92-1.97,1.92s-1.97-.86-1.97-1.92,.88-1.92,1.97-1.92,1.97,.86,1.97,1.92Z"/>
      <path class="cls-8" d="M120.48,454.17c0,1.06-.88,1.92-1.97,1.92s-1.97-.86-1.97-1.92,.88-1.92,1.97-1.92,1.97,.86,1.97,1.92Z"/>
      <path class="cls-8" d="M136.28,454.17c0,1.06-.88,1.92-1.97,1.92s-1.97-.86-1.97-1.92,.88-1.92,1.97-1.92,1.97,.86,1.97,1.92Z"/>
      <path class="cls-8" d="M152.07,454.17c0,1.06-.88,1.92-1.97,1.92s-1.97-.86-1.97-1.92,.88-1.92,1.97-1.92,1.97,.86,1.97,1.92Z"/>
      <path class="cls-8" d="M167.86,454.17c0,1.06-.88,1.92-1.97,1.92s-1.97-.86-1.97-1.92,.88-1.92,1.97-1.92,1.97,.86,1.97,1.92Z"/>
      <path class="cls-8" d="M183.65,454.17c0,1.06-.88,1.92-1.97,1.92s-1.97-.86-1.97-1.92,.88-1.92,1.97-1.92,1.97,.86,1.97,1.92Z"/>
      <path class="cls-8" d="M199.44,454.17c0,1.06-.88,1.92-1.97,1.92s-1.97-.86-1.97-1.92,.88-1.92,1.97-1.92,1.97,.86,1.97,1.92Z"/>
      <path class="cls-8" d="M120.48,440.92c0,1.06-.88,1.92-1.97,1.92s-1.97-.86-1.97-1.92,.88-1.92,1.97-1.92,1.97,.86,1.97,1.92Z"/>
      <path class="cls-8" d="M136.28,440.92c0,1.06-.88,1.92-1.97,1.92s-1.97-.86-1.97-1.92,.88-1.92,1.97-1.92,1.97,.86,1.97,1.92Z"/>
      <path class="cls-8" d="M152.07,440.92c0,1.06-.88,1.92-1.97,1.92s-1.97-.86-1.97-1.92,.88-1.92,1.97-1.92,1.97,.86,1.97,1.92Z"/>
      <path class="cls-8" d="M167.86,440.92c0,1.06-.88,1.92-1.97,1.92s-1.97-.86-1.97-1.92,.88-1.92,1.97-1.92,1.97,.86,1.97,1.92Z"/>
      <path class="cls-8" d="M183.65,440.92c0,1.06-.88,1.92-1.97,1.92s-1.97-.86-1.97-1.92,.88-1.92,1.97-1.92,1.97,.86,1.97,1.92Z"/>
      <path class="cls-8" d="M199.44,440.92c0,1.06-.88,1.92-1.97,1.92s-1.97-.86-1.97-1.92,.88-1.92,1.97-1.92,1.97,.86,1.97,1.92Z"/>
      <g>
        <path class="cls-11" d="M693.81,66.82c-1.06,0-1.92-.88-1.92-1.97s.86-1.97,1.92-1.97,1.92,.88,1.92,1.97-.86,1.97-1.92,1.97Z"/>
        <path class="cls-11" d="M693.81,82.61c-1.06,0-1.92-.88-1.92-1.97s.86-1.97,1.92-1.97,1.92,.88,1.92,1.97-.86,1.97-1.92,1.97Z"/>
        <path class="cls-11" d="M693.81,98.4c-1.06,0-1.92-.88-1.92-1.97s.86-1.97,1.92-1.97,1.92,.88,1.92,1.97-.86,1.97-1.92,1.97Z"/>
        <path class="cls-11" d="M693.81,114.19c-1.06,0-1.92-.88-1.92-1.97s.86-1.97,1.92-1.97,1.92,.88,1.92,1.97-.86,1.97-1.92,1.97Z"/>
        <path class="cls-11" d="M693.81,129.98c-1.06,0-1.92-.88-1.92-1.97s.86-1.97,1.92-1.97,1.92,.88,1.92,1.97-.86,1.97-1.92,1.97Z"/>
        <path class="cls-11" d="M693.81,145.77c-1.06,0-1.92-.88-1.92-1.97s.86-1.97,1.92-1.97,1.92,.88,1.92,1.97-.86,1.97-1.92,1.97Z"/>
        <path class="cls-11" d="M707.06,66.82c-1.06,0-1.92-.88-1.92-1.97s.86-1.97,1.92-1.97,1.92,.88,1.92,1.97-.86,1.97-1.92,1.97Z"/>
        <path class="cls-11" d="M707.06,82.61c-1.06,0-1.92-.88-1.92-1.97s.86-1.97,1.92-1.97,1.92,.88,1.92,1.97-.86,1.97-1.92,1.97Z"/>
        <path class="cls-11" d="M707.06,98.4c-1.06,0-1.92-.88-1.92-1.97s.86-1.97,1.92-1.97,1.92,.88,1.92,1.97-.86,1.97-1.92,1.97Z"/>
        <path class="cls-11" d="M707.06,114.19c-1.06,0-1.92-.88-1.92-1.97s.86-1.97,1.92-1.97,1.92,.88,1.92,1.97-.86,1.97-1.92,1.97Z"/>
        <path class="cls-11" d="M707.06,129.98c-1.06,0-1.92-.88-1.92-1.97s.86-1.97,1.92-1.97,1.92,.88,1.92,1.97-.86,1.97-1.92,1.97Z"/>
        <path class="cls-11" d="M707.06,145.77c-1.06,0-1.92-.88-1.92-1.97s.86-1.97,1.92-1.97,1.92,.88,1.92,1.97-.86,1.97-1.92,1.97Z"/>
        <path class="cls-11" d="M720.3,66.82c-1.06,0-1.92-.88-1.92-1.97s.86-1.97,1.92-1.97,1.92,.88,1.92,1.97-.86,1.97-1.92,1.97Z"/>
        <path class="cls-11" d="M720.3,82.61c-1.06,0-1.92-.88-1.92-1.97s.86-1.97,1.92-1.97,1.92,.88,1.92,1.97-.86,1.97-1.92,1.97Z"/>
        <path class="cls-11" d="M720.3,98.4c-1.06,0-1.92-.88-1.92-1.97s.86-1.97,1.92-1.97,1.92,.88,1.92,1.97-.86,1.97-1.92,1.97Z"/>
        <path class="cls-11" d="M720.3,114.19c-1.06,0-1.92-.88-1.92-1.97s.86-1.97,1.92-1.97,1.92,.88,1.92,1.97-.86,1.97-1.92,1.97Z"/>
        <path class="cls-11" d="M720.3,129.98c-1.06,0-1.92-.88-1.92-1.97s.86-1.97,1.92-1.97,1.92,.88,1.92,1.97-.86,1.97-1.92,1.97Z"/>
        <path class="cls-11" d="M720.3,145.77c-1.06,0-1.92-.88-1.92-1.97s.86-1.97,1.92-1.97,1.92,.88,1.92,1.97-.86,1.97-1.92,1.97Z"/>
        <path class="cls-11" d="M733.56,66.82c-1.06,0-1.92-.88-1.92-1.97s.86-1.97,1.92-1.97,1.92,.88,1.92,1.97-.86,1.97-1.92,1.97Z"/>
        <path class="cls-11" d="M733.56,82.61c-1.06,0-1.92-.88-1.92-1.97s.86-1.97,1.92-1.97,1.92,.88,1.92,1.97-.86,1.97-1.92,1.97Z"/>
        <path class="cls-11" d="M733.56,98.4c-1.06,0-1.92-.88-1.92-1.97s.86-1.97,1.92-1.97,1.92,.88,1.92,1.97-.86,1.97-1.92,1.97Z"/>
        <path class="cls-11" d="M733.56,114.19c-1.06,0-1.92-.88-1.92-1.97s.86-1.97,1.92-1.97,1.92,.88,1.92,1.97-.86,1.97-1.92,1.97Z"/>
        <path class="cls-11" d="M733.56,129.98c-1.06,0-1.92-.88-1.92-1.97s.86-1.97,1.92-1.97,1.92,.88,1.92,1.97-.86,1.97-1.92,1.97Z"/>
        <path class="cls-11" d="M733.56,145.77c-1.06,0-1.92-.88-1.92-1.97s.86-1.97,1.92-1.97,1.92,.88,1.92,1.97-.86,1.97-1.92,1.97Z"/>
        <path class="cls-11" d="M693.16,161.75c-1.06,0-1.92-.88-1.92-1.97s.86-1.97,1.92-1.97,1.92,.88,1.92,1.97-.86,1.97-1.92,1.97Z"/>
        <path class="cls-11" d="M693.16,177.54c-1.06,0-1.92-.88-1.92-1.97s.86-1.97,1.92-1.97,1.92,.88,1.92,1.97-.86,1.97-1.92,1.97Z"/>
        <path class="cls-11" d="M693.16,193.33c-1.06,0-1.92-.88-1.92-1.97s.86-1.97,1.92-1.97,1.92,.88,1.92,1.97-.86,1.97-1.92,1.97Z"/>
        <path class="cls-11" d="M693.16,209.12c-1.06,0-1.92-.88-1.92-1.97s.86-1.97,1.92-1.97,1.92,.88,1.92,1.97-.86,1.97-1.92,1.97Z"/>
        <path class="cls-11" d="M693.16,224.91c-1.06,0-1.92-.88-1.92-1.97s.86-1.97,1.92-1.97,1.92,.88,1.92,1.97-.86,1.97-1.92,1.97Z"/>
        <path class="cls-11" d="M693.16,240.71c-1.06,0-1.92-.88-1.92-1.97s.86-1.97,1.92-1.97,1.92,.88,1.92,1.97-.86,1.97-1.92,1.97Z"/>
        <path class="cls-11" d="M706.42,161.75c-1.06,0-1.92-.88-1.92-1.97s.86-1.97,1.92-1.97,1.92,.88,1.92,1.97-.86,1.97-1.92,1.97Z"/>
        <path class="cls-11" d="M706.42,177.54c-1.06,0-1.92-.88-1.92-1.97s.86-1.97,1.92-1.97,1.92,.88,1.92,1.97-.86,1.97-1.92,1.97Z"/>
        <path class="cls-11" d="M706.42,193.33c-1.06,0-1.92-.88-1.92-1.97s.86-1.97,1.92-1.97,1.92,.88,1.92,1.97-.86,1.97-1.92,1.97Z"/>
        <path class="cls-11" d="M706.42,209.12c-1.06,0-1.92-.88-1.92-1.97s.86-1.97,1.92-1.97,1.92,.88,1.92,1.97-.86,1.97-1.92,1.97Z"/>
        <path class="cls-11" d="M706.42,224.91c-1.06,0-1.92-.88-1.92-1.97s.86-1.97,1.92-1.97,1.92,.88,1.92,1.97-.86,1.97-1.92,1.97Z"/>
        <path class="cls-11" d="M706.42,240.71c-1.06,0-1.92-.88-1.92-1.97s.86-1.97,1.92-1.97,1.92,.88,1.92,1.97-.86,1.97-1.92,1.97Z"/>
        <path class="cls-11" d="M719.66,161.75c-1.06,0-1.92-.88-1.92-1.97s.86-1.97,1.92-1.97,1.92,.88,1.92,1.97-.86,1.97-1.92,1.97Z"/>
        <path class="cls-11" d="M719.66,177.54c-1.06,0-1.92-.88-1.92-1.97s.86-1.97,1.92-1.97,1.92,.88,1.92,1.97-.86,1.97-1.92,1.97Z"/>
        <path class="cls-11" d="M719.66,193.33c-1.06,0-1.92-.88-1.92-1.97s.86-1.97,1.92-1.97,1.92,.88,1.92,1.97-.86,1.97-1.92,1.97Z"/>
        <path class="cls-11" d="M719.66,209.12c-1.06,0-1.92-.88-1.92-1.97s.86-1.97,1.92-1.97,1.92,.88,1.92,1.97-.86,1.97-1.92,1.97Z"/>
        <path class="cls-11" d="M719.66,224.91c-1.06,0-1.92-.88-1.92-1.97s.86-1.97,1.92-1.97,1.92,.88,1.92,1.97-.86,1.97-1.92,1.97Z"/>
        <path class="cls-11" d="M719.66,240.71c-1.06,0-1.92-.88-1.92-1.97s.86-1.97,1.92-1.97,1.92,.88,1.92,1.97-.86,1.97-1.92,1.97Z"/>
        <path class="cls-11" d="M732.91,161.75c-1.06,0-1.92-.88-1.92-1.97s.86-1.97,1.92-1.97,1.92,.88,1.92,1.97-.86,1.97-1.92,1.97Z"/>
        <path class="cls-11" d="M732.91,177.54c-1.06,0-1.92-.88-1.92-1.97s.86-1.97,1.92-1.97,1.92,.88,1.92,1.97-.86,1.97-1.92,1.97Z"/>
        <path class="cls-11" d="M732.91,193.33c-1.06,0-1.92-.88-1.92-1.97s.86-1.97,1.92-1.97,1.92,.88,1.92,1.97-.86,1.97-1.92,1.97Z"/>
        <path class="cls-11" d="M732.91,209.12c-1.06,0-1.92-.88-1.92-1.97s.86-1.97,1.92-1.97,1.92,.88,1.92,1.97-.86,1.97-1.92,1.97Z"/>
        <path class="cls-11" d="M732.91,224.91c-1.06,0-1.92-.88-1.92-1.97s.86-1.97,1.92-1.97,1.92,.88,1.92,1.97-.86,1.97-1.92,1.97Z"/>
        <path class="cls-11" d="M732.91,240.71c-1.06,0-1.92-.88-1.92-1.97s.86-1.97,1.92-1.97,1.92,.88,1.92,1.97-.86,1.97-1.92,1.97Z"/>
      </g>
    </g>
  </g>
</svg>