<?xml version="1.0" encoding="UTF-8"?>
<svg id="Layer_2" data-name="Layer 2" xmlns="http://www.w3.org/2000/svg" xmlns:xlink="http://www.w3.org/1999/xlink" viewBox="0 0 713.53 713.53">
  <defs>
    <style>
      .cls-1 {
        fill: #dce6a1;
      }

      .cls-2 {
        fill: #f46e4a;
      }

      .cls-3 {
        fill: #fff;
      }

      .cls-4 {
        fill: #86b66c;
      }

      .cls-5 {
        fill: #d8d8d8;
      }

      .cls-6 {
        fill: #b1c27b;
      }

      .cls-7 {
        fill: url(#linear-gradient-2);
        opacity: .29;
        stroke-width: 5px;
      }

      .cls-7, .cls-8 {
        stroke: #dbdbdb;
        stroke-miterlimit: 10;
      }

      .cls-9 {
        fill: #fbf7f4;
      }

      .cls-10 {
        fill: #cc4429;
      }

      .cls-11 {
        fill: #7a5938;
      }

      .cls-12 {
        fill: #f1d977;
      }

      .cls-13 {
        opacity: .22;
      }

      .cls-13, .cls-14 {
        fill: #231f20;
      }

      .cls-15 {
        fill: #5f773d;
      }

      .cls-8 {
        fill: url(#linear-gradient);
        opacity: .68;
        stroke-width: 10px;
      }

      .cls-16 {
        fill: #ad2757;
      }

      .cls-14 {
        opacity: .25;
      }

      .cls-17 {
        fill: #8ca860;
      }

      .cls-18 {
        fill: #c64e85;
      }

      .cls-19 {
        fill: #ed5526;
      }

      .cls-20 {
        fill: #d74325;
      }
    </style>
    <linearGradient id="linear-gradient" x1="-714.22" y1="8.98" x2="-213.27" y2="8.98" gradientTransform="translate(722.63 71.66) rotate(-36.82)" gradientUnits="userSpaceOnUse">
      <stop offset="0" stop-color="#9c9c9c"/>
      <stop offset="0" stop-color="#9a9a9a" stop-opacity=".99"/>
      <stop offset=".05" stop-color="#757575" stop-opacity=".76"/>
      <stop offset=".11" stop-color="#565656" stop-opacity=".55"/>
      <stop offset=".18" stop-color="#3b3b3b" stop-opacity=".38"/>
      <stop offset=".25" stop-color="#252525" stop-opacity=".24"/>
      <stop offset=".33" stop-color="#141414" stop-opacity=".13"/>
      <stop offset=".44" stop-color="#080808" stop-opacity=".06"/>
      <stop offset=".59" stop-color="#010101" stop-opacity=".01"/>
      <stop offset="1" stop-color="#000" stop-opacity="0"/>
    </linearGradient>
    <linearGradient id="linear-gradient-2" x1="-658.26" y1="9.87" x2="-270.95" y2="9.87" xlink:href="#linear-gradient"/>
  </defs>
  <g id="Layer_1-2" data-name="Layer 1">
    <g>
      <g>
        <circle class="cls-3" cx="356.76" cy="356.76" r="356.76"/>
        <circle class="cls-8" cx="356.76" cy="356.76" r="250.48"/>
        <circle class="cls-7" cx="356.6" cy="357.99" r="193.66"/>
      </g>
      <g>
        <ellipse class="cls-11" cx="349.49" cy="396.64" rx="219.12" ry="219.43"/>
        <path class="cls-14" d="M207.33,129.91c3.99-2.16,8.98-1.43,13.16,.33,.29-3.89,6.2-5.78,8.69-2.78-.92-4.96,1.73-10.37,6.21-12.68,4.48-2.31,10.41-1.33,13.91,2.3,1.75-2.39,3.5-4.78,5.26-7.17,1.71,1.27,3.41,2.53,5.12,3.8,3.02-6.32,12.06-8.77,17.85-4.83,1.8,1.23,3.32,2.96,5.39,3.65,6.58,2.21,15.34-6.72,19.59-1.22,3.36-5.97,9.06-11.07,15.86-11.8,6.8-.74,14.28,4.17,14.7,11.01,2.67-2.65,7.78-2.03,9.73,1.19,2.98-7.39,16.01-6.68,18.17,.99,6.53,3.81,13.8-5.85,21.3-4.9,7.08,.89,9.36,9.9,9.94,17.03,2.87-3.18,9.16-1.46,10.03,2.74,2.39-3.81,7.76-5.41,11.84-3.52,4.08,1.89,6.35,7.01,5.01,11.3,3.99-2.25,9.73-.31,11.55,3.89,3.49-4.51,10.53-5.75,15.34-2.7,4.82,3.04,6.73,9.94,4.16,15.03,7.86,3.49,15.73,6.98,23.59,10.47,3.85,1.71,8.14,3.91,9.21,7.99,.78,2.98-.42,6.1-.37,9.17,.09,5.41,3.98,9.93,7.88,13.67,3.9,3.74,8.24,7.52,9.72,12.72,1.48,5.2-1.68,12.08-7.08,12.05,1.99,15.55,9.49,29.77,14.28,44.7,4.78,14.93,6.52,32.35-2.21,45.37-1.46,2.17-3.24,4.32-3.53,6.92-.3,2.67,1.04,5.21,2.24,7.61,6.98,13.97,10.57,29.63,10.36,45.26-.07,5.51-.71,11.3-3.92,15.78-4.72,6.6-13.89,8.81-18.62,15.4-5.53,7.7-4.12,20.1-12.17,25.1-6.67,4.14-15.69,.3-23.06,2.99-3.48,1.27-6.28,3.89-9.46,5.78-6.35,3.76-13.97,4.5-21.32,5.15-5.09,.45-10.74,.75-14.74-2.43-16.09,19.2-46.03,25.06-68.15,13.33-2.15-1.14-4.25-2.43-6.58-3.13-3-.89-6.19-.75-9.31-.69-17.11,.32-34.27-2.25-50.53-7.58-.85-.9-1.7-1.8-2.56-2.7-12.22-1.91-24.43-3.83-36.65-5.74,.01-1.8,.02-3.6,.03-5.39-4.32,1.7-9.05-1.68-11.54-5.6-2.49-3.92-3.84-8.61-7.04-11.97-3.28-3.44-8.03-5.02-11.86-7.84-3.83-2.82-6.76-8.19-4.28-12.25-9.39-2.33-20.32-6.1-22.88-15.44-1.81-6.62,1.39-14.23-1.79-20.32-3.74-7.15-14.38-8.44-17.95-15.67-3.66-7.41,2.06-17.17-2.14-24.28-1.92-3.24-5.69-5.43-6.49-9.11-.63-2.89,.79-5.77,1.59-8.61,1.91-6.78,.32-14,.6-21.04,.28-7.04,3.58-15.06,10.44-16.61-7.49-7.51-15.56-18.32-10.48-27.63,1.89-3.46,5.31-5.85,7.41-9.19,3.92-6.26,2.43-14.31,3.18-21.66,.74-7.35,6.54-15.79,13.63-13.76-1.07-6.04-.33-14.67,5.78-15.19-3.46-2.18-4.86-7.11-3.07-10.79,1.79-3.68,6.52-5.61,10.37-4.23,.19-2.59,.37-5.18,.56-7.77-.14,1.98,10.05-2.03,11.09-3.62,2.46-3.74-.1-8.12,5.03-10.9Z"/>
        <path class="cls-9" d="M230.33,122.82c3.99-2.16,8.98-1.43,13.16,.33,.29-3.89,6.2-5.78,8.69-2.78-.92-4.96,1.73-10.37,6.21-12.68,4.48-2.31,10.41-1.33,13.91,2.3,1.75-2.39,3.5-4.78,5.26-7.17,1.71,1.27,3.41,2.53,5.12,3.8,3.02-6.32,12.06-8.77,17.85-4.83,1.8,1.23,3.32,2.96,5.39,3.65,6.58,2.21,15.34-6.72,19.59-1.22,3.36-5.97,9.06-11.07,15.86-11.8,6.8-.74,14.28,4.17,14.7,11.01,2.67-2.65,7.78-2.03,9.73,1.19,2.98-7.39,16.01-6.68,18.17,.99,6.53,3.81,13.8-5.85,21.3-4.9,7.08,.89,9.36,9.9,9.94,17.03,2.87-3.18,9.16-1.46,10.03,2.74,2.39-3.81,7.76-5.41,11.84-3.52,4.08,1.89,6.35,7.01,5.01,11.3,3.99-2.25,9.73-.31,11.55,3.89,3.49-4.51,10.53-5.75,15.34-2.7,4.82,3.04,6.73,9.94,4.16,15.03,7.86,3.49,15.73,6.98,23.59,10.47,3.85,1.71,8.14,3.91,9.21,7.99,.78,2.98-.42,6.1-.37,9.17,.09,5.41,3.98,9.93,7.88,13.67,3.9,3.74,8.24,7.52,9.72,12.72,1.48,5.2-1.68,12.08-7.08,12.05,1.99,15.55,9.49,29.77,14.28,44.7,4.78,14.93,6.52,32.35-2.21,45.37-1.46,2.17-3.24,4.32-3.53,6.92-.3,2.67,1.04,5.21,2.24,7.61,6.98,13.97,10.57,29.63,10.36,45.26-.07,5.51-.71,11.3-3.92,15.78-4.72,6.6-13.89,8.81-18.62,15.4-5.53,7.7-4.12,20.1-12.17,25.1-6.67,4.14-15.69,.3-23.06,2.99-3.48,1.27-6.28,3.89-9.46,5.78-6.35,3.76-13.97,4.5-21.32,5.15-5.09,.45-10.74,.75-14.74-2.43-16.09,19.2-46.03,25.06-68.15,13.33-2.15-1.14-4.25-2.43-6.58-3.13-3-.89-6.19-.75-9.31-.69-17.11,.32-34.27-2.25-50.53-7.58-.85-.9-1.7-1.8-2.56-2.7-12.22-1.91-24.43-3.83-36.65-5.74,.01-1.8,.02-3.6,.03-5.39-4.32,1.7-9.05-1.68-11.54-5.6-2.49-3.92-3.84-8.61-7.04-11.97-3.28-3.44-8.03-5.02-11.86-7.84-3.83-2.82-6.76-8.19-4.28-12.25-9.39-2.33-20.32-6.1-22.88-15.44-1.81-6.62,1.39-14.23-1.79-20.32-3.74-7.15-14.38-8.44-17.95-15.67-3.66-7.41,2.06-17.17-2.14-24.28-1.92-3.24-5.69-5.43-6.49-9.11-.63-2.89,.79-5.77,1.59-8.61,1.91-6.78,.32-14,.6-21.04,.28-7.04,3.58-15.06,10.44-16.61-7.49-7.51-15.56-18.32-10.48-27.63,1.89-3.46,5.31-5.85,7.41-9.19,3.92-6.26,2.43-14.31,3.18-21.66,.74-7.35,6.54-15.79,13.63-13.76-1.07-6.04-.33-14.67,5.78-15.19-3.46-2.18-4.86-7.11-3.07-10.79s6.52-5.61,10.37-4.23c.19-2.59,.37-5.18,.56-7.77-.14,1.98,10.05-2.03,11.09-3.62,2.46-3.74-.1-8.12,5.03-10.9Z"/>
        <path class="cls-14" d="M510.64,387.83c-3.08-.82-6.16-1.64-9.24-2.46,.16,4.32-4.6,7.19-8.88,7.76-4.28,.57-8.82-.12-12.78,1.61-6.04,2.64-8.87,10.1-14.91,12.74-7.21,3.16-15.19-1.79-21.5-6.51-6.69-5-13.38-10.01-20.07-15.01-3.5,7.38-12.88,11.34-20.6,8.7-7.71-2.64-12.71-11.53-10.97-19.51-6.48,6.3-13.33,12.82-22,15.33-8.67,2.52-19.67-.48-23.09-8.85-1.37,4.31-6.59,6.93-10.86,5.46-4.27-1.47-6.77-6.75-5.21-10.99-3.29,1.84-6.59,3.69-9.88,5.53-6.37-8.6-14.56-15.84-23.86-21.1-.63-2.74-1.26-5.47-1.89-8.21-13.52,1.65-30.21,1.86-37.23-9.82-6.44-10.71-.29-24.48-1.81-36.9-6.3,1.77-11.36-5.14-14.28-11-4.22-8.47-8.43-16.93-12.65-25.4-5.51-11.07-11.09-24.11-5.84-35.31-11.97-1.27-21.3-14.2-18.75-25.98,.91-4.21,3.06-8.04,5.18-11.8,4.94-8.76,9.88-17.52,14.82-26.28,2.33-4.13,4.66-8.27,6.99-12.4,4.13-7.32,8.24-16.56,3.69-23.62,4.28-.83,8.55-1.66,12.82-2.49-.65-5.88,4.56-11.11,10.28-12.59,5.72-1.49,11.74-.19,17.5,1.11-.12-5.7,1.69-10.76,4.72-14.95-.93-.69-1.87-1.39-2.8-2.08-1.75,2.39-3.51,4.78-5.26,7.17-3.5-3.63-9.43-4.61-13.91-2.3-4.48,2.31-7.13,7.72-6.21,12.68-2.49-2.99-8.4-1.1-8.69,2.78-4.19-1.76-9.17-2.5-13.16-.33-5.13,2.78-2.56,7.16-5.03,10.9-1.05,1.59-11.24,5.59-11.09,3.62-.19,2.59-.37,5.18-.56,7.77-3.85-1.38-8.58,.55-10.37,4.23s-.39,8.6,3.07,10.79c-6.11,.52-6.85,9.15-5.78,15.19-7.09-2.04-12.88,6.41-13.63,13.76-.74,7.35,.74,15.4-3.18,21.66-2.09,3.34-5.52,5.73-7.41,9.19-5.08,9.31,2.99,20.13,10.48,27.63-6.86,1.55-10.16,9.57-10.44,16.61-.28,7.04,1.31,14.26-.6,21.04-.8,2.85-2.22,5.73-1.59,8.61,.8,3.68,4.58,5.87,6.49,9.11,4.2,7.11-1.52,16.88,2.14,24.28,3.57,7.23,14.22,8.52,17.95,15.67,3.18,6.08-.02,13.69,1.79,20.32,2.56,9.34,13.49,13.11,22.88,15.44-2.48,4.06,.46,9.42,4.28,12.25,3.83,2.82,8.58,4.4,11.86,7.84,3.2,3.37,4.55,8.05,7.04,11.97,2.49,3.92,7.22,7.3,11.54,5.6-.01,1.8-.02,3.6-.03,5.39,12.22,1.91,24.43,3.83,36.65,5.74,.85,.9,1.7,1.8,2.56,2.7,16.26,5.33,33.42,7.91,50.53,7.58,3.12-.06,6.32-.21,9.31,.69,2.33,.69,4.43,1.99,6.58,3.13,22.12,11.73,52.06,5.87,68.15-13.33,4,3.18,9.65,2.89,14.74,2.43,7.35-.65,14.97-1.39,21.32-5.15,3.19-1.89,5.98-4.51,9.46-5.78,7.37-2.69,16.39,1.15,23.06-2.99,8.05-5,6.64-17.4,12.17-25.1,4.73-6.59,13.9-8.81,18.62-15.4,1.67-2.33,2.64-5.01,3.2-7.83-6.84,8.5-15.79,15.3-25.87,19.46Z"/>
        <path class="cls-14" d="M349.12,457.76c-.97-2.89-2.77-5.41-4.63-7.82-4.46-5.79-9.39-11.2-14.74-16.18-.72-.67-1.49-1.35-2.44-1.6-.96-.25-1.98,0-2.93,.28-2.96,.88-7.08,2.82-11.01,5.42,0,0,0,0,0,0-.8,.53-1.59,1.08-2.36,1.66,0,0-.01,0-.02,.01-.25,.19-.5,.38-.74,.57-3.71-4.19-7.75-8.19-12.54-11,.06-.08,.12-.16,.17-.24,.77-1.34,.73-2.98,.67-4.52-.26-6.75-.52-13.49-.78-20.24-.19-4.99-.43-10.16-2.74-14.58-.48-.92-1.1-1.84-2.04-2.28-.93-.44-2.01-.33-3.04-.21-7.39,.86-14.85,2.1-22.28,2.54-3.58,.21-6.99,.38-10.26,1.18-2.75-8.7-6.26-17.16-10.52-25.22-.6-1.14-1.26-2.32-2.34-3.04-1.85-1.24-4.31-.75-6.46-.19-7.51,1.95-20.96,4.2-30.12,9.35-.09,.05-.17,.1-.26,.15-.48,.28-.95,.56-1.41,.86-.03,.02-.06,.04-.09,.06-.49,.32-.96,.65-1.42,.99-.07,.05-.13,.1-.2,.15-.37,.28-.73,.57-1.07,.87-.1,.09-.2,.17-.29,.26-.36,.32-.71,.65-1.04,1-.03,.03-.06,.06-.1,.1-.35,.37-.68,.76-.98,1.15-.08,.1-.15,.2-.23,.31-.23,.3-.44,.62-.64,.93-.07,.12-.15,.24-.22,.36-.25,.42-.47,.85-.67,1.29-.17,.39-.32,.8-.46,1.21-1.4-3.27-2.9-6.49-4.52-9.66-.81-1.59-1.71-3.25-3.23-4.19-1.26-.78-2.79-.97-4.28-1-6.39-.13-12.51,2.32-18.42,4.74-3.58,1.46-7.76,2.83-11.68,4.52h0c-.28,.12-.55,.24-.82,.36-.16,.07-.32,.15-.49,.22-.17,.08-.34,.16-.51,.24-.16,.07-.31,.15-.46,.22-.28,.14-.57,.28-.84,.42-.13,.07-.26,.13-.39,.2-.19,.1-.38,.2-.57,.3-.13,.07-.26,.14-.39,.21-.28,.16-.56,.31-.83,.48-.1,.06-.19,.12-.29,.18-.21,.13-.41,.25-.61,.38-.11,.07-.22,.14-.32,.21-.26,.17-.51,.34-.76,.52-.07,.05-.14,.1-.21,.16-.22,.16-.43,.32-.64,.49-.09,.07-.18,.14-.27,.22-.22,.18-.43,.36-.64,.54-.05,.04-.09,.08-.14,.12-.23,.21-.45,.42-.66,.64-.07,.07-.14,.15-.21,.22-.18,.19-.36,.39-.53,.59-.04,.05-.09,.1-.13,.14-.2,.24-.39,.49-.58,.74-.05,.07-.11,.15-.16,.22-.15,.21-.29,.43-.42,.65-.04,.06-.08,.12-.11,.18-.16,.27-.31,.55-.45,.83-.04,.07-.07,.15-.11,.23-.11,.24-.21,.48-.31,.72-.03,.07-.06,.14-.09,.22-.11,.3-.21,.61-.3,.93-.02,.07-.04,.14-.06,.22-.07,.27-.13,.54-.18,.81-.02,.08-.03,.17-.05,.25-.06,.34-.1,.68-.14,1.04,0,.06,0,.13-.01,.19-.02,.3-.04,.62-.04,.93,0,.1,0,.19,0,.29,0,.38,.02,.76,.05,1.15,0,.04,.01,.09,.01,.13,.03,.36,.08,.73,.14,1.1,.02,.11,.03,.22,.05,.33,.07,.42,.15,.84,.26,1.28,1.12,4.71,2.51,9.36,4.15,13.91,.03,.09,.07,.17,.1,.26-10.2-1.97-21.79,5.42-31.45,12.01-4.69,3.2-9.42,6.44-13.2,10.68-.71,.79-1.38,1.63-2.01,2.5-1.46,2.03-2.66,4.25-3.46,6.59-.46,1.34-.78,2.71-.94,4.11-.08,.7-.12,1.41-.12,2.12,0,1.07,.1,2.11,.28,3.14,.18,1.02,.44,2.03,.78,3.01,.5,1.48,1.15,2.91,1.92,4.31,.51,.93,1.08,1.84,1.68,2.73,.3,.45,.61,.89,.93,1.33,.64,.88,1.31,1.74,1.99,2.59,.34,.42,.69,.84,1.05,1.26,1.06,1.25,2.14,2.46,3.22,3.65,1.42,1.57,2.85,3.14,4.27,4.71,1.42,1.57,2.85,3.14,4.27,4.71,3.7,4.08,7.84,8.39,13.01,9.87,.74,.21,1.5,.36,2.28,.45,2.69,.3,5.35-.25,7.94-1.1-.06,.04-.12,.08-.18,.12-.24,.17-.49,.34-.74,.51-.74,.51-1.49,1.05-2.2,1.61-.94,.75-1.82,1.57-2.5,2.47-.34,.45-.64,.92-.87,1.42-.35,.75-.56,1.55-.59,2.43-.06,1.97,.61,4.22,1.62,6.49,.34,.76,.71,1.52,1.1,2.27s.81,1.5,1.23,2.23c.42,.73,.85,1.44,1.27,2.12,.84,1.37,1.64,2.63,2.28,3.71,.67,1.13,1.36,2.25,2.08,3.35,.36,.55,.73,1.1,1.11,1.63,.76,1.07,1.55,2.12,2.4,3.11,.42,.5,.86,.98,1.31,1.45,.9,.94,1.87,1.82,2.9,2.62,3.67,2.84,8.03,4.47,12.6,5.12,1.96,.28,3.96,.37,5.96,.31,1.34-.04,2.67-.16,4-.35,1.21-.17,2.4-.4,3.59-.68-.48,.72-.94,1.44-1.38,2.17-.51,.85-.98,1.7-1.4,2.55-.21,.42-.41,.85-.59,1.27-.18,.42-.35,.85-.51,1.27-.43,1.18-.62,2.35-.61,3.5,.01,1.14,.22,2.26,.59,3.34,.24,.72,.56,1.42,.92,2.11,.74,1.37,1.69,2.66,2.77,3.85,.81,.89,1.68,1.72,2.58,2.49,.3,.26,.6,.5,.9,.74,2.57,2.04,5.3,3.88,8.15,5.5,2.85,1.62,5.82,3.03,8.89,4.21,2.04,.79,4.12,1.47,6.23,2.06,1.05,.29,2.12,.56,3.18,.8,3.37,.76,6.79,1.24,10.23,1.47,.05,.12,.1,.23,.17,.35,.1,.17,.21,.34,.32,.5,.23,.33,.5,.63,.79,.91,.58,.57,1.24,1.08,1.89,1.56,3.81,2.85,7.73,5.63,11.79,8.14,2.71,1.67,5.48,3.22,8.33,4.59,1.42,.68,2.87,1.32,4.33,1.9,1.46,.58,2.95,1.11,4.45,1.57,1.51,.46,3.03,.87,4.58,1.2,.4,.08,.79,.16,1.19,.24,1.2,.22,2.41,.39,3.62,.46,1.21,.07,2.42,.05,3.62-.11,.4-.05,.8-.12,1.19-.2,0,0,0,0,0,0,.55-.12,1.08-.26,1.61-.43,.16-.05,.32-.12,.49-.17,.36-.13,.72-.27,1.07-.42,.17-.08,.34-.15,.51-.24,.35-.17,.69-.35,1.02-.53,.14-.08,.29-.16,.43-.24,.44-.26,.86-.54,1.28-.83,.03-.02,.06-.04,.09-.06,.46-.33,.91-.68,1.35-1.05,.09-.07,.17-.15,.26-.23,.34-.3,.68-.6,1.02-.92,.11-.1,.22-.21,.32-.31,.32-.31,.63-.64,.94-.97,.09-.09,.18-.19,.26-.28,.38-.42,.76-.85,1.13-1.29,0,0,0,0,0,0h0c1.97-2.37,3.72-5,5.33-7.56,2.25-3.58,4.55-7.41,4.58-11.64,.03-3.96-1.94-7.63-3.89-11.08-3.48-6.12-7.13-12.2-11.79-17.48-.48-.54-.99-1.08-1.51-1.6,1.59-.59,3.12-1.31,4.58-2.2,.61-.37,1.2-.78,1.78-1.2,.09-.06,.18-.13,.27-.19,.55-.4,1.08-.83,1.6-1.27,.1-.08,.19-.16,.29-.25,.52-.45,1.03-.92,1.52-1.4,.06-.06,.11-.11,.17-.17,.5-.49,.98-1,1.45-1.52,.02-.03,.05-.05,.07-.08,.48-.54,.95-1.09,1.41-1.65,.06-.08,.12-.15,.18-.23,.45-.55,.88-1.12,1.31-1.69,.05-.07,.1-.14,.15-.2,1.51-2.03,2.9-4.17,4.22-6.3,.76-1.23,1.52-2.51,2.15-3.83,.19,0,.39,0,.58-.01,.08,0,.16,0,.23-.01,.41-.03,.82-.07,1.23-.14,.09-.01,.18-.03,.27-.05,.41-.08,.83-.16,1.24-.27,.05-.01,.1-.03,.16-.05,.37-.1,.74-.22,1.11-.35,.11-.04,.22-.08,.34-.12,.37-.14,.74-.29,1.11-.45,.15-.07,.3-.13,.45-.2,.3-.14,.59-.28,.89-.43,.22-.11,.44-.23,.66-.35,.21-.11,.41-.23,.62-.35,.34-.2,.68-.4,1.01-.61,.14-.09,.27-.17,.41-.26,.25-.16,.5-.33,.74-.5,.04-.03,.08-.06,.12-.08,.5-.34,.99-.7,1.47-1.06,0,0,0,0,0,0h0c2.81-2.11,5.34-4.51,7.33-6.51,1.51-1.52,2.94-3.14,3.98-5.02,3.28-5.93,2.01-13.55-1.46-19.37-.89-1.49-2.14-3.29-3.65-5.17,.22-.14,.44-.29,.66-.43,.57,.76,1.15,1.52,1.76,2.25,1.47,1.78,3.04,3.46,4.72,5.05,.56,.53,1.12,1.05,1.7,1.55,.6,.53,1.23,1.05,1.87,1.54,1.93,1.47,4.04,2.68,6.41,3.12,1.36,.25,2.73,.23,4.08,0,.9-.15,1.79-.39,2.66-.7,.44-.16,.87-.33,1.29-.52,.85-.38,1.67-.81,2.45-1.29,.41-.25,.81-.51,1.21-.78,.11-.08,.22-.16,.33-.23,.29-.2,.57-.4,.85-.61,.1-.08,.21-.16,.31-.24,.29-.22,.57-.44,.86-.66,.08-.06,.15-.12,.23-.18,1.66-1.33,3.26-2.73,4.93-4.05,1.79-1.41,3.7-2.78,4.87-4.74,1.56-2.62,1.51-5.95,.54-8.84Zm-119.3-32.67c.63-.13,1.25-.28,1.87-.43-1.52,1.02-3.05,2.04-4.57,3.07,.02-.71,.04-1.42,.06-2.13,.63-.1,1.26-.22,1.89-.35,.25-.05,.5-.1,.75-.15Z"/>
        <g>
          <path class="cls-19" d="M132.31,420.51c-4.69,3.2-9.42,6.44-13.2,10.68-3.78,4.24-6.55,9.64-6.53,15.32,.03,8.54,6.11,15.7,11.85,22.02,2.85,3.14,5.7,6.27,8.54,9.41,4.23,4.66,9.04,9.63,15.29,10.32,3.93,.44,7.83-.93,11.5-2.42,12.57-5.1,24.97-12.49,31.76-24.25,1.63-2.82,2.92-5.95,2.93-9.21,0-3.94-1.87-7.62-3.76-11.08-4.45-8.13-9.27-16.05-14.45-23.74-11.98-17.78-29.97-6.58-43.93,2.95Z"/>
          <path class="cls-13" d="M167.08,482.56c-1.61-1.75-4.1-3.08-6.33-4.08-9.92-4.44-19.5-9.99-27.12-17.74-7.62-7.75-13.17-17.91-13.88-28.76-.03-.49-.04-.97-.02-1.44-.2,.22-.41,.43-.61,.65-3.78,4.24-6.55,9.64-6.53,15.32,.03,8.54,6.11,15.7,11.85,22.02,2.85,3.14,5.7,6.27,8.54,9.41,4.23,4.66,9.04,9.63,15.29,10.32,3.93,.44,7.83-.93,11.5-2.42,2.46-1,4.91-2.09,7.32-3.28Z"/>
          <path class="cls-10" d="M188.18,416.1c-4.06,15.72-8.15,31.73-7.39,47.95,.06,1.34,.17,2.73,.8,3.91,.78,1.47,2.26,2.43,3.76,3.14,5.29,2.52,11.34,2.74,17.19,2.78,10.51,.07,21.02-.29,31.5-1.09,2.16-.17,4.52-.44,6.03-1.99,1.59-1.63,1.76-4.14,1.83-6.41,.48-15.93,.96-31.85,1.44-47.78,.16-5.23-.06-11.29-4.21-14.47-2.49-1.91-5.8-2.24-8.92-2.45-9.99-.66-20.49-1.23-30.47-.16-8.35,.9-9.69,9.25-11.57,16.56Z"/>
          <path class="cls-13" d="M208.34,400.2c.12-.36,.28-.76,.46-1.21-3.04,.07-6.06,.23-9.04,.55-8.35,.9-9.69,9.25-11.57,16.56-4.06,15.72-8.15,31.73-7.39,47.95,.06,1.34,.17,2.73,.8,3.91,.78,1.47,2.26,2.43,3.76,3.14,4.82,2.3,10.28,2.69,15.65,2.77-4.17-13.65-3.96-28.4-1.4-42.46,1.94-10.65,5.17-21.01,8.73-31.21Z"/>
          <path class="cls-2" d="M189.71,466.18c4.57-2.3,9.8-4.46,14.64-2.83,3.53,1.19,6.11,4.19,8.41,7.13,4.45,5.66,8.58,11.56,12.37,17.68,3.43,5.54,6.6,12.68,3.23,18.26-1.16,1.92-2.95,3.35-4.71,4.73-8.33,6.57-16.87,13.25-26.88,16.75-10.01,3.5-21.95,3.3-30.35-3.19-4.14-3.2-7.12-7.66-9.8-12.16-2.57-4.32-7.67-11.57-7.5-16.83,.15-4.68,5.57-7.33,8.99-9.91,9.92-7.47,20.51-14.05,31.6-19.63Z"/>
          <path class="cls-13" d="M196.77,527.91c.65-.23,1.28-.47,1.92-.72-3.12-1.67-7.65-1.78-11.31-2.77-6.45-1.75-11.13-7.22-15.13-12.58-2.54-3.42-5.06-7.08-5.69-11.29-1.1-7.36,3.78-14.29,9.23-19.36,4.31-4.01,9.13-7.42,14.19-10.41,4.43-2.61,10.67-4.21,14.71-7.28-.12-.04-.22-.1-.34-.14-4.84-1.64-10.08,.53-14.64,2.83-11.09,5.58-21.69,12.16-31.6,19.63-3.42,2.58-8.84,5.23-8.99,9.91-.17,5.26,4.92,12.51,7.5,16.83,2.68,4.5,5.66,8.96,9.8,12.16,8.4,6.49,20.34,6.69,30.35,3.19Z"/>
          <path class="cls-2" d="M228.64,467.38c1.75,2.21,4.01,3.98,5.63,6.28,2.02,2.86,2.95,6.4,5.06,9.19,3.3,4.37,9.12,6.29,14.59,6.04,5.47-.25,10.68-2.37,15.6-4.78,5.3-2.6,10.41-5.58,15.29-8.91,3.38-2.31,6.89-5.15,7.68-9.17,.55-2.8-.35-5.67-1.31-8.36-3.82-10.72-8.81-21.01-14.85-30.65-2.38-3.8-5.2-7.72-9.43-9.21-6.23-2.2-12.83,1.65-18.32,5.33-3.08,2.07-6.17,4.13-9.25,6.2-5.03,3.37-10.23,6.91-13.36,12.11-3.96,6.57-2.08,19.92,2.68,25.93Z"/>
          <path class="cls-13" d="M257.67,477.51c-7.34-7.78-14.67-16.4-16.61-26.92-.94-5.09-.43-10.39,1.27-15.26,.99-2.83,6.21-8.88,4.89-11.28-2.63,1.77-5.27,3.53-7.9,5.3-5.03,3.37-10.23,6.91-13.36,12.11-3.96,6.57-2.08,19.92,2.68,25.93,1.75,2.21,4.01,3.98,5.63,6.28,2.02,2.86,2.95,6.4,5.06,9.19,3.3,4.37,9.12,6.29,14.59,6.04,4.38-.2,8.58-1.6,12.6-3.39-3.28-2.21-6.12-5.1-8.85-8Z"/>
          <path class="cls-20" d="M201.6,516.64c5.24-7.99,11.45-16.67,20.81-18.55,6.12-1.23,12.37,.76,18.3,2.72,5.18,1.72,10.42,3.46,14.99,6.45,4.57,2.98,8.46,7.4,9.63,12.74,.75,3.39,.36,6.93-.3,10.33-1.93,9.94-6.15,19.27-10.34,28.49-.83,1.83-1.71,3.73-3.26,5.01-1.74,1.45-4.08,1.91-6.32,2.2-17.35,2.29-35.55-2.75-49.26-13.64-4.83-3.84-9.45-9.7-7.15-16.02,2.46-6.78,8.93-13.69,12.9-19.74Z"/>
          <path class="cls-13" d="M246.08,561.78c-12.98-7.57-29.12-10.68-38.88-22.11-2.66-3.11-4.78-6.98-4.6-11.08,.13-3.1,1.55-5.98,3.1-8.67,2.47-4.3,14.53-15.83,11.26-19.81-6.44,3.47-11.2,10.21-15.35,16.54-3.97,6.05-10.44,12.96-12.9,19.74-2.3,6.32,2.32,12.18,7.15,16.02,13.71,10.89,31.91,15.93,49.26,13.64,1.65-.22,3.36-.53,4.84-1.26-1.04-1.22-2.47-2.18-3.87-3Z"/>
          <path class="cls-20" d="M244.41,484.27c-3.27,3.72-6.7,7.79-7.21,12.72-.33,3.16,.6,6.32,1.78,9.27,3.8,9.44,10.64,17.85,19.74,22.36,9.11,4.51,20.53,4.69,29.2-.61,6.21-3.8,10.58-9.94,14.42-16.14,2.16-3.49,4.29-7.4,3.75-11.48-.29-2.23-1.37-4.28-2.55-6.19-6.74-10.89-17.83-18.88-30.13-22.26-4.2-1.15-10.98-3.1-15.33-1.62-5.47,1.86-10.02,9.79-13.67,13.95Z"/>
          <path class="cls-13" d="M267.15,506.39c-6.64-3.4-12.88-7.95-16.99-14.18-1.92-2.9-3.32-6.18-4-9.59-.03-.14-.05-.28-.06-.44-.58,.75-1.15,1.46-1.69,2.08-3.27,3.72-6.7,7.79-7.21,12.72-.33,3.16,.6,6.32,1.78,9.27,3.8,9.44,10.64,17.85,19.74,22.36,9.11,4.51,20.53,4.69,29.2-.61,5.36-3.28,9.35-8.31,12.81-13.61-11.61,.04-23.23-2.71-33.57-8Z"/>
          <path class="cls-10" d="M289.21,432.08c-3.09,2.13-6.11,4.49-8.22,7.6-2.11,3.1-3.23,7.07-2.22,10.69,.7,2.5,2.33,4.62,3.92,6.67,2.33,3,4.66,6,6.99,9.01,3.17,4.08,6.85,8.48,11.96,9.23,3.51,.52,7.02-.83,10.24-2.32,3.94-1.83,7.75-3.93,11.4-6.27,3.09-1.99,6.13-4.21,8.23-7.23,2.1-3.02,3.14-6.98,1.92-10.45-.73-2.07-2.17-3.8-3.58-5.47-5.19-6.15-10.78-12.68-18.12-16.32-8.51-4.23-15.19-.15-22.53,4.89Z"/>
          <path class="cls-13" d="M318.09,469.77c-8.94-5.95-20.25-9.21-25.44-18.49-3.01-5.38-2.53-10.64-1.87-16.48,.15-1.33,.25-2.67,.1-3.86-.56,.37-1.11,.75-1.68,1.14-3.09,2.13-6.11,4.49-8.22,7.6-2.11,3.1-3.23,7.07-2.22,10.69,.7,2.5,2.33,4.62,3.92,6.67,2.33,3,4.66,6,6.99,9.01,3.17,4.08,6.85,8.48,11.96,9.23,3.51,.52,7.02-.83,10.24-2.32,2.11-.98,4.18-2.04,6.21-3.17Z"/>
          <path class="cls-2" d="M254.01,361.4c2.15-.56,4.61-1.04,6.46,.19,1.07,.72,1.73,1.9,2.34,3.04,6.1,11.55,10.7,23.89,13.65,36.61,.32,1.37,.61,2.79,.29,4.16-.39,1.67-1.64,2.98-2.89,4.15-9.42,8.84-21.82,14.45-34.68,15.67-2.21,.21-4.58,.26-6.49-.88-1.56-.94-2.57-2.54-3.51-4.1-5.8-9.67-19.14-29.12-13.9-41.04,5.11-11.63,28-15.02,38.73-17.81Z"/>
          <path class="cls-13" d="M241.59,409.65c-6.43-6.45-9.95-15.22-12.56-23.95-1.14-3.82-1.94-10.46-3.57-15.79-4.66,2.35-8.45,5.34-10.18,9.29-5.23,11.92,8.11,31.37,13.9,41.04,.93,1.56,1.95,3.16,3.51,4.1,1.9,1.14,4.27,1.09,6.49,.88,8.42-.8,16.64-3.49,23.96-7.73-7.69,1.27-15.95-2.22-21.55-7.85Z"/>
          <path class="cls-19" d="M264.66,431.35c-3.15-11.82-11.06-29,.98-37.94,5.51-4.09,11.46-4.34,17.95-4.72,7.43-.44,14.89-1.68,22.28-2.54,1.02-.12,2.11-.23,3.04,.21,.94,.44,1.56,1.36,2.04,2.28,2.31,4.42,2.55,9.6,2.74,14.58,.26,6.75,.52,13.5,.78,20.24,.06,1.54,.1,3.18-.67,4.52-.56,.97-1.48,1.66-2.39,2.3-11.02,7.59-24.97,9.56-38.34,9.43-.97,0-1.96-.03-2.89-.32-3.24-1.01-4.64-4.75-5.52-8.03Z"/>
          <path class="cls-13" d="M288.5,436.74c-6.22-2.22-12.06-6.54-14.37-12.74-1.41-3.79-1.4-7.95-1.37-12,.03-4.59,.07-9.18,.1-13.77,0-1.19,.51-5.24,.57-8.4-2.69,.65-5.29,1.71-7.79,3.57-12.03,8.94-4.13,26.12-.98,37.94,.88,3.28,2.28,7.02,5.52,8.03,.93,.29,1.92,.31,2.89,.32,6.21,.06,12.53-.34,18.64-1.54-.99-.6-2.15-1.05-3.2-1.42Z"/>
          <path class="cls-19" d="M286.39,468.57c-2.76,2.33-5.58,4.97-6.43,8.48-1.33,5.45,2.45,10.71,6,15.06,2.13,2.61,4.26,5.21,6.39,7.82,3.04,3.72,6.64,7.74,11.43,8.08,7.55,.52,15.78-6.87,20.67-11.8,1.51-1.52,2.94-3.14,3.98-5.02,3.28-5.93,2.01-13.55-1.46-19.37-3.57-5.99-13.16-17.24-21.09-16.79-5.98,.34-15.08,9.82-19.49,13.54Z"/>
          <path class="cls-13" d="M316.99,502.49c-.58-.88-1.55-1.39-2.48-1.88-6.48-3.39-13.02-7.14-17.52-12.91-4.5-5.77-6.53-14.04-3.16-20.53,3.15-6.05,9.62-7.72,14.08-12.01-.69-.12-1.37-.17-2.04-.13-5.98,.34-15.08,9.82-19.49,13.54-2.76,2.33-5.57,4.97-6.43,8.48-1.33,5.45,2.45,10.71,6,15.06,2.13,2.61,4.26,5.21,6.39,7.82,3.04,3.72,6.64,7.74,11.43,8.08,4.49,.31,9.22-2.18,13.34-5.29-.04-.08-.08-.15-.13-.22Z"/>
          <path class="cls-19" d="M340.3,431.55c.95-.28,1.97-.52,2.93-.28,.95,.24,1.72,.93,2.44,1.6,5.35,4.98,10.28,10.39,14.74,16.18,1.86,2.41,3.66,4.94,4.63,7.82,.97,2.89,1.01,6.22-.54,8.84-1.17,1.96-3.08,3.33-4.87,4.74-2.88,2.28-5.57,4.84-8.71,6.76-3.14,1.92-6.87,3.17-10.49,2.5-3.15-.58-5.86-2.54-8.27-4.65-4.62-4.04-8.59-8.84-11.7-14.14-1.62-2.76-3.03-5.8-2.92-9,.33-9.1,15.28-18.16,22.76-20.37Z"/>
          <path class="cls-13" d="M355.67,473.73c-.89-.68-2.07-1.17-3.14-1.5-8.37-2.62-17.27-6.04-21.94-13.47-2.96-5.92-3.91-11.78-2.09-18.28,.24-.85,1.2-2.57,1.99-4.27-6.45,4.01-12.74,9.86-12.95,15.73-.12,3.2,1.3,6.24,2.92,9,3.11,5.3,7.07,10.1,11.7,14.14,2.41,2.11,5.13,4.07,8.27,4.65,3.62,.67,7.35-.59,10.49-2.5,1.68-1.03,3.23-2.24,4.75-3.49Z"/>
          <path class="cls-2" d="M234.13,558.52c-1.35,2.37-2.73,5.19-1.69,7.72,.61,1.5,1.96,2.55,3.26,3.52,10.16,7.59,21.09,14.74,33.49,17.4,3.16,.68,6.46,1.05,9.63,.39,7.76-1.62,12.89-8.84,17.12-15.55,2.25-3.58,4.55-7.41,4.58-11.64,.03-3.96-1.94-7.63-3.89-11.07-3.48-6.12-7.13-12.2-11.79-17.48-4.58-5.19-11.19-9.83-17.93-8.29-7.19,1.64-11.94,9.3-17.73,13.37-6.92,4.87-10.76,14.12-15.04,21.63Z"/>
          <path class="cls-13" d="M290.61,579.56c-14.39-4.91-29.62-7.97-42.26-16.34-.52-.34-1.04-.71-1.38-1.23-.48-.74-.5-1.68-.51-2.57-.03-3.09-.06-6.22,.75-9.2,.78-2.88,2.31-5.48,3.88-8.01,2.66-4.28,5.5-8.48,8.83-12.28,1.16-1.32,5-4.04,7.33-6.47-.11,.02-.23,.03-.34,.06-7.19,1.64-11.94,9.3-17.73,13.37-6.92,4.87-10.76,14.12-15.04,21.63-1.35,2.37-2.73,5.19-1.7,7.72,.61,1.5,1.96,2.55,3.26,3.52,10.16,7.59,21.09,14.74,33.49,17.4,3.16,.68,6.46,1.05,9.63,.39,4.8-1,8.59-4.15,11.79-7.99Z"/>
          <path class="cls-20" d="M184.38,370.3c5.91-2.42,12.04-4.87,18.42-4.74,1.48,.03,3.02,.22,4.28,1,1.52,.94,2.42,2.6,3.23,4.19,4.71,9.26,8.54,18.96,11.41,28.94,1.13,3.91,2.06,8.31,.1,11.88-1.15,2.09-3.13,3.56-5.09,4.92-9.95,6.91-20.77,12.56-32.12,16.78-2.42,.9-5.2,1.71-7.47,.48-1.44-.78-2.36-2.23-3.2-3.64-6.57-11.12-11.46-23.23-14.45-35.79-3.74-15.72,13.59-19.42,24.88-24.03Z"/>
          <path class="cls-19" d="M223.34,455.53c2.82-2.27,5.98-4.52,9.6-4.67,5.94-.23,10.43,5.12,13.91,9.95,5.04,6.99,10.08,13.98,15.12,20.98,2.49,3.46,5.08,7.17,5.33,11.42,.32,5.56-3.38,10.45-6.88,14.78-4.36,5.38-8.83,10.86-14.66,14.6-5.83,3.75-13.34,5.54-19.77,2.96-5.01-2.02-8.68-6.34-12.13-10.5-3.42-4.12-6.84-8.24-10.25-12.37-5.97-7.19-10.05-14.27-4.13-22.53,6.62-9.24,15.04-17.52,23.87-24.62Z"/>
          <path class="cls-13" d="M227.07,515.15c-5.97-5.72-12.23-11.94-13.95-20.03-1.98-9.28,2.59-18.82,8.78-26.01,4.34-5.03,9.47-9.26,14.33-13.77,1.01-.94,1.91-1.88,2.63-2.81-1.8-1.1-3.76-1.76-5.92-1.67-3.62,.14-6.78,2.39-9.6,4.67-8.83,7.1-17.25,15.39-23.87,24.62-5.92,8.26-1.83,15.33,4.13,22.53,3.42,4.12,6.84,8.24,10.25,12.37,3.45,4.16,7.11,8.48,12.13,10.5,4.53,1.82,9.6,1.46,14.24-.22-4.96-2.39-9.14-6.33-13.15-10.18Z"/>
          <path class="cls-13" d="M187.8,432.03c-.26-.56-.57-1.09-.89-1.61-7.2-12.09-11.95-25.62-13.99-39.54-.4-2.7,.24-10.92-.23-16.07-8.47,3.64-15.75,8.77-13.19,19.51,2.99,12.56,7.88,24.68,14.45,35.79,.83,1.41,1.76,2.87,3.2,3.64,2.27,1.23,5.05,.41,7.47-.48,1.07-.4,2.12-.82,3.18-1.24Z"/>
        </g>
        <g>
          <path class="cls-13" d="M388.17,567.69c-2.93,27.78-27.79,47.92-55.53,44.99-27.74-2.93-47.86-27.83-44.93-55.61,2.93-27.78,27.79-47.92,55.53-44.99,27.74,2.93,47.86,27.83,44.93,55.61Z"/>
          <path class="cls-4" d="M392.01,568.09c-2.93,27.78-27.79,47.92-55.53,44.99-27.74-2.93-47.86-27.83-44.93-55.61,2.93-27.78,27.79-47.92,55.53-44.99,27.74,2.93,47.86,27.83,44.93,55.61Z"/>
          <path class="cls-1" d="M385.54,567.41c-2.55,24.2-24.2,41.74-48.37,39.19-24.16-2.55-41.68-24.24-39.14-48.43,2.55-24.2,24.2-41.74,48.37-39.19,24.16,2.55,41.68,24.24,39.13,48.43Z"/>
          <path class="cls-6" d="M335.56,543.7c2,.44,4.13,3,6.01,2.98,.78,0,1.43-.57,2.09-.98,2.46-1.52,7.75-1.72,7.78,2.37,0,.64-.16,1.38,.27,1.86,.41,.45,1.1,.39,1.71,.38,1.49-.02,3.03,.48,4.03,1.59,1,1.1,1.32,2.85,.56,4.13-.76,1.28-2.53,2.37-1.99,3.76,1.64,.7,3.1,1.83,4.17,3.26,.77,1.02,1.31,2.54,.48,3.51-.56,.65-1.5,.76-2.25,1.17-1.97,1.07-1.83,3.57-2.08,5.5-.08,.62-.16,1.25-.44,1.8-.55,1.1-1.79,1.71-3.01,1.84-3.42,.36-6.11-1.29-9.4,.8-.94,.6-1.79,1.43-2.89,1.63-1.36,.24-2.7-.58-3.61-1.61-.91-1.03-1.53-2.29-2.41-3.35-1.2-1.45-2.88-2.51-4.71-2.96-2.27-.56-5.15-.46-6.3-2.5-1.25-2.2,.69-5.1-.24-7.46-.52-1.32-1.84-2.16-2.56-3.39-.91-1.56-.65-3.71,.6-5.01,2.11-2.21,4.77,.02,6.52-2.35,1.36-1.84,1.48-4.4,3.27-5.98,1.18-1.03,2.89-1.31,4.42-.98Z"/>
          <path class="cls-1" d="M329.55,564.56c-1.19,.36-2.39,1.4-2.16,2.62,.31,1.63,2.95,1.54,3.95,.69,.38-.32,.65-.74,.89-1.17,.48-.85,1.05-1.89,1.14-2.86-1.01-.18-2.81,.42-3.82,.72Z"/>
          <path class="cls-1" d="M343,565.1c-1.3,.81-2.58,1.71-3.47,2.95s-1.35,2.89-.85,4.34c.5,1.45,2.11,2.53,3.58,2.12,.17-.05,.35-.12,.47-.26,.12-.13,.16-.31,.21-.49,.67-2.78,.68-5.71,.02-8.49"/>
          <path class="cls-1" d="M335.84,548.66c-.49-.42-1.12-.84-1.73-.65-2.55,.83,.81,4.68,1.93,5.26,.55,.29,1.14,.47,1.7,.74,.93,.45,1.74,1.13,2.34,1.97-.19-2.94-2.09-5.45-4.24-7.32Z"/>
          <path class="cls-1" d="M325.14,555.55c-.16,.16-.29,.35-.36,.56-.29,.83,.28,1.75,1.05,2.17,2.33,1.27,6.46,.85,9.01,.84-.34,0-1.64-1.84-1.96-2.13-.62-.58-1-.84-1.78-1.1-1.35-.44-3.33-1.12-4.76-.92-.45,.06-.89,.26-1.21,.58Z"/>
          <path class="cls-1" d="M345.82,549.22c.33-.65,.72-1.3,1.34-1.68,1.21-.75,2.64,.14,2.28,1.59-.11,.45-.4,.84-.68,1.21-1.65,2.15-3.37,4.25-5.09,6.34-.32-2.5,1.05-5.27,2.15-7.46Z"/>
          <path class="cls-1" d="M346.17,562.77c2.84-1.18,6.11-1.32,9.03-.37,.9,.29,1.92,1.33,1.25,1.98-.17,.16-.4,.23-.62,.3-1.57,.47-3.24,.95-4.83,.53-1.81-.47-3.27-2.04-5.13-2.14"/>
          <path class="cls-1" d="M353.95,556.03c-1.33,.8-2.76,1.32-4.28,1.59-.89,.16-2.7,.15-3.4,.72,.58-.47,8.73-6.97,8.63-3.48-.02,.53-.5,.9-.95,1.17Z"/>
          <path class="cls-1" d="M345.67,567.4c.74,1.47,1.68,2.88,2.99,3.88,1.31,.99,3.03,1.53,4.64,1.16-.27-3.74-4.08-6.82-7.78-6.31-.14,.38-.03,.91,.15,1.27Z"/>
        </g>
        <g>
          <path class="cls-13" d="M435.27,568.83c-2.93,27.78-27.79,47.92-55.53,44.99-27.74-2.93-47.86-27.83-44.93-55.61,2.93-27.78,27.79-47.92,55.53-44.99,27.74,2.93,47.86,27.83,44.93,55.61Z"/>
          <path class="cls-4" d="M439.11,569.24c-2.93,27.78-27.79,47.92-55.53,44.99-27.74-2.93-47.86-27.83-44.93-55.61,2.93-27.78,27.79-47.92,55.53-44.99,27.74,2.93,47.86,27.83,44.93,55.61Z"/>
          <path class="cls-1" d="M432.63,568.56c-2.55,24.2-24.2,41.74-48.37,39.19-24.16-2.55-41.68-24.24-39.13-48.43,2.55-24.2,24.2-41.74,48.37-39.19,24.16,2.55,41.68,24.24,39.14,48.43Z"/>
          <path class="cls-6" d="M382.66,544.85c2,.44,4.14,3,6.01,2.98,.78,0,1.43-.57,2.09-.98,2.46-1.52,7.75-1.72,7.78,2.37,0,.64-.16,1.38,.27,1.86,.41,.45,1.1,.39,1.71,.38,1.49-.02,3.03,.48,4.03,1.58,1,1.11,1.32,2.85,.56,4.13-.76,1.28-2.53,2.37-1.99,3.76,1.64,.7,3.1,1.83,4.17,3.26,.77,1.02,1.31,2.54,.48,3.51-.56,.65-1.5,.76-2.25,1.17-1.97,1.07-1.83,3.57-2.08,5.5-.08,.62-.16,1.25-.44,1.8-.55,1.1-1.79,1.71-3.01,1.84-3.42,.36-6.11-1.29-9.4,.8-.94,.6-1.79,1.43-2.89,1.63-1.36,.25-2.7-.58-3.61-1.61-.91-1.03-1.53-2.29-2.41-3.35-1.2-1.45-2.88-2.51-4.71-2.96-2.27-.56-5.15-.46-6.3-2.5-1.25-2.2,.69-5.1-.24-7.46-.52-1.32-1.84-2.16-2.55-3.39-.91-1.56-.65-3.71,.6-5.01,2.11-2.21,4.77,.02,6.52-2.35,1.36-1.84,1.48-4.4,3.27-5.98,1.18-1.03,2.89-1.31,4.42-.98Z"/>
          <path class="cls-1" d="M376.65,565.71c-1.19,.36-2.39,1.4-2.16,2.62,.31,1.63,2.95,1.54,3.95,.69,.38-.32,.65-.74,.89-1.17,.48-.85,1.05-1.89,1.13-2.86-1.01-.18-2.81,.42-3.82,.72Z"/>
          <path class="cls-1" d="M390.09,566.25c-1.3,.81-2.58,1.71-3.47,2.95-.89,1.24-1.35,2.89-.85,4.33,.49,1.45,2.11,2.53,3.58,2.12,.17-.05,.35-.12,.47-.26,.12-.13,.16-.31,.21-.49,.67-2.77,.68-5.71,.02-8.49"/>
          <path class="cls-1" d="M382.94,549.81c-.49-.42-1.12-.84-1.73-.65-2.55,.83,.81,4.68,1.93,5.26,.55,.28,1.14,.47,1.7,.74,.93,.45,1.74,1.13,2.34,1.97-.19-2.94-2.09-5.45-4.24-7.32Z"/>
          <path class="cls-1" d="M372.23,556.7c-.16,.16-.29,.35-.36,.56-.29,.83,.28,1.75,1.05,2.17,2.32,1.27,6.46,.85,9.01,.84-.34,0-1.64-1.84-1.96-2.13-.62-.58-1-.84-1.78-1.1-1.35-.44-3.33-1.12-4.76-.92-.45,.06-.89,.26-1.21,.58Z"/>
          <path class="cls-1" d="M392.92,550.37c.33-.65,.72-1.3,1.34-1.68,1.21-.74,2.64,.14,2.28,1.59-.11,.45-.4,.84-.68,1.21-1.65,2.15-3.37,4.25-5.09,6.34-.32-2.5,1.05-5.27,2.15-7.46Z"/>
          <path class="cls-1" d="M393.27,563.92c2.84-1.18,6.11-1.32,9.03-.37,.9,.29,1.92,1.32,1.24,1.98-.17,.16-.4,.23-.62,.3-1.57,.47-3.24,.95-4.83,.53-1.81-.47-3.27-2.04-5.13-2.14"/>
          <path class="cls-1" d="M401.04,557.18c-1.33,.8-2.76,1.32-4.28,1.59-.89,.16-2.7,.15-3.4,.72,.58-.47,8.73-6.97,8.63-3.48-.02,.52-.5,.9-.95,1.17Z"/>
          <path class="cls-1" d="M392.77,568.55c.73,1.47,1.68,2.88,2.99,3.88,1.31,.99,3.03,1.53,4.64,1.16-.27-3.74-4.08-6.82-7.78-6.31-.14,.38-.03,.91,.15,1.27Z"/>
        </g>
        <g>
          <path class="cls-13" d="M477.06,562.79c-2.93,27.78-27.79,47.92-55.53,44.99-27.74-2.93-47.86-27.83-44.93-55.61,2.93-27.78,27.79-47.92,55.53-44.99,27.74,2.93,47.86,27.83,44.93,55.61Z"/>
          <path class="cls-4" d="M480.91,563.2c-2.93,27.78-27.79,47.92-55.53,44.99-27.74-2.93-47.86-27.83-44.93-55.61,2.93-27.78,27.79-47.92,55.53-44.99,27.74,2.93,47.86,27.83,44.93,55.61Z"/>
          <path class="cls-1" d="M474.43,562.52c-2.55,24.2-24.2,41.74-48.37,39.19-24.16-2.55-41.68-24.24-39.14-48.43,2.55-24.2,24.2-41.74,48.37-39.19,24.16,2.55,41.68,24.24,39.13,48.43Z"/>
          <path class="cls-6" d="M424.45,538.81c2,.44,4.13,3,6.01,2.98,.78,0,1.43-.57,2.09-.98,2.46-1.52,7.75-1.72,7.78,2.37,0,.64-.16,1.38,.27,1.86,.41,.45,1.1,.39,1.71,.38,1.49-.02,3.03,.48,4.03,1.59,1,1.1,1.32,2.85,.56,4.13-.76,1.28-2.53,2.37-2,3.76,1.64,.7,3.1,1.83,4.17,3.26,.77,1.02,1.31,2.54,.48,3.51-.56,.65-1.51,.76-2.26,1.17-1.97,1.07-1.83,3.57-2.08,5.5-.08,.62-.16,1.25-.44,1.8-.55,1.1-1.79,1.71-3.01,1.84-3.42,.36-6.11-1.29-9.4,.8-.94,.6-1.79,1.43-2.89,1.63-1.36,.25-2.7-.58-3.61-1.61-.91-1.03-1.53-2.29-2.41-3.35-1.2-1.45-2.88-2.51-4.71-2.96-2.27-.56-5.15-.46-6.3-2.5-1.25-2.2,.69-5.1-.25-7.46-.52-1.32-1.84-2.16-2.55-3.39-.91-1.56-.65-3.71,.6-5.01,2.11-2.21,4.77,.02,6.52-2.35,1.36-1.84,1.49-4.4,3.27-5.98,1.18-1.03,2.89-1.31,4.42-.98Z"/>
          <path class="cls-1" d="M418.45,559.67c-1.19,.35-2.39,1.4-2.16,2.62,.31,1.63,2.95,1.54,3.95,.69,.38-.32,.65-.74,.89-1.17,.48-.85,1.05-1.88,1.14-2.86-1.01-.18-2.81,.42-3.82,.72Z"/>
          <path class="cls-1" d="M431.89,560.21c-1.3,.81-2.58,1.71-3.47,2.95-.89,1.24-1.35,2.89-.85,4.34,.5,1.45,2.11,2.53,3.58,2.12,.17-.05,.35-.12,.47-.26,.12-.13,.16-.31,.21-.49,.67-2.78,.68-5.71,.02-8.49"/>
          <path class="cls-1" d="M424.73,543.77c-.49-.42-1.12-.84-1.73-.65-2.55,.83,.81,4.68,1.93,5.26,.55,.28,1.14,.47,1.7,.74,.93,.45,1.74,1.13,2.34,1.97-.19-2.94-2.09-5.45-4.24-7.32Z"/>
          <path class="cls-1" d="M414.03,550.66c-.16,.16-.29,.35-.36,.56-.29,.83,.28,1.75,1.05,2.17,2.33,1.27,6.46,.85,9.01,.84-.34,0-1.64-1.84-1.96-2.13-.62-.58-1-.84-1.78-1.1-1.35-.44-3.33-1.12-4.76-.92-.45,.06-.89,.26-1.21,.58Z"/>
          <path class="cls-1" d="M434.71,544.33c.33-.65,.72-1.3,1.34-1.68,1.21-.74,2.64,.14,2.28,1.59-.11,.45-.4,.84-.68,1.21-1.65,2.15-3.37,4.25-5.09,6.34-.32-2.5,1.05-5.27,2.15-7.46Z"/>
          <path class="cls-1" d="M435.06,557.88c2.84-1.18,6.11-1.32,9.03-.37,.9,.29,1.92,1.33,1.25,1.98-.17,.16-.4,.23-.62,.3-1.57,.47-3.24,.95-4.83,.53-1.81-.47-3.27-2.04-5.13-2.14"/>
          <path class="cls-1" d="M442.84,551.14c-1.33,.8-2.76,1.32-4.28,1.59-.89,.16-2.7,.15-3.4,.72,.58-.47,8.73-6.97,8.63-3.48-.02,.52-.5,.9-.95,1.17Z"/>
          <path class="cls-1" d="M434.57,562.51c.74,1.47,1.68,2.88,2.99,3.87,1.31,.99,3.03,1.53,4.64,1.16-.27-3.74-4.08-6.82-7.78-6.31-.14,.38-.03,.91,.15,1.27Z"/>
        </g>
        <g>
          <g>
            <path class="cls-10" d="M550.16,371.67c-9.08,7.46-17.07,16.13-25.02,24.78-16.43,17.85-32.89,35.74-47.43,55.17-2.25,3.01-4.57,6.58-3.71,10.24,26.71-28.07,55.59-54.08,86.28-77.71,9.57-7.37,19.47-14.66,26.66-24.38,2.48-3.35,4.7-7.42,3.84-11.5-2.78-13.18-13.09,.21-16.36,3.62-7.25,7.55-16.2,13.19-24.26,19.8Z"/>
            <path class="cls-19" d="M478.56,454.51s98.93-97.83,117.98-104.29c0,0,7.63,5.78,4.31,12.84,0,0-111.84,87.33-118.24,94.47,0,0-5.38,2.77-4.05-3.02Z"/>
            <path class="cls-20" d="M486.61,459.41s105.22-102.97,118.61-98.62c0,0,4.75,5.47,2.94,11.27l-119.41,92.46s-2.34,.58-2.14-5.11Z"/>
          </g>
          <path class="cls-19" d="M481.03,463.88s108.01-87.67,127.59-92.24c0,0,7.03,6.5,3.04,13.21,0,0-119.83,75.97-126.89,82.44,0,0-5.62,2.23-3.73-3.4Z"/>
          <path class="cls-20" d="M488.56,469.54s114.77-92.18,127.67-86.54c0,0,4.2,5.91,1.82,11.51l-127.86,80.33s-2.39,.35-1.63-5.3Z"/>
          <g>
            <path class="cls-10" d="M569.53,423.75c-11.05,3.97-21.48,9.46-31.87,14.94-21.46,11.3-42.96,22.62-63.16,36.04-3.12,2.08-6.51,4.67-6.92,8.4,34.57-17.47,70.48-32.27,107.31-44.23,11.49-3.73,23.25-7.27,33.28-14.01,3.46-2.32,6.91-5.41,7.47-9.55,1.8-13.35-12.4-4.2-16.62-2.09-9.36,4.68-19.68,6.98-29.48,10.5Z"/>
            <path class="cls-19" d="M474.33,477.75s125.97-58.93,146.07-58.63c0,0,5.26,8.01-.24,13.55,0,0-134.61,44.71-143.03,49.28,0,0-6,.8-2.8-4.2Z"/>
            <path class="cls-20" d="M480.27,485.06s133.62-61.66,144.77-53.07c0,0,2.65,6.75-1.01,11.61l-143.46,47s-2.4-.24-.3-5.54Z"/>
          </g>
          <path class="cls-19" d="M473.53,487.4s131.12-46.32,151.1-44.05c0,0,4.45,8.48-1.56,13.46,0,0-138.33,31.32-147.16,35.05,0,0-6.04,.21-2.38-4.46Z"/>
          <path class="cls-20" d="M478.73,495.26s139-48.29,149.26-38.64c0,0,1.98,6.97-2.14,11.45l-147.36,32.73s-2.36-.48,.24-5.54Z"/>
        </g>
        <g>
          <path class="cls-13" d="M515.07,547.93c-2.93,27.78-27.79,47.92-55.53,44.99-27.74-2.93-47.86-27.83-44.93-55.61,2.93-27.78,27.79-47.92,55.53-44.99,27.74,2.93,47.86,27.83,44.93,55.61Z"/>
          <path class="cls-4" d="M518.91,548.33c-2.93,27.78-27.79,47.92-55.53,44.99-27.74-2.93-47.86-27.83-44.93-55.61,2.93-27.78,27.79-47.92,55.53-44.99,27.74,2.93,47.86,27.83,44.93,55.61Z"/>
          <path class="cls-1" d="M512.43,547.65c-2.55,24.2-24.2,41.74-48.37,39.19-24.16-2.55-41.68-24.24-39.13-48.43,2.55-24.2,24.2-41.74,48.37-39.19,24.16,2.55,41.68,24.24,39.14,48.43Z"/>
          <path class="cls-6" d="M462.45,523.94c2,.44,4.14,3,6.01,2.98,.78,0,1.43-.57,2.09-.98,2.46-1.52,7.75-1.72,7.77,2.37,0,.64-.16,1.38,.27,1.86,.41,.45,1.1,.39,1.71,.38,1.49-.02,3.03,.48,4.03,1.59,1,1.1,1.32,2.85,.56,4.13-.76,1.28-2.53,2.37-1.99,3.76,1.64,.7,3.1,1.83,4.17,3.26,.77,1.02,1.31,2.54,.48,3.51-.56,.65-1.5,.76-2.25,1.17-1.97,1.07-1.83,3.57-2.08,5.5-.08,.62-.16,1.25-.44,1.8-.55,1.1-1.79,1.71-3.01,1.84-3.42,.36-6.11-1.29-9.4,.8-.94,.6-1.79,1.43-2.89,1.63-1.36,.24-2.7-.58-3.61-1.61-.91-1.03-1.53-2.29-2.41-3.35-1.2-1.45-2.88-2.51-4.71-2.96-2.27-.56-5.15-.46-6.3-2.5-1.25-2.2,.69-5.1-.24-7.46-.52-1.32-1.84-2.16-2.55-3.4-.91-1.56-.65-3.71,.6-5.01,2.11-2.21,4.77,.02,6.52-2.35,1.36-1.84,1.48-4.4,3.27-5.98,1.18-1.03,2.89-1.31,4.42-.98Z"/>
          <path class="cls-1" d="M456.45,544.81c-1.19,.36-2.39,1.4-2.16,2.62,.31,1.63,2.95,1.54,3.95,.69,.38-.32,.65-.74,.89-1.17,.48-.85,1.05-1.89,1.13-2.86-1.01-.18-2.81,.42-3.82,.72Z"/>
          <path class="cls-1" d="M469.89,545.34c-1.3,.8-2.58,1.71-3.47,2.95-.89,1.24-1.35,2.89-.85,4.34,.49,1.45,2.11,2.53,3.58,2.12,.17-.05,.35-.12,.47-.26,.12-.13,.16-.31,.21-.49,.67-2.77,.68-5.71,.02-8.49"/>
          <path class="cls-1" d="M462.74,528.9c-.49-.42-1.12-.84-1.73-.65-2.55,.83,.81,4.68,1.93,5.26,.55,.29,1.14,.47,1.7,.74,.93,.45,1.74,1.13,2.34,1.97-.19-2.94-2.09-5.45-4.24-7.32Z"/>
          <path class="cls-1" d="M452.03,535.79c-.16,.16-.29,.35-.36,.56-.29,.83,.28,1.75,1.05,2.17,2.32,1.27,6.46,.85,9.01,.84-.34,0-1.64-1.84-1.96-2.13-.62-.58-1-.84-1.78-1.1-1.35-.44-3.33-1.12-4.76-.92-.45,.06-.89,.26-1.21,.58Z"/>
          <path class="cls-1" d="M472.71,529.46c.33-.65,.72-1.3,1.34-1.68,1.21-.75,2.64,.14,2.28,1.59-.11,.45-.4,.84-.68,1.21-1.65,2.15-3.37,4.25-5.09,6.34-.32-2.5,1.05-5.27,2.15-7.46Z"/>
          <path class="cls-1" d="M473.07,543.01c2.84-1.18,6.11-1.32,9.03-.37,.9,.29,1.92,1.33,1.24,1.98-.17,.16-.4,.23-.62,.3-1.57,.47-3.24,.95-4.83,.53-1.81-.47-3.27-2.04-5.13-2.14"/>
          <path class="cls-1" d="M480.84,536.28c-1.33,.8-2.76,1.32-4.28,1.59-.89,.16-2.7,.15-3.4,.72,.58-.47,8.73-6.97,8.63-3.48-.02,.53-.5,.9-.95,1.17Z"/>
          <path class="cls-1" d="M472.57,547.64c.74,1.47,1.68,2.88,2.99,3.88,1.31,.99,3.03,1.53,4.64,1.16-.27-3.74-4.08-6.82-7.78-6.31-.14,.38-.03,.91,.15,1.27Z"/>
        </g>
        <g>
          <path class="cls-18" d="M216.14,294.9c-3.98,2.76-8.77,1.86-13.04,1.05-2.21-.42-4.31-.82-6.2-.74-3.32,.13-6.51,1.87-9.89,3.71-2.97,1.62-6.05,3.29-9.53,4.07-6.92,1.54-13.65-.82-19.33-3.32l-.08-.03c-1.74-.77-3.55-1.57-4.98-1.3-.99,.19-2.09,.94-3.14,1.67l-13.34,9.2-25.8-22.63c-.46-.4-1.41-1.24-1.89-1.24-.41,0-1.32,.63-1.81,.97l-20.44,14.19-1.59-1.15c-8.54-6.19-15.96-13.67-22.04-22.24l4.57-3.23c5.37,7.57,11.84,14.24,19.26,19.86l17.13-11.89c1.15-.8,2.88-2,5.09-1.99,2.53,.01,4.36,1.62,5.45,2.58l22.58,19.81,9.71-6.7c1.4-.97,3.15-2.18,5.34-2.59,3.14-.59,5.98,.66,8.26,1.67l.08,.03c4.86,2.15,10.55,4.18,15.87,2.99,2.7-.6,5.29-2.01,8.03-3.51,3.81-2.07,7.74-4.22,12.4-4.4,2.53-.1,5.03,.38,7.46,.84,4.47,.85,7.32,1.23,9.24-.51l3.7,3.99c-.35,.32-.71,.6-1.08,.86Z"/>
          <path class="cls-18" d="M218.38,315.06c-5.33-1.5-11.28-.94-16.33,1.53-1.2,.58-2.42,1.28-3.72,2.01-5.18,2.93-11.04,6.24-16.93,3.38-1.15-.56-2.12-1.3-2.97-1.96-.83-.64-1.61-1.24-2.36-1.52-2.55-.95-5.87,1.29-7.18,2.29-.67,.51-1.32,1.06-2.01,1.63-2.26,1.88-4.59,3.83-7.65,4.85-4.54,1.53-9.17,.48-12.89-.36l-15.64-3.54c-9.33-2.11-15.34-1.25-17.87,2.56-.31,.46-.61,1.02-.93,1.61-1.19,2.18-2.82,5.16-6.32,5.63-1.87,.25-3.5-.42-4.58-.87l-40.81-16.85,2.26-5.07,40.81,16.85c.54,.22,1.35,.56,1.72,.51,.62-.09,1.42-1.54,2.06-2.71,.36-.67,.74-1.36,1.18-2.02,5.99-9.03,19.45-5.99,23.87-4.99l15.64,3.54c3.86,.87,7.04,1.47,9.85,.52,2.03-.68,3.86-2.21,5.79-3.82,.71-.59,1.44-1.2,2.19-1.78,4.43-3.39,8.9-4.51,12.59-3.13,1.53,.57,2.72,1.49,3.77,2.3,.71,.55,1.38,1.07,2.04,1.38,3.27,1.59,7.38-.73,11.72-3.19,1.32-.74,2.68-1.51,4.03-2.17,6.29-3.07,13.7-3.77,20.33-1.91l-1.65,5.28Z"/>
          <path class="cls-16" d="M208.49,295.79c-6.47-.2-13.07,2.44-17.68,7.06-.17,.18-.35,.36-.52,.53-1.26,1.3-2.84,2.92-5.11,3.6-2.21,.66-4.35,.19-5.92-.14l-15.01-3.24-18.11,15.84-33.08-14.46c-.71-.31-1.78-.78-2.34-.67-.7,.14-1.45,1.39-2.18,2.59-.48,.79-.98,1.61-1.59,2.39-4.73,5.97-13,5.35-19.68,4.15l-32.64-5.88,1.14-5.39,32.64,5.88c7.61,1.37,11.99,.74,14.21-2.06,.39-.5,.78-1.13,1.19-1.81,1.24-2.04,2.78-4.59,5.94-5.24,2.3-.47,4.34,.42,5.69,1.01l29.83,13.04,17.55-15.35,17.78,3.83c1.08,.23,2.31,.5,3.13,.26,.83-.25,1.7-1.15,2.63-2.1,.19-.2,.38-.39,.57-.59,5.7-5.73,13.89-9,21.9-8.75l-.32,5.48Z"/>
          <path class="cls-16" d="M204.79,317.68c-7.03,.43-13.09,4.79-19.51,9.41-6.02,4.32-12.24,8.79-19.7,10.26-6.46,1.27-12.78,.07-18.89-1.09-1.29-.25-2.58-.49-3.87-.71-8.77-1.49-14.86-.75-19.2,2.28-1,.71-1.98,1.58-3.02,2.51-2.71,2.42-5.78,5.16-10.03,5.34-2.72,.12-5.15-.94-6.92-1.71-10.9-4.74-21.6-10.2-31.8-16.24l2.95-4.72c10.01,5.93,20.5,11.29,31.2,15.93,1.66,.72,3.15,1.32,4.49,1.26,2.21-.09,4.18-1.85,6.46-3.89,1.12-1,2.27-2.02,3.54-2.92,7.42-5.24,16.92-4.36,23.43-3.25,1.32,.23,2.65,.48,3.97,.73,5.85,1.11,11.37,2.16,16.77,1.1,6.24-1.23,11.69-5.14,17.46-9.29,6.8-4.89,13.83-9.94,22.5-10.47l.2,5.47Z"/>
          <path class="cls-16" d="M141.48,398.6c-2.11,.62-4.27,.49-5.85,.39l-46.45-2.87,.5-5.47,46.45,2.87c1.89,.12,3.67,.16,4.72-.54,.92-.62,1.59-2.02,2.19-3.25l6.66-13.85c.99-2.06,2.11-4.4,3.84-6.4,5.12-5.93,12.73-6.69,20.09-7.43,2.56-.25,4.97-.5,7.26-.95,10.3-2.02,19.44-9.59,23.29-19.28,.16-.41,.32-.83,.48-1.25,.7-1.86,1.49-3.97,2.98-5.79,3.13-3.82,7.84-4.82,12-5.69,2.58-.54,5.01-1.05,6.99-2.13l2.58,4.78c-2.72,1.48-5.68,2.1-8.55,2.71-3.7,.78-6.89,1.45-8.74,3.71-.9,1.09-1.46,2.6-2.06,4.19-.17,.45-.34,.91-.52,1.35-4.55,11.45-15.35,20.39-27.51,22.78-2.55,.5-5.21,.77-7.79,1.02-6.53,.65-12.7,1.27-16.32,5.46-1.24,1.43-2.14,3.32-3.02,5.15l-6.66,13.85c-.82,1.7-1.94,4.04-4.16,5.52-.77,.51-1.58,.87-2.4,1.11Z"/>
          <path class="cls-18" d="M142.56,404.57c-1.13,.45-2.28,.82-3.41,1.15-9.31,2.7-18.91,3.91-28.53,3.59l.34-5.48c9.03,.3,18.03-.83,26.77-3.37,2.01-.58,4.28-1.32,5.86-2.68,1.75-1.51,2.82-3.86,3.94-6.36l.1-.22c2.27-5.02,4.77-10.02,7.42-14.86,2.73-5,6.1-10.64,11.49-14.27,5.49-3.7,11.91-4.62,18.13-5.51,5.87-.84,11.41-1.64,15.81-4.64,1.91-1.31,3.58-3.02,5.35-4.84,1.33-1.36,2.7-2.77,4.23-4.06,4.98-4.18,10.64-5.58,15.13-3.73l-2.25,5.07c-2.98-1.23-6.79,.64-9.35,2.8-1.31,1.1-2.52,2.35-3.81,3.67-1.89,1.94-3.84,3.95-6.23,5.58-5.5,3.77-11.98,4.69-18.23,5.59-5.83,.84-11.34,1.63-15.74,4.59-4.32,2.91-7.25,7.86-9.67,12.27-2.58,4.72-5.01,9.6-7.23,14.49l-.1,.22c-1.27,2.81-2.71,5.99-5.42,8.33-1.39,1.19-2.96,2.04-4.6,2.7Z"/>
          <path class="cls-16" d="M204.22,300.94c-1.35-1.06-3.43-.6-6.71,.22-2.45,.62-5.22,1.32-8,1-2.75-.32-5.11-1.61-7-2.65l-20.1-11.01c-1.35-.74-2.89-1.58-4.19-1.59-1,0-2.22,.47-3.37,.96-5.56,2.35-10.88,5.31-15.81,8.8l-1.96,1.39-27.35-23.24c-2.45-2.08-4.84-3.93-7.24-3.8-2.07,.11-3.98,1.67-6.2,3.47-1.68,1.36-3.41,2.77-5.49,3.78-5.05,2.44-11.46,2-17.16-1.18-4.77-2.67-8.43-6.75-11.66-10.36l4.6-4.05c3.07,3.43,6.24,6.97,10.16,9.16,3.06,1.71,7.69,2.89,11.49,1.05,1.42-.69,2.8-1.81,4.26-3,2.68-2.18,5.72-4.64,9.81-4.87,4.62-.26,8.19,2.43,11.45,5.2l23.81,20.23c4.73-3.17,9.77-5.89,15.01-8.1,1.68-.71,3.66-1.47,5.84-1.45,2.84,.02,5.17,1.3,7.05,2.33l20.1,11.01c1.59,.87,3.23,1.77,4.81,1.95,1.66,.19,3.66-.31,5.78-.85,3.65-.92,8.2-2.07,11.92,.85l-3.86,4.75Z"/>
          <path class="cls-18" d="M121.92,386.46c-4,1.57-8.46,2.4-12.85,3.08l-16.34,2.54-.72-5.41,16.34-2.54c7.35-1.14,14.86-2.69,18.82-7.79,2.23-2.86,3.22-6.67,4.28-10.69,1.47-5.59,2.98-11.36,8.04-15.15,5.04-3.77,11.11-3.66,16.98-3.55,5.06,.09,9.83,.18,13.33-2.27,.62-.43,1.23-.97,1.87-1.53,1.07-.94,2.29-2.01,3.79-2.79,1.95-1.01,4.02-1.35,5.85-1.65l.35-.06c9.34-1.56,18.37-4.38,26.93-8.41-2.27-.76-4.04-.97-6.08-.09-1.6,.68-3.15,1.43-4.8,2.22-3.31,1.6-6.74,3.26-10.48,4.22-5.69,1.47-11.51,1.21-17.15,.96-6.72-.3-13.07-.58-18.66,2.01-4.65,2.16-8.31,6.11-12.18,10.3-4.59,4.96-9.33,10.1-16.08,12.37-3.54,1.19-7.11,1.41-10.56,1.61l-47.06,2.84-.19-5.47,47.06-2.84c3.08-.19,6.27-.38,9.09-1.33,5.35-1.81,9.4-6.18,13.69-10.82,4.08-4.41,8.3-8.98,13.98-11.61,6.86-3.19,14.2-2.85,21.31-2.54,5.46,.24,10.62,.47,15.48-.78,3.19-.83,6.22-2.29,9.42-3.84,1.64-.79,3.33-1.61,5.06-2.34,5.18-2.17,9.33-.46,13.36,1.2,.81,.34,1.65,.68,2.52,1l5.57,2.07-5.32,2.89c-10.7,5.82-22.18,9.78-34.14,11.77l-.36,.06c-1.55,.26-3.01,.49-4.14,1.09-.88,.45-1.73,1.21-2.64,2-.74,.65-1.5,1.32-2.38,1.93-5.03,3.51-10.96,3.41-16.7,3.3-5.14-.09-9.99-.18-13.45,2.41-3.46,2.59-4.66,7.18-5.94,12.05-1.15,4.39-2.34,8.94-5.28,12.71-2.54,3.27-5.89,5.39-9.63,6.86Z"/>
        </g>
        <g>
          <path class="cls-5" d="M334.63,130.5c-1.29-1.18-2.6-2.39-3.45-3.92-.85-1.52-1.19-3.45-.44-5.03,.75-1.58,2.78-2.57,4.35-1.79,1.96,.97,2.06,3.69,1.88,5.87-.16,1.87-.44,3.99-1.97,5.08"/>
          <path class="cls-5" d="M374.61,171.37c.23-2.54,2.15-5.34,4.67-4.97,.45,.07,.9,.24,1.19,.59,.19,.23,.3,.51,.4,.8,.83,2.61,0,5.53-1.54,7.8-1.59,2.35-3.57,4.05-5.95,5.51,.55-3.25,1.23-6.44,1.23-9.72Z"/>
          <path class="cls-5" d="M422.09,196.93c0-1.89,.22-3.88,1.33-5.41,1.1-1.53,3.32-2.39,4.95-1.45,2.05,1.18,2.49,5.97,.92,7.62-.68,.72-1.63,1.12-2.55,1.51-1.52,.64-3.05,1.27-4.57,1.91-.5,.21-.9,.21-1.11-.29,1.04-1.07,1.02-2.46,1.02-3.89Z"/>
          <path class="cls-5" d="M296.74,187.52c-.41-.46-.82-.93-1.37-1.22-.54-.29-1.24-.37-1.76-.04-.67,.43-.81,1.36-.63,2.13,.18,.77,.6,1.48,1.2,1.99,1.85,1.6,4.62,1.45,6.58,2.93-.7-2.2-2.52-4.08-4.03-5.8Z"/>
          <path class="cls-5" d="M251.3,245.58c-1.02-.21-2.14-.3-3.07,.19-.92,.49-1.49,1.75-.93,2.63,.5,.77,1.56,.9,2.47,.95,1.14,.06,5.61,.6,5.88-1.06,.29-1.8-3.29-2.49-4.36-2.71Z"/>
          <path class="cls-5" d="M362.47,230.5c-.54,1.83-.15,4.21,1.59,4.99,1.46,.66,3.27-.18,4.15-1.52,.89-1.34,1.04-3.03,.98-4.63-.08-2.41,.14-4.86-2.87-3.54-1.83,.81-3.3,2.83-3.86,4.7Z"/>
          <path class="cls-5" d="M222.54,200.87c-.79-.08-1.59-.17-2.38-.25-.63-.07-1.32-.12-1.87,.2-1.04,.61-.98,2.11-.78,3.3,1.3,.19,2.68,.17,3.89-.34,1.16-.49,2.11-1.45,2.61-2.61-.75,.04-1.51-.1-2.19-.42"/>
          <path class="cls-5" d="M262.23,137.43c-1.49-.77-2.62-2.22-3-3.86-.23-1-.07-2.25,.84-2.71,.88-.44,2,.17,2.44,1.04,.45,.88,.4,1.92,.31,2.9-.09,.98-.21,2,.12,2.93"/>
          <path class="cls-5" d="M455.62,281.37c.56-1.61,2.26-2.95,3.89-2.49,.47,1.65-.24,8.07-2.43,8.47-2.37,.43-1.91-4.71-1.47-5.98Z"/>
          <path class="cls-5" d="M296.11,228.36c-1.34-1.28-2.38-2.94-2.65-4.77-.1-.68-.06-1.45,.41-1.94,.61-.64,1.63-.55,2.5-.41,.23,.04,.48,.08,.68,.2,.43,.27,.55,.83,.64,1.32,.51,2.73,1.59,5.15,2.58,7.7-1.39,.52-3.14-1.13-4.16-2.11Z"/>
          <path class="cls-5" d="M376.44,277.54c-1.99-.33-2.24-3.56-4.18-4.1-1.45-.41-2.88,1.22-2.65,2.71,.23,1.49,1.63,2.57,3.09,2.9,1.46,.33,2.99,.06,4.47-.2"/>
          <path class="cls-5" d="M488.25,256.42c-.28,.47-1,.22-1.42-.12-1.28-1.01-2.28-2.37-2.86-3.89-.45-1.19-.46-2.86,.7-3.38,.91-.4,2.01,.25,2.43,1.15,.42,.9,.35,1.95,.25,2.94-.11,.99-.23,2.02,.1,2.96"/>
          <path class="cls-5" d="M497,324.7c1.69-3.45,5.08-6.03,8.86-6.73-.26,1.29,.59,2.84-.28,3.82-.27,.31-.67,.48-1.04,.64-2.27,.96-4.54,1.93-6.81,2.89"/>
          <path class="cls-5" d="M413.42,328.69c-1.69-.76-3.42-1.53-5.26-1.68-1.84-.16-3.85,.41-4.97,1.89-.2,.27-.38,.62-.24,.93,.16,.35,.61,.43,1,.46,3.44,.27,7.19,.45,10.03-1.52"/>
          <path class="cls-5" d="M341.57,316.26c-.72-.97-1.5-1.99-2.64-2.4-.99-.36-2.2-.13-2.93,.62-.74,.76-.91,2.04-.33,2.92,.3,.46,.77,.78,1.24,1.08,2.45,1.56,5.56,3.02,8.48,3.17-.97-1.9-2.54-3.66-3.82-5.4Z"/>
          <path class="cls-5" d="M289.29,280.8c-.77-.15-1.63-.22-2.26,.24-1.16,.84-.6,2.84,.63,3.56,1.23,.73,2.75,.62,4.18,.61,1.64-.01,3.5,.55,5.01,.06-1.6-2.39-4.77-3.93-7.55-4.48Z"/>
          <path class="cls-5" d="M300.08,345.29c.74,.03,1.5,.13,2.11,.54,.61,.41,1.04,1.18,.83,1.89-.28,.96-1.45,1.28-2.45,1.4-2.66,.31-6.62,.64-8.96-.72,1.82-2.3,5.61-3.22,8.46-3.11Z"/>
          <path class="cls-5" d="M346.92,377.97c-.03,.37-.61,.27-.91,.05-2.01-1.47-4.08-3.42-4.11-5.91-.01-1.09,.71-2.39,1.79-2.25,.9,.11,1.36,1.11,1.64,1.97,.8,2.49,1.4,5.03,1.8,7.61"/>
          <path class="cls-5" d="M375.15,403.12c.9-.2,1.99-.35,2.6,.34,2.55,2.89-6.04,4.72-7.95,3.7-4.26-2.29,3.4-3.6,5.35-4.04Z"/>
          <path class="cls-5" d="M428.2,379.25c-1.94-.28-3.71-1.58-4.56-3.36-.57-1.19-.73-2.61-.25-3.84,.48-1.23,1.65-2.21,2.97-2.28,.53-.03,1.13,.13,1.36,.61,.11,.22,.12,.48,.13,.73,.09,2.8,.19,5.59,.28,8.39"/>
          <path class="cls-5" d="M468.18,403.9c1.15-3.55,3.95-6.52,7.42-7.87,.77,.73,.65,2.06,.02,2.92-.63,.86-1.62,1.36-2.58,1.82-1.49,.73-2.98,1.46-4.47,2.19"/>
          <path class="cls-5" d="M488.97,362.83c-.39,.97,0,2.12,.7,2.89,.71,.76,1.7,1.2,2.69,1.54,2.76,.94,6.32,1.52,9.13,.63-2.68-3.39-8.24-5.43-12.52-5.06Z"/>
        </g>
        <g>
          <path class="cls-13" d="M454.44,295.47s2.49,6.99,9.56,5.85c7.07-1.15,69.88-51.74,113.6,1.95,0,0,13.25,4.49,13.5-13.15,.25-17.63-17.06-60.77-72.13-52.44-55.41,8.38-68.94,40.46-64.52,57.79Z"/>
          <path class="cls-1" d="M454.12,289.57s2.49,6.99,9.56,5.85c7.07-1.15,69.88-51.74,113.6,1.95,0,0,13.25,4.49,13.5-13.15,.25-17.63-17.06-60.77-72.13-52.44-55.41,8.38-68.94,40.46-64.52,57.79Z"/>
          <path class="cls-4" d="M453.6,286.86c.62-3.66,1.71-7.25,3.17-10.67,4.69-10.96,13.16-20.27,23.28-26.46,16.59-10.14,36.74-12.8,56.17-12.39,3.03,.06,6.1,.21,8.97,1.2,3.15,1.09,5.85,3.14,8.5,5.15,4.75,3.62,9.53,7.26,13.61,11.63,10.4,11.16,15.34,26.06,18.61,41.13,2.58-1.68,4.76-5.19,4.86-12.24,.25-17.63-17.06-60.77-72.13-52.44-52.64,7.96-67.48,37.31-65.04,55.08Z"/>
          <path class="cls-13" d="M523.23,252.55c-11.44-.94-22.63,3.66-32.6,9.36-4.53,2.59-8.92,5.43-12.98,8.71-6.23,5.02-11.62,11.06-15.96,17.78-.8,1.23-2.32,3.42-3.81,5.91,1.44,.93,3.34,1.52,5.79,1.12,7.07-1.15,69.88-51.74,113.6,1.95,0,0,1.95,.66,4.36,.48-4.22-11.24-9.89-21.85-19.17-29.19-5.81-4.6-12.69-7.61-19.54-10.43-6.34-2.61-12.85-5.11-19.69-5.68Z"/>
        </g>
        <g>
          <path class="cls-13" d="M457.14,302.05s-.14,7.42,6.87,8.86c7.02,1.43,83.64-23.64,105.56,42.06,0,0,10.81,8.89,17.27-7.51,6.46-16.41,5.51-62.89-48.94-74.6-54.79-11.79-78.77,13.42-80.76,31.2Z"/>
          <path class="cls-1" d="M458.93,296.41s-.14,7.42,6.87,8.86c7.02,1.43,83.64-23.64,105.56,42.06,0,0,10.81,8.89,17.27-7.51,6.46-16.41,5.51-62.89-48.94-74.6-54.79-11.79-78.77,13.42-80.76,31.2Z"/>
          <path class="cls-4" d="M459.4,293.7c1.88-3.21,4.16-6.18,6.73-8.85,8.26-8.59,19.46-14.3,31.12-16.5,19.1-3.61,38.88,1.04,56.92,8.31,2.81,1.13,5.64,2.35,7.97,4.29,2.56,2.13,4.37,5.01,6.13,7.83,3.17,5.07,6.35,10.17,8.62,15.7,5.78,14.12,5.15,29.81,2.88,45.06,3-.66,6.28-3.17,8.86-9.73,6.46-16.41,5.51-62.89-48.94-74.6-52.05-11.2-76.29,11-80.3,28.48Z"/>
          <path class="cls-13" d="M536.65,286.26c-10.37-4.93-22.46-4.59-33.79-2.79-5.15,.82-10.26,1.92-15.21,3.55-7.6,2.49-14.78,6.23-21.21,10.97-1.18,.87-3.38,2.38-5.65,4.18,1.02,1.38,2.59,2.6,5.02,3.1,7.02,1.43,83.64-23.64,105.56,42.06,0,0,1.59,1.3,3.91,1.99,.02-12.01-1.54-23.94-7.62-34.1-3.81-6.36-9.18-11.62-14.6-16.68-5.01-4.69-10.22-9.34-16.41-12.28Z"/>
        </g>
        <g>
          <path class="cls-13" d="M444.31,319.54s-1.37,7.3,5.32,9.87c6.68,2.57,86.39-9.48,97.18,58.95,0,0,9.2,10.56,18.27-4.55,9.08-15.11,15.81-61.11-35.96-81.67-52.1-20.69-79.9,.21-84.8,17.41Z"/>
          <path class="cls-1" d="M447,314.28s-1.37,7.3,5.32,9.87c6.68,2.57,86.39-9.48,97.18,58.95,0,0,9.2,10.56,18.27-4.55,9.08-15.11,15.81-61.11-35.96-81.67-52.1-20.69-79.9,.21-84.8,17.41Z"/>
          <path class="cls-4" d="M447.91,311.68c2.38-2.85,5.12-5.4,8.1-7.62,9.56-7.1,21.56-10.88,33.42-11.13,19.43-.4,38.18,7.46,54.76,17.61,2.58,1.58,5.17,3.25,7.15,5.55,2.17,2.53,3.48,5.66,4.76,8.74,2.29,5.52,4.59,11.08,5.91,16.91,3.37,14.88,.16,30.25-4.59,44.92,3.07-.15,6.72-2.08,10.35-8.13,9.08-15.11,15.81-61.11-35.96-81.67-49.49-19.65-77.06-1.78-83.89,14.81Z"/>
          <path class="cls-13" d="M525.32,317.12c-9.41-6.58-21.39-8.25-32.87-8.34-5.21-.04-10.44,.2-15.59,.98-7.9,1.2-15.6,3.7-22.73,7.32-1.31,.66-3.72,1.79-6.26,3.18,.77,1.53,2.12,2.99,4.44,3.88,6.68,2.57,86.39-9.48,97.18,58.95,0,0,1.35,1.55,3.53,2.61,2-11.84,2.43-23.86-1.89-34.89-2.71-6.9-7.14-12.98-11.65-18.86-4.17-5.45-8.54-10.9-14.16-14.83Z"/>
        </g>
        <g>
          <path class="cls-13" d="M428.62,334.82s-1.89,7.18,4.59,10.23c6.48,3.05,86.85-3.19,92.66,65.84,0,0,8.41,11.2,18.55-3.22,10.14-14.42,20.19-59.81-29.96-84.07-50.46-24.41-79.71-5.58-85.84,11.22Z"/>
          <path class="cls-1" d="M431.68,329.76s-1.89,7.18,4.59,10.23c6.48,3.05,86.85-3.19,92.66,65.84,0,0,8.41,11.2,18.55-3.22,10.14-14.41,20.19-59.81-29.96-84.07-50.46-24.41-79.71-5.58-85.84,11.22Z"/>
          <path class="cls-4" d="M432.78,327.24c2.58-2.67,5.5-5.02,8.63-7.01,10.05-6.39,22.29-9.29,34.14-8.67,19.41,1.01,37.54,10.21,53.35,21.54,2.46,1.76,4.92,3.62,6.73,6.06,1.98,2.68,3.06,5.9,4.11,9.06,1.88,5.68,3.78,11.38,4.67,17.3,2.29,15.09-2.03,30.18-7.83,44.47,3.08,.07,6.85-1.59,10.91-7.35,10.14-14.41,20.19-59.81-29.97-84.07-47.94-23.19-76.73-7.36-84.74,8.69Z"/>
          <path class="cls-13" d="M509.59,338.28c-8.91-7.24-20.74-9.78-32.18-10.7-5.2-.42-10.42-.56-15.62-.15-7.97,.62-15.83,2.55-23.2,5.65-1.35,.57-3.84,1.51-6.47,2.72,.66,1.58,1.9,3.14,4.15,4.2,6.48,3.05,86.85-3.19,92.66,65.84,0,0,1.24,1.64,3.33,2.86,2.86-11.67,4.15-23.62,.63-34.94-2.2-7.08-6.18-13.46-10.25-19.66-3.77-5.74-7.72-11.49-13.05-15.81Z"/>
        </g>
        <g>
          <path class="cls-13" d="M417.47,344.37s-3.59,6.5,1.95,11.04c5.54,4.54,84.99,18.16,73.78,86.51,0,0,5.42,12.92,18.78,1.42,13.35-11.5,34.17-53.05-8.54-88.85-42.98-36.02-75.93-24.92-85.97-10.13Z"/>
          <path class="cls-1" d="M421.67,340.23s-3.58,6.5,1.95,11.04c5.54,4.54,84.99,18.16,73.79,86.51,0,0,5.42,12.92,18.78,1.42,13.35-11.5,34.17-53.05-8.54-88.85-42.98-36.02-75.93-24.92-85.97-10.13Z"/>
          <path class="cls-4" d="M423.35,338.04c3.15-1.96,6.55-3.52,10.08-4.69,11.31-3.74,23.88-3.56,35.22-.06,18.58,5.73,33.91,19.08,46.48,33.94,1.96,2.31,3.89,4.72,5.05,7.52,1.27,3.08,1.53,6.47,1.78,9.79,.44,5.96,.88,11.96,.31,17.92-1.46,15.19-9.33,28.77-18.44,41.21,2.96,.82,7.03,.13,12.37-4.46,13.35-11.5,34.17-53.05-8.54-88.85-40.83-34.22-72.61-25.91-84.29-12.31Z"/>
          <path class="cls-13" d="M495.14,367.55c-6.87-9.21-17.73-14.55-28.59-18.25-4.94-1.68-9.97-3.09-15.11-3.97-7.88-1.35-15.97-1.4-23.87-.2-1.45,.22-4.1,.53-6.94,1.06,.25,1.7,1.08,3.51,3,5.09,5.54,4.54,84.99,18.16,73.79,86.51,0,0,.8,1.89,2.53,3.59,5.62-10.61,9.79-21.89,9.14-33.72-.41-7.41-2.71-14.56-5.14-21.57-2.25-6.49-4.69-13.03-8.79-18.53Z"/>
        </g>
        <g>
          <path class="cls-13" d="M404.43,354.23s-5.08,5.41-.84,11.18c4.24,5.78,77.86,38.65,50.11,102.11,0,0,2.06,13.86,17.84,6.03,15.78-7.83,46.21-42.94,13.68-88.2-32.74-45.55-67.41-42.96-80.79-31.11Z"/>
          <path class="cls-1" d="M409.53,351.25s-5.08,5.41-.84,11.18c4.24,5.78,77.86,38.65,50.11,102.11,0,0,2.06,13.86,17.84,6.03,15.78-7.83,46.21-42.94,13.68-88.2-32.74-45.55-67.41-42.96-80.79-31.11Z"/>
          <path class="cls-4" d="M411.7,349.55c3.54-1.12,7.22-1.79,10.92-2.04,11.88-.82,24.01,2.47,34.14,8.67,16.58,10.16,28.14,26.89,36.64,44.4,1.33,2.73,2.6,5.53,3.03,8.54,.47,3.3-.11,6.65-.7,9.93-1.04,5.89-2.1,11.81-4.12,17.44-5.17,14.35-16.15,25.56-28.05,35.35,2.67,1.53,6.78,1.87,13.09-1.26,15.78-7.83,46.21-42.94,13.68-88.2-31.1-43.27-63.95-43.1-78.63-32.82Z"/>
          <path class="cls-13" d="M473.96,395.93c-4.39-10.62-13.58-18.49-23.19-24.77-4.37-2.85-8.9-5.47-13.66-7.59-7.3-3.26-15.13-5.31-23.08-6.11-1.46-.15-4.1-.5-6.99-.7-.17,1.71,.18,3.67,1.65,5.67,4.24,5.77,77.86,38.65,50.11,102.11,0,0,.31,2.03,1.57,4.1,8.06-8.89,14.9-18.79,17.19-30.41,1.44-7.28,.97-14.78,.35-22.18-.58-6.84-1.32-13.79-3.94-20.13Z"/>
        </g>
        <g>
          <path class="cls-13" d="M376.91,374.87s-5.36,5.13-1.43,11.12c3.93,5.99,75.71,42.73,44.64,104.63,0,0,1.32,13.95,17.5,6.97,16.17-6.98,48.42-40.42,18.33-87.35-30.28-47.22-65.04-46.48-79.03-35.36Z"/>
          <path class="cls-1" d="M382.16,372.17s-5.36,5.13-1.43,11.12c3.93,5.99,75.71,42.73,44.64,104.62,0,0,1.32,13.95,17.5,6.97,16.17-6.98,48.42-40.42,18.33-87.35-30.28-47.22-65.04-46.48-79.03-35.36Z"/>
          <path class="cls-4" d="M384.41,370.58c3.59-.93,7.3-1.4,11.02-1.46,11.9-.19,23.85,3.74,33.63,10.47,16.02,11.02,26.68,28.35,34.24,46.28,1.18,2.79,2.31,5.66,2.57,8.68,.29,3.32-.47,6.63-1.22,9.88-1.36,5.82-2.72,11.68-5.04,17.19-5.92,14.06-17.48,24.67-29.88,33.82,2.58,1.67,6.67,2.23,13.14-.56,16.17-6.98,48.42-40.42,18.33-87.35-28.77-44.86-61.58-46.43-76.78-36.95Z"/>
          <path class="cls-13" d="M444.13,420.2c-3.82-10.84-12.58-19.19-21.85-25.97-4.21-3.08-8.6-5.93-13.24-8.31-7.12-3.64-14.83-6.11-22.73-7.33-1.45-.22-4.07-.72-6.94-1.07-.26,1.69-.02,3.67,1.35,5.75,3.93,5.99,75.71,42.73,44.64,104.62,0,0,.2,2.05,1.35,4.18,8.52-8.45,15.87-17.97,18.77-29.45,1.82-7.19,1.75-14.71,1.52-22.13-.22-6.86-.59-13.84-2.87-20.31Z"/>
        </g>
        <g>
          <path class="cls-13" d="M365.95,383.66s-6.61,3.36-4.57,10.24c2.04,6.87,60.17,62.79,12.59,113.07,0,0-2.75,13.74,14.75,11.73,17.49-2.01,58.01-24.71,42.72-78.34-15.39-53.97-48.88-63.3-65.48-56.7Z"/>
          <path class="cls-1" d="M371.75,382.59s-6.61,3.36-4.57,10.24c2.04,6.87,60.17,62.79,12.59,113.07,0,0-2.75,13.74,14.75,11.73,17.5-2.01,58.01-24.71,42.72-78.34-15.39-53.97-48.88-63.3-65.48-56.7Z"/>
          <path class="cls-4" d="M374.37,381.73c3.71,.15,7.4,.77,10.97,1.79,11.45,3.26,21.76,10.48,29.18,19.74,12.16,15.18,17.37,34.85,19.45,54.21,.32,3.02,.58,6.09-.04,9.06-.67,3.26-2.36,6.21-4.02,9.1-2.98,5.18-5.97,10.4-9.78,15-9.72,11.75-23.84,18.57-38.36,23.74,1.99,2.35,5.75,4.06,12.74,3.26,17.5-2.01,58.01-24.71,42.72-78.34-14.62-51.27-45.58-62.25-62.87-57.56Z"/>
          <path class="cls-13" d="M417.25,446.49c-.53-11.48-6.51-22.01-13.44-31.18-3.14-4.16-6.52-8.16-10.28-11.78-5.77-5.54-12.44-10.13-19.65-13.58-1.32-.63-3.69-1.87-6.34-3.03-.74,1.55-1.07,3.51-.37,5.89,2.04,6.87,60.17,62.79,12.59,113.07,0,0-.4,2.02,.09,4.39,10.6-5.63,20.37-12.62,26.46-22.77,3.81-6.36,5.92-13.58,7.83-20.75,1.77-6.63,3.42-13.42,3.1-20.28Z"/>
        </g>
        <g>
          <path class="cls-13" d="M340.74,379.08s-7.04,2.32-6.08,9.42c.97,7.1,49.91,71.24-4.77,113.67,0,0-4.81,13.16,12.79,13.84,17.6,.68,61.09-15.57,54.14-70.91-6.99-55.68-38.68-70.02-56.09-66.03Z"/>
          <path class="cls-1" d="M346.64,378.9s-7.04,2.32-6.08,9.42c.97,7.1,49.91,71.24-4.77,113.67,0,0-4.81,13.16,12.79,13.84,17.6,.68,61.09-15.57,54.14-70.91-6.99-55.68-38.68-70.02-56.09-66.03Z"/>
          <path class="cls-4" d="M349.36,378.45c3.64,.72,7.2,1.89,10.57,3.44,10.82,4.97,19.91,13.67,25.84,23.97,9.71,16.86,11.86,37.1,10.97,56.54-.14,3.03-.36,6.11-1.42,8.95-1.16,3.12-3.28,5.78-5.36,8.39-3.73,4.67-7.48,9.37-11.95,13.34-11.4,10.13-26.39,14.71-41.52,17.61,1.61,2.62,5.06,4.89,12.1,5.16,17.6,.68,61.09-15.57,54.14-70.91-6.64-52.9-35.57-68.48-53.37-66.48Z"/>
          <path class="cls-13" d="M381.88,449c1.22-11.43-3.09-22.74-8.54-32.86-2.47-4.6-5.2-9.06-8.37-13.21-4.86-6.36-10.75-11.91-17.35-16.42-1.21-.83-3.36-2.41-5.8-3.96-.97,1.42-1.6,3.3-1.26,5.77,.97,7.1,49.91,71.24-4.77,113.67,0,0-.7,1.93-.58,4.35,11.33-3.95,22.05-9.36,29.62-18.47,4.74-5.7,7.92-12.52,10.9-19.31,2.76-6.29,5.42-12.74,6.15-19.57Z"/>
        </g>
        <g>
          <path class="cls-15" d="M304.26,294.93c.73,0,1.6,.07,1.98,.69,.32,.52,.15,1.19-.02,1.77-.89,3.06-1.54,6.19-1.94,9.34-.17,1.3-.27,2.7,.32,3.87,.62,1.21,1.88,1.95,3.1,2.54,5.34,2.57,11.4,3.62,17.29,2.99l-4.22,6.96c-4.32,.96-8.71,1.92-13.12,1.63-4.41-.29-8.93-2-11.64-5.51-3.1-4.02-3.27-9.51-3.32-14.59-.07-9.11,3.27-9.62,11.55-9.69Z"/>
          <path class="cls-15" d="M431.08,253.23c-1.48-.61-3.31-.21-4.4,.97-1.09,1.17-1.35,3.04-.63,4.47,1.43,2.84,5.46,2.98,7.9,5.01,3.02,2.52,3.4,7.77,7.08,9.15,2.59-3.46,3.13-8.35,1.36-12.29-1.77-3.94-5.79-6.77-10.09-7.12"/>
          <path class="cls-15" d="M278.51,375.28c.56,5.44,6.7,9.55,11.93,8l.1,7.65c-7.46,1.77-15.57-5.42-14.71-13.05"/>
          <path class="cls-15" d="M476.08,315.56c2.68,9.54-2.41,20.65-11.38,24.84,4.25,.16,8.51,.33,12.76,.49,1.29,.05,2.65,.09,3.8-.51,1.61-.84,2.39-2.71,2.85-4.47,2.52-9.48-.63-20.24-7.86-26.86"/>
          <path class="cls-15" d="M290.69,231.79c-5.24,.04-10.48,.09-15.72,.13l-.02,6.45c4.13-.89,8.26-1.78,12.39-2.67,1.71-.37,3.54-.8,4.7-2.12,1.16-1.31,1.09-3.8-.53-4.45"/>
          <path class="cls-15" d="M375.62,122.65c-7.81-2.89-17.56,2.16-19.72,10.21,4.06-2.59,8.8-4.09,13.61-4.31,2.58-.12,5.19,.12,7.7-.48,2.51-.6,4.99-2.28,5.54-4.8,.56-2.52-1.78-5.51-4.27-4.84"/>
          <path class="cls-15" d="M138.04,241.22c-3.75-3.37-10.22-1.66-13.22,2.41-2.99,4.07-3.23,9.55-2.5,14.55,3.63,.71,7.46,.4,10.93-.89-1.88-3.33-3.8-6.76-4.39-10.54-.58-3.78,.44-8.06,3.51-10.35"/>
          <path class="cls-15" d="M329.11,453.98c9.26-.59,18.55-.6,27.81,0-2.29,5.36-9.13,7.52-14.84,6.35-5.71-1.17-10.54-4.84-15.15-8.4"/>
          <path class="cls-15" d="M479.11,396.64c9.18-4.18,17.08-11.12,22.41-19.7,4.04,3.87,1.84,11.17-2.66,14.48-4.5,3.31-10.35,3.94-15.81,5.16"/>
          <path class="cls-15" d="M238.74,425.98c-5.08-4.15-10.15-8.3-15.23-12.45-2.33-1.9-4.96-3.92-8.07-3.33-1.87,.36-3.37,1.91-3.3,3.81,.06,1.68,1.28,2.48,2.46,3.17,6.96,4.02,14.98,6.19,23.02,6.21"/>
          <path class="cls-15" d="M436.64,529.16c7.02,1.48,14.04-2.32,19.8-6.6,5.76-4.28,11.34-9.34,18.32-10.98,3,7.16-4.65,14.73-12.28,16.11-7.63,1.38-15.54-.74-23.21,.42"/>
          <path class="cls-15" d="M133.15,314.74c-4.87-9.24-5.74-20.5-2.37-30.38-3.11-2.65-8.34-.74-10.32,2.83-1.98,3.57-1.5,8-.41,11.94,1.39,5.05,3.7,9.85,6.77,14.09"/>
          <path class="cls-15" d="M581.26,299.6c3.23-.82,6.65,1.32,8.29,4.22,2.02,3.57,1.9,8.02,1.73,12-.06,1.47,.29,2.96,1.14,4.16,2.1,2.99,5.21,1.93,7.11,.1,4.62-4.46,3.42-12.67-.98-17.36-4.39-4.69-10.93-6.63-17.23-7.9"/>
          <path class="cls-15" d="M463.14,562.59l-18.2-.14c-.85,0-1.71,.28-2.28,.91-1.82,1.98,1.06,4.71,3.5,5.76,4.9,2.13,10.16,4.3,15.42,3.4,5.27-.9,10.11-6.3,8.35-11.35-1.38,0-2.76,0-4.14,.01"/>
          <path class="cls-15" d="M245.05,538.7c1.52,9.99,9.94,18.53,19.89,20.19-3.38,4.36-10.21,5.55-14.86,2.58-4.65-2.97-6.46-9.67-3.94-14.58"/>
        </g>
        <g>
          <path class="cls-17" d="M203.64,442.14c.25,0,.55,.02,.68,.24,.11,.18,.05,.41,0,.61-.3,1.05-.52,2.11-.66,3.19-.06,.45-.09,.92,.11,1.32,.21,.42,.64,.67,1.06,.87,1.82,.88,3.9,1.24,5.91,1.02l-1.44,2.38c-1.48,.33-2.98,.66-4.49,.56-1.51-.1-3.05-.69-3.98-1.88-1.06-1.38-1.12-3.25-1.13-4.99-.03-3.11,1.12-3.29,3.95-3.31Z"/>
          <path class="cls-17" d="M246.99,427.89c-.51-.21-1.13-.07-1.5,.33-.37,.4-.46,1.04-.22,1.53,.49,.97,1.87,1.02,2.7,1.71,1.03,.86,1.16,2.66,2.42,3.13,.89-1.18,1.07-2.85,.46-4.2-.61-1.35-1.98-2.32-3.45-2.43"/>
          <path class="cls-17" d="M194.83,469.61c.19,1.86,2.29,3.26,4.08,2.73l.03,2.62c-2.55,.61-5.32-1.85-5.03-4.46"/>
          <path class="cls-17" d="M262.37,449.2c.92,3.26-.82,7.06-3.89,8.49,1.45,.06,2.91,.11,4.36,.17,.44,.02,.91,.03,1.3-.18,.55-.29,.82-.93,.98-1.53,.86-3.24-.22-6.92-2.69-9.18"/>
          <path class="cls-17" d="M199,420.56c-1.79,.02-3.58,.03-5.37,.05v2.2c1.41-.3,2.82-.61,4.23-.91,.58-.13,1.21-.28,1.61-.72,.4-.45,.37-1.3-.18-1.52"/>
          <path class="cls-17" d="M228.03,383.25c-2.67-.99-6,.74-6.74,3.49,1.39-.88,3.01-1.4,4.65-1.47,.88-.04,1.78,.04,2.63-.16,.86-.2,1.7-.78,1.9-1.64,.19-.86-.61-1.88-1.46-1.65"/>
          <path class="cls-17" d="M146.82,423.78c-1.28-1.15-3.5-.57-4.52,.82-1.02,1.39-1.1,3.26-.85,4.97,1.24,.24,2.55,.14,3.74-.3-.64-1.14-1.3-2.31-1.5-3.6-.2-1.29,.15-2.76,1.2-3.54"/>
          <path class="cls-17" d="M212.13,496.51c3.16-.2,6.34-.2,9.5,0-.78,1.83-3.12,2.57-5.07,2.17-1.95-.4-3.6-1.65-5.18-2.87"/>
          <path class="cls-17" d="M263.41,476.91c3.14-1.43,5.84-3.8,7.66-6.73,1.38,1.32,.63,3.82-.91,4.95-1.54,1.13-3.54,1.35-5.4,1.76"/>
          <path class="cls-17" d="M181.24,486.94c-1.74-1.42-3.47-2.84-5.21-4.26-.8-.65-1.7-1.34-2.76-1.14-.64,.12-1.15,.65-1.13,1.3,.02,.57,.44,.85,.84,1.08,2.38,1.38,5.12,2.12,7.87,2.12"/>
          <path class="cls-17" d="M248.89,522.21c2.4,.51,4.8-.79,6.77-2.26,1.97-1.46,3.88-3.19,6.26-3.75,1.03,2.45-1.59,5.03-4.2,5.51-2.61,.47-5.31-.25-7.93,.14"/>
          <path class="cls-17" d="M145.14,448.91c-1.66-3.16-1.96-7.01-.81-10.39-1.06-.91-2.85-.25-3.53,.97-.68,1.22-.51,2.73-.14,4.08,.48,1.73,1.26,3.37,2.31,4.82"/>
          <path class="cls-17" d="M298.32,443.74c1.1-.28,2.27,.45,2.83,1.44,.69,1.22,.65,2.74,.59,4.1-.02,.5,.1,1.01,.39,1.42,.72,1.02,1.78,.66,2.43,.03,1.58-1.52,1.17-4.33-.33-5.94-1.5-1.6-3.74-2.27-5.89-2.7"/>
          <path class="cls-17" d="M257.95,533.64l-6.22-.05c-.29,0-.58,.1-.78,.31-.62,.68,.36,1.61,1.2,1.97,1.68,.73,3.47,1.47,5.27,1.16,1.8-.31,3.45-2.15,2.85-3.88-.47,0-.94,0-1.42,0"/>
          <path class="cls-17" d="M183.39,525.47c.52,3.41,3.4,6.33,6.8,6.9-1.16,1.49-3.49,1.9-5.08,.88-1.59-1.01-2.21-3.3-1.35-4.98"/>
        </g>
        <g>
          <path class="cls-12" d="M193.27,396.37c-.74-.68-1.49-1.37-1.98-2.25-.49-.87-.68-1.98-.26-2.88,.43-.91,1.6-1.47,2.5-1.03,1.12,.56,1.18,2.12,1.08,3.37-.09,1.07-.25,2.29-1.13,2.91"/>
          <path class="cls-12" d="M216.21,419.82c.13-1.46,1.24-3.07,2.68-2.85,.26,.04,.51,.14,.68,.34,.11,.13,.17,.29,.23,.46,.48,1.5,0,3.17-.88,4.47-.91,1.35-2.05,2.33-3.41,3.16,.31-1.86,.71-3.69,.71-5.58Z"/>
          <path class="cls-12" d="M243.45,434.48c0-1.08,.13-2.23,.76-3.1,.63-.88,1.9-1.37,2.84-.83,1.18,.68,1.43,3.42,.53,4.37-.39,.41-.93,.64-1.46,.86-.87,.37-1.75,.73-2.62,1.1-.29,.12-.51,.12-.64-.17,.59-.61,.59-1.41,.58-2.23Z"/>
          <path class="cls-12" d="M171.53,429.08c-.23-.26-.47-.53-.78-.7-.31-.17-.71-.21-1.01-.02-.38,.24-.46,.78-.36,1.22,.1,.44,.34,.85,.69,1.15,1.06,.92,2.65,.83,3.78,1.68-.4-1.26-1.45-2.34-2.31-3.33Z"/>
          <path class="cls-12" d="M145.46,462.4c-.59-.12-1.23-.17-1.76,.11-.53,.28-.86,1.01-.53,1.51,.29,.44,.89,.52,1.42,.54,.66,.04,3.22,.35,3.37-.61,.17-1.04-1.89-1.43-2.5-1.56Z"/>
          <path class="cls-12" d="M209.24,453.74c-.31,1.05-.08,2.42,.91,2.86,.84,.38,1.87-.1,2.38-.87,.51-.77,.6-1.74,.56-2.66-.05-1.38,.08-2.79-1.65-2.03-1.05,.46-1.9,1.62-2.21,2.7Z"/>
          <path class="cls-12" d="M128.96,436.74c-.46-.05-.91-.1-1.37-.14-.36-.04-.76-.07-1.07,.12-.6,.35-.56,1.21-.45,1.89,.75,.11,1.54,.1,2.23-.2,.66-.28,1.21-.83,1.5-1.5-.43,.02-.87-.06-1.26-.24"/>
          <path class="cls-12" d="M151.73,400.35c-.86-.44-1.5-1.27-1.72-2.21-.13-.57-.04-1.29,.48-1.56,.5-.25,1.15,.1,1.4,.6,.26,.5,.23,1.1,.18,1.66-.05,.56-.12,1.15,.07,1.68"/>
          <path class="cls-12" d="M262.69,482.93c.32-.92,1.3-1.69,2.23-1.43,.27,.95-.14,4.63-1.39,4.86-1.36,.24-1.09-2.7-.84-3.43Z"/>
          <path class="cls-12" d="M171.17,452.52c-.77-.73-1.37-1.68-1.52-2.74-.06-.39-.04-.83,.23-1.11,.35-.37,.94-.31,1.43-.24,.13,.02,.27,.04,.39,.12,.25,.15,.31,.47,.37,.76,.29,1.56,.91,2.95,1.48,4.42-.8,.3-1.8-.65-2.38-1.21Z"/>
          <path class="cls-12" d="M217.26,480.73c-1.14-.19-1.29-2.04-2.4-2.36-.83-.23-1.65,.7-1.52,1.56,.13,.85,.94,1.47,1.78,1.66,.84,.19,1.72,.04,2.56-.12"/>
          <path class="cls-12" d="M281.41,468.61c-.16,.27-.57,.12-.82-.07-.74-.58-1.31-1.36-1.64-2.23-.26-.68-.26-1.64,.4-1.94,.52-.23,1.15,.15,1.4,.66s.2,1.12,.14,1.68c-.06,.57-.13,1.16,.06,1.7"/>
          <path class="cls-12" d="M286.43,507.79c.97-1.98,2.91-3.46,5.08-3.86-.15,.74,.34,1.63-.16,2.19-.16,.18-.38,.28-.6,.37-1.3,.55-2.6,1.11-3.91,1.66"/>
          <path class="cls-12" d="M238.47,510.08c-.97-.44-1.96-.88-3.02-.97-1.06-.09-2.21,.24-2.85,1.08-.12,.15-.22,.36-.14,.53,.09,.2,.35,.25,.57,.27,1.97,.15,4.13,.26,5.75-.87"/>
          <path class="cls-12" d="M197.25,502.95c-.41-.56-.86-1.14-1.51-1.38-.57-.2-1.26-.08-1.68,.36s-.52,1.17-.19,1.67c.17,.26,.44,.45,.71,.62,1.41,.89,3.19,1.73,4.87,1.82-.56-1.09-1.45-2.1-2.19-3.1Z"/>
          <path class="cls-12" d="M167.25,482.61c-.44-.09-.94-.13-1.3,.14-.66,.48-.34,1.63,.36,2.05,.7,.42,1.58,.35,2.4,.35,.94,0,2.01,.32,2.87,.04-.92-1.37-2.74-2.25-4.33-2.57Z"/>
          <path class="cls-12" d="M173.44,519.61c.42,.02,.86,.08,1.21,.31,.35,.23,.59,.68,.47,1.08-.16,.55-.83,.74-1.4,.8-1.53,.18-3.8,.37-5.14-.41,1.05-1.32,3.22-1.85,4.86-1.79Z"/>
          <path class="cls-12" d="M200.32,538.35c-.02,.21-.35,.15-.52,.03-1.15-.85-2.34-1.96-2.36-3.39,0-.63,.41-1.37,1.03-1.29,.51,.06,.78,.64,.94,1.13,.46,1.43,.8,2.89,1.04,4.37"/>
          <path class="cls-12" d="M216.52,552.79c.51-.12,1.14-.2,1.49,.2,1.46,1.66-3.47,2.71-4.56,2.12-2.44-1.32,1.95-2.06,3.07-2.32Z"/>
          <path class="cls-12" d="M246.96,539.09c-1.11-.16-2.13-.91-2.61-1.92-.33-.68-.42-1.5-.14-2.2,.28-.7,.95-1.27,1.7-1.31,.3-.02,.65,.08,.78,.35,.06,.13,.07,.28,.07,.42,.05,1.6,.11,3.21,.16,4.81"/>
          <path class="cls-12" d="M269.89,553.23c.66-2.04,2.26-3.74,4.26-4.52,.44,.42,.37,1.18,.01,1.68-.36,.49-.93,.78-1.48,1.05-.86,.42-1.71,.84-2.57,1.25"/>
          <path class="cls-12" d="M281.82,529.67c-.22,.56,0,1.22,.4,1.66,.41,.44,.98,.69,1.54,.88,1.58,.54,3.62,.87,5.24,.36-1.54-1.95-4.73-3.11-7.18-2.9Z"/>
        </g>
        <g>
          <path class="cls-12" d="M282.72,388.34c-.74-.68-1.49-1.37-1.98-2.25-.49-.88-.68-1.98-.26-2.88,.43-.91,1.6-1.47,2.5-1.03,1.12,.56,1.18,2.12,1.08,3.37-.09,1.07-.25,2.29-1.13,2.91"/>
          <path class="cls-12" d="M305.66,411.79c.13-1.46,1.24-3.07,2.68-2.85,.26,.04,.51,.14,.68,.34,.11,.13,.17,.29,.23,.46,.48,1.5,0,3.17-.88,4.47-.91,1.35-2.05,2.33-3.41,3.16,.31-1.86,.71-3.69,.71-5.58Z"/>
          <path class="cls-12" d="M332.9,426.46c0-1.08,.13-2.23,.76-3.1,.63-.88,1.9-1.37,2.84-.83,1.18,.68,1.43,3.43,.53,4.37-.39,.41-.93,.64-1.46,.86-.87,.37-1.75,.73-2.62,1.1-.29,.12-.51,.12-.64-.17,.59-.61,.59-1.41,.58-2.23Z"/>
          <path class="cls-12" d="M260.98,421.06c-.23-.26-.47-.53-.78-.7-.31-.17-.71-.21-1.01-.02-.38,.24-.46,.78-.36,1.22,.1,.44,.34,.85,.69,1.14,1.06,.92,2.65,.83,3.78,1.68-.4-1.26-1.45-2.34-2.31-3.33Z"/>
          <path class="cls-12" d="M234.91,454.37c-.59-.12-1.23-.17-1.76,.11-.53,.28-.86,1.01-.53,1.51,.29,.44,.89,.52,1.42,.54,.66,.04,3.22,.35,3.37-.61,.17-1.04-1.89-1.43-2.5-1.56Z"/>
          <path class="cls-12" d="M298.69,445.71c-.31,1.05-.08,2.42,.91,2.86,.84,.38,1.87-.1,2.38-.87,.51-.77,.6-1.74,.56-2.66-.05-1.38,.08-2.79-1.65-2.03-1.05,.46-1.9,1.62-2.21,2.7Z"/>
          <path class="cls-12" d="M218.41,428.72c-.46-.05-.91-.1-1.37-.14-.36-.04-.76-.07-1.07,.12-.6,.35-.56,1.21-.45,1.89,.75,.11,1.54,.1,2.23-.2,.66-.28,1.21-.83,1.5-1.5-.43,.02-.87-.06-1.26-.24"/>
          <path class="cls-12" d="M241.18,392.32c-.86-.44-1.5-1.27-1.72-2.21-.13-.57-.04-1.29,.48-1.56,.5-.25,1.15,.1,1.4,.6,.26,.5,.23,1.1,.18,1.66-.05,.56-.12,1.15,.07,1.68"/>
          <path class="cls-12" d="M352.14,474.9c.32-.92,1.3-1.69,2.23-1.43,.27,.95-.14,4.63-1.39,4.86-1.36,.24-1.09-2.7-.84-3.43Z"/>
          <path class="cls-12" d="M260.62,444.49c-.77-.73-1.37-1.68-1.52-2.74-.06-.39-.04-.83,.23-1.11,.35-.37,.94-.31,1.43-.23,.13,.02,.27,.04,.39,.12,.25,.15,.31,.47,.37,.76,.29,1.56,.91,2.95,1.48,4.42-.8,.3-1.8-.65-2.38-1.21Z"/>
          <path class="cls-12" d="M306.71,472.71c-1.14-.19-1.29-2.04-2.4-2.36-.83-.23-1.65,.7-1.52,1.56,.13,.85,.94,1.47,1.78,1.66,.84,.19,1.72,.04,2.56-.12"/>
          <path class="cls-12" d="M370.86,460.59c-.16,.27-.57,.12-.82-.07-.74-.58-1.31-1.36-1.64-2.23-.26-.68-.26-1.64,.4-1.94,.52-.23,1.15,.15,1.39,.66,.24,.52,.2,1.12,.14,1.68-.06,.57-.13,1.16,.06,1.7"/>
          <path class="cls-12" d="M375.88,499.76c.97-1.98,2.91-3.46,5.08-3.86-.15,.74,.34,1.63-.16,2.19-.16,.18-.38,.28-.6,.37-1.3,.55-2.6,1.11-3.91,1.66"/>
          <path class="cls-12" d="M327.92,502.05c-.97-.44-1.96-.88-3.02-.97-1.06-.09-2.21,.24-2.85,1.08-.12,.15-.22,.36-.14,.53,.09,.2,.35,.25,.57,.27,1.97,.15,4.13,.26,5.75-.87"/>
          <path class="cls-12" d="M286.7,494.92c-.41-.56-.86-1.14-1.51-1.38-.57-.2-1.26-.08-1.68,.36-.42,.44-.52,1.17-.19,1.67,.17,.26,.44,.45,.71,.62,1.41,.89,3.19,1.74,4.87,1.82-.56-1.09-1.45-2.1-2.19-3.1Z"/>
          <path class="cls-12" d="M256.7,474.58c-.44-.09-.94-.13-1.3,.14-.66,.48-.34,1.63,.36,2.04,.7,.42,1.58,.35,2.4,.35,.94,0,2.01,.32,2.87,.04-.92-1.37-2.74-2.25-4.33-2.57Z"/>
          <path class="cls-12" d="M262.89,511.58c.42,.02,.86,.08,1.21,.31,.35,.23,.59,.68,.47,1.08-.16,.55-.83,.74-1.4,.8-1.53,.18-3.8,.37-5.14-.41,1.05-1.32,3.22-1.85,4.86-1.79Z"/>
          <path class="cls-12" d="M289.77,530.33c-.02,.21-.35,.15-.52,.03-1.15-.85-2.34-1.96-2.36-3.39,0-.62,.41-1.37,1.03-1.29,.51,.06,.78,.64,.94,1.13,.46,1.43,.8,2.89,1.04,4.37"/>
          <path class="cls-12" d="M305.97,544.76c.51-.12,1.14-.2,1.49,.2,1.46,1.66-3.47,2.71-4.56,2.12-2.44-1.32,1.95-2.06,3.07-2.32Z"/>
          <path class="cls-12" d="M336.41,531.06c-1.11-.16-2.13-.91-2.61-1.93-.33-.68-.42-1.5-.14-2.2,.28-.7,.95-1.27,1.7-1.31,.3-.02,.65,.08,.78,.35,.06,.13,.07,.28,.07,.42,.05,1.6,.11,3.21,.16,4.81"/>
          <path class="cls-12" d="M359.34,545.21c.66-2.04,2.26-3.74,4.26-4.52,.44,.42,.37,1.18,.01,1.68-.36,.49-.93,.78-1.48,1.05-.86,.42-1.71,.84-2.57,1.25"/>
          <path class="cls-12" d="M371.27,521.64c-.22,.56,0,1.22,.4,1.66,.41,.44,.98,.69,1.54,.88,1.58,.54,3.62,.87,5.24,.36-1.54-1.95-4.73-3.11-7.18-2.9Z"/>
        </g>
        <g>
          <path class="cls-12" d="M319.75,162.95c-.74-.68-1.49-1.37-1.98-2.25-.49-.87-.68-1.98-.26-2.88,.43-.91,1.6-1.47,2.5-1.03,1.12,.56,1.18,2.12,1.08,3.37-.09,1.07-.25,2.29-1.13,2.91"/>
          <path class="cls-12" d="M342.68,186.4c.13-1.46,1.23-3.07,2.68-2.85,.26,.04,.51,.14,.68,.34,.11,.13,.17,.29,.23,.46,.48,1.5,0,3.17-.88,4.47-.91,1.35-2.05,2.33-3.41,3.16,.31-1.86,.71-3.69,.71-5.58Z"/>
          <path class="cls-12" d="M369.93,201.07c0-1.08,.13-2.23,.76-3.1,.63-.88,1.9-1.37,2.84-.83,1.18,.68,1.43,3.43,.53,4.37-.39,.41-.93,.64-1.46,.86-.87,.36-1.75,.73-2.62,1.1-.29,.12-.51,.12-.63-.17,.59-.61,.58-1.41,.58-2.23Z"/>
          <path class="cls-12" d="M298,195.67c-.23-.26-.47-.53-.78-.7-.31-.17-.71-.21-1.01-.02-.38,.24-.46,.78-.36,1.22,.1,.44,.34,.85,.69,1.14,1.06,.92,2.65,.83,3.78,1.68-.4-1.26-1.45-2.34-2.31-3.33Z"/>
          <path class="cls-12" d="M271.94,228.98c-.59-.12-1.23-.17-1.76,.11-.53,.28-.86,1.01-.53,1.51,.29,.44,.89,.52,1.42,.54,.66,.04,3.22,.35,3.37-.61,.17-1.04-1.89-1.43-2.5-1.56Z"/>
          <path class="cls-12" d="M335.72,220.33c-.31,1.05-.08,2.42,.91,2.86,.84,.38,1.87-.1,2.38-.87,.51-.77,.6-1.74,.56-2.66-.05-1.39,.08-2.79-1.65-2.03-1.05,.46-1.9,1.62-2.21,2.7Z"/>
          <path class="cls-12" d="M255.43,203.33c-.46-.05-.91-.1-1.37-.14-.36-.04-.76-.07-1.07,.12-.6,.35-.56,1.21-.45,1.9,.75,.11,1.54,.1,2.23-.2,.66-.28,1.21-.83,1.5-1.5-.43,.02-.87-.06-1.26-.24"/>
          <path class="cls-12" d="M278.2,166.93c-.86-.44-1.5-1.27-1.72-2.21-.13-.57-.04-1.29,.48-1.56,.5-.25,1.15,.1,1.4,.6,.26,.5,.23,1.1,.18,1.66-.05,.56-.12,1.15,.07,1.68"/>
          <path class="cls-12" d="M389.16,249.52c.32-.92,1.3-1.69,2.23-1.43,.27,.95-.14,4.63-1.39,4.86-1.36,.24-1.09-2.7-.84-3.43Z"/>
          <path class="cls-12" d="M297.64,219.1c-.77-.73-1.37-1.68-1.52-2.74-.06-.39-.04-.83,.23-1.11,.35-.37,.94-.31,1.43-.23,.13,.02,.27,.04,.39,.12,.25,.15,.31,.47,.37,.76,.29,1.56,.91,2.95,1.48,4.42-.8,.3-1.8-.65-2.38-1.21Z"/>
          <path class="cls-12" d="M343.74,247.32c-1.14-.19-1.29-2.04-2.4-2.35-.83-.23-1.65,.7-1.52,1.55,.13,.85,.94,1.47,1.78,1.66,.84,.19,1.72,.04,2.56-.12"/>
          <path class="cls-12" d="M407.89,235.2c-.16,.27-.57,.12-.82-.07-.74-.58-1.31-1.36-1.64-2.23-.26-.68-.27-1.64,.4-1.94,.52-.23,1.15,.15,1.4,.66,.24,.52,.2,1.12,.14,1.68-.06,.57-.13,1.16,.06,1.7"/>
          <path class="cls-12" d="M412.91,274.38c.97-1.98,2.91-3.46,5.08-3.86-.15,.74,.34,1.63-.16,2.19-.16,.18-.38,.28-.6,.37-1.3,.55-2.6,1.11-3.91,1.66"/>
          <path class="cls-12" d="M364.95,276.67c-.97-.44-1.96-.88-3.02-.97-1.06-.09-2.21,.24-2.85,1.08-.12,.15-.22,.36-.14,.53,.09,.2,.35,.25,.57,.27,1.98,.15,4.13,.26,5.75-.87"/>
          <path class="cls-12" d="M323.73,269.53c-.41-.56-.86-1.14-1.51-1.38-.57-.2-1.26-.08-1.68,.36-.42,.43-.52,1.17-.19,1.67,.18,.26,.44,.45,.71,.62,1.41,.89,3.19,1.74,4.87,1.82-.56-1.09-1.45-2.1-2.19-3.1Z"/>
          <path class="cls-12" d="M293.73,249.19c-.44-.09-.94-.13-1.3,.14-.66,.48-.34,1.63,.36,2.04,.7,.42,1.58,.35,2.4,.35,.94,0,2.01,.32,2.87,.04-.92-1.37-2.74-2.25-4.33-2.57Z"/>
          <path class="cls-12" d="M299.92,286.19c.42,.02,.86,.08,1.21,.31,.35,.23,.59,.68,.47,1.08-.16,.55-.83,.74-1.4,.8-1.53,.18-3.8,.37-5.14-.41,1.05-1.32,3.22-1.85,4.85-1.79Z"/>
          <path class="cls-12" d="M326.8,304.94c-.02,.21-.35,.15-.52,.03-1.15-.85-2.34-1.96-2.36-3.39,0-.62,.41-1.37,1.03-1.29,.51,.06,.78,.64,.94,1.13,.46,1.43,.8,2.89,1.04,4.37"/>
          <path class="cls-12" d="M343,319.37c.51-.12,1.14-.2,1.49,.2,1.46,1.66-3.47,2.71-4.56,2.12-2.44-1.32,1.95-2.06,3.07-2.32Z"/>
          <path class="cls-12" d="M373.43,305.67c-1.11-.16-2.13-.91-2.61-1.93-.33-.68-.42-1.5-.14-2.2,.28-.7,.95-1.27,1.7-1.31,.3-.02,.65,.08,.78,.35,.06,.13,.07,.28,.08,.42,.05,1.6,.11,3.21,.16,4.81"/>
          <path class="cls-12" d="M396.37,319.82c.66-2.04,2.26-3.74,4.26-4.52,.44,.42,.37,1.18,.01,1.68-.36,.49-.93,.78-1.48,1.05-.86,.42-1.71,.84-2.57,1.25"/>
          <path class="cls-12" d="M408.3,296.25c-.22,.56,0,1.22,.4,1.66,.41,.44,.98,.69,1.55,.88,1.58,.54,3.62,.87,5.24,.36-1.54-1.95-4.73-3.11-7.18-2.9Z"/>
        </g>
        <g>
          <path class="cls-12" d="M220.31,224.73c.16-.99,.34-2,.8-2.89,.46-.89,1.28-1.65,2.27-1.79,.99-.14,2.1,.54,2.22,1.53,.15,1.25-1.13,2.15-2.23,2.74-.95,.51-2.05,1.04-3.05,.64"/>
          <path class="cls-12" d="M213.19,256.77c1.29-.69,3.24-.64,3.85,.7,.11,.24,.16,.51,.09,.76-.05,.16-.15,.31-.26,.44-1,1.22-2.65,1.73-4.23,1.7-1.62-.03-3.06-.45-4.51-1.14,1.73-.75,3.48-1.42,5.05-2.45Z"/>
          <path class="cls-12" d="M215.78,287.64c.91-.59,1.93-1.11,3.01-1.05,1.08,.05,2.19,.85,2.25,1.93,.08,1.36-2.09,3.07-3.37,2.83-.56-.1-1.05-.43-1.52-.75-.78-.53-1.56-1.07-2.35-1.6-.26-.18-.38-.37-.21-.62,.84,.17,1.5-.28,2.18-.73Z"/>
          <path class="cls-12" d="M181.07,224.33c.09-.34,.19-.69,.16-1.04s-.21-.71-.53-.86c-.41-.19-.91,.04-1.22,.36-.31,.33-.52,.75-.58,1.2-.19,1.39,.75,2.68,.65,4.09,.83-1.03,1.17-2.49,1.52-3.75Z"/>
          <path class="cls-12" d="M138.97,220.62c-.22-.56-.53-1.13-1.05-1.42-.52-.29-1.31-.17-1.55,.38-.21,.48,.06,1.03,.32,1.49,.33,.57,1.47,2.89,2.35,2.5,.96-.43,.17-2.37-.06-2.95Z"/>
          <path class="cls-12" d="M181,269.43c-1.05,.31-2.07,1.25-1.9,2.33,.14,.91,1.11,1.52,2.03,1.52,.92,0,1.78-.45,2.53-.98,1.13-.79,2.38-1.45,.8-2.49-.96-.63-2.39-.71-3.46-.39Z"/>
          <path class="cls-12" d="M151.44,192.78c-.21-.41-.42-.82-.63-1.22-.17-.33-.35-.67-.68-.84-.62-.31-1.32,.19-1.83,.66,.32,.69,.75,1.34,1.38,1.77,.6,.4,1.36,.56,2.07,.44-.25-.35-.42-.76-.49-1.19"/>
          <path class="cls-12" d="M194.32,192.03c-.1-.96,.25-1.96,.91-2.65,.41-.42,1.06-.74,1.57-.44,.49,.29,.54,1.01,.26,1.5-.28,.49-.79,.79-1.29,1.06-.5,.26-1.02,.53-1.37,.98"/>
          <path class="cls-12" d="M185.73,330.21c.95-.24,2.12,.17,2.41,1.1-.64,.74-3.95,2.41-4.83,1.48-.95-1.01,1.66-2.39,2.41-2.58Z"/>
          <path class="cls-12" d="M161.26,236.81c.19-1.05,.66-2.07,1.46-2.77,.29-.26,.67-.48,1.06-.41,.5,.09,.77,.61,.98,1.08,.06,.12,.11,.25,.11,.39,0,.29-.23,.52-.44,.72-1.15,1.1-1.97,2.38-2.89,3.65-.68-.51-.44-1.87-.29-2.66Z"/>
          <path class="cls-12" d="M162.79,290.88c-.46-1.06,1.01-2.19,.66-3.3-.26-.82-1.49-1-2.13-.43-.64,.57-.72,1.59-.42,2.4,.3,.81,.91,1.46,1.5,2.09"/>
          <path class="cls-12" d="M207.92,338.11c-.31,.01-.42-.41-.39-.72,.08-.93,.42-1.84,.97-2.6,.43-.59,1.23-1.12,1.84-.72,.48,.31,.51,1.05,.21,1.53-.3,.49-.82,.78-1.33,1.04s-1.04,.52-1.39,.98"/>
          <path class="cls-12" d="M177.87,363.7c2.19-.27,4.48,.56,6,2.16-.7,.28-1.18,1.17-1.92,1.06-.23-.03-.44-.17-.64-.3-1.17-.79-2.35-1.58-3.52-2.37"/>
          <path class="cls-12" d="M149.8,324.7c-.16-1.05-.34-2.12-.84-3.06-.5-.94-1.4-1.73-2.46-1.8-.19-.01-.42,.01-.52,.17-.12,.19-.02,.43,.09,.63,.95,1.74,2.03,3.61,3.87,4.35"/>
          <path class="cls-12" d="M133.28,286.21c.24-.65,.49-1.35,.33-2.02-.14-.59-.62-1.1-1.22-1.22-.59-.12-1.26,.2-1.5,.76-.13,.29-.14,.62-.13,.93,.02,1.67,.29,3.63,1.13,5.08,.61-1.06,.96-2.37,1.4-3.53Z"/>
          <path class="cls-12" d="M133.94,249.93c-.17-.42-.41-.85-.82-1.01-.77-.29-1.55,.6-1.52,1.42,.03,.82,.57,1.52,1.02,2.2,.52,.79,.83,1.86,1.54,2.43,.65-1.52,.39-3.53-.21-5.04Z"/>
          <path class="cls-12" d="M106.35,275.31c.22,.36,.4,.76,.4,1.19,0,.42-.24,.87-.65,.99-.55,.16-1.07-.3-1.44-.74-.98-1.18-2.38-2.99-2.46-4.54,1.67,.16,3.3,1.69,4.14,3.1Z"/>
          <path class="cls-12" d="M105.32,308.1c-.19,.1-.32-.21-.31-.42,.08-1.43,.36-3.04,1.55-3.83,.52-.35,1.37-.41,1.64,.16,.23,.47-.11,1-.43,1.4-.94,1.16-1.98,2.25-3.09,3.25"/>
          <path class="cls-12" d="M102.08,329.57c.38,.37,.79,.85,.65,1.36-.59,2.14-4.16-1.43-4.26-2.67-.23-2.77,2.79,.51,3.61,1.31Z"/>
          <path class="cls-12" d="M130.15,347.64c-.47-1.02-.4-2.28,.19-3.24,.39-.65,1.03-1.17,1.77-1.32,.74-.15,1.58,.11,2.02,.72,.18,.24,.29,.58,.14,.84-.07,.12-.19,.21-.31,.29-1.31,.92-2.63,1.84-3.94,2.76"/>
          <path class="cls-12" d="M130.82,374.61c2.06-.56,4.37-.14,6.1,1.11-.11,.6-.79,.96-1.4,.92-.61-.04-1.16-.36-1.68-.67-.82-.49-1.63-.98-2.45-1.47"/>
          <path class="cls-12" d="M157.05,371.76c-.59,.11-1.02,.66-1.17,1.24-.14,.58-.04,1.2,.1,1.78,.41,1.62,1.25,3.52,2.55,4.59,.79-2.35,.03-5.66-1.49-7.61Z"/>
        </g>
      </g>
    </g>
  </g>
</svg>